<?xml version="1.0" encoding="UTF-8" standalone="no"?>
<!-- Created with Inkscape (http://www.inkscape.org/) -->

<svg
   xmlns:dc="http://purl.org/dc/elements/1.1/"
   xmlns:cc="http://creativecommons.org/ns#"
   xmlns:rdf="http://www.w3.org/1999/02/22-rdf-syntax-ns#"
   xmlns:svg="http://www.w3.org/2000/svg"
   xmlns="http://www.w3.org/2000/svg"
   xmlns:sodipodi="http://sodipodi.sourceforge.net/DTD/sodipodi-0.dtd"
   xmlns:inkscape="http://www.inkscape.org/namespaces/inkscape"
   width="134.64566"
   height="134.64566"
   id="svg3039"
   version="1.1"
   inkscape:version="0.48.5 r10040"
   sodipodi:docname="freifunk-anker.svg">
  <defs
     id="defs3041">
    <clipPath
       clipPathUnits="userSpaceOnUse"
       id="clipPath4598">
      <path
         sodipodi:nodetypes="cccccccc"
         inkscape:connector-curvature="0"
         id="path4600"
         d="m -4588.8535,7377.4531 -67.2619,-33.1184 44.2416,-47.9831 z m -112.1113,-81.1015 44.2416,47.9741 -67.2575,33.1274 z"
         style="fill:#ff0000;fill-opacity:1;fill-rule:evenodd;stroke:none" />
    </clipPath>
    <clipPath
       clipPathUnits="userSpaceOnUse"
       id="clipPath4594">
      <path
         sodipodi:nodetypes="cccccccc"
         inkscape:connector-curvature="0"
         id="path4596"
         d="m -4611.873,7366.1514 -44.3484,-21.8363 29.1702,-31.6371 z m -73.9194,-53.4734 29.1702,31.6312 -44.3455,21.8422 z"
         style="fill:#ff0000;fill-opacity:1;fill-rule:evenodd;stroke:none" />
    </clipPath>
    <clipPath
       clipPathUnits="userSpaceOnUse"
       id="clipPath4590">
      <path
         sodipodi:nodetypes="cccccccc"
         inkscape:connector-curvature="0"
         id="path4592"
         d="m -4623.8797,7360.2562 -32.3968,-15.9515 21.309,-23.1111 z m -53.9986,-39.0626 21.3091,23.1067 -32.3947,15.9559 z"
         style="fill:#ff0000;fill-opacity:1;fill-rule:evenodd;stroke:none" />
    </clipPath>
    <clipPath
       clipPathUnits="userSpaceOnUse"
       id="clipPath4434">
      <rect
         transform="matrix(0.70710678,0.70710678,-0.70710678,0.70710678,0,0)"
         ry="1.8153608"
         rx="1.2299931"
         y="8491.9297"
         x="1914.3979"
         height="261.76361"
         width="261.76361"
         id="rect4436"
         style="opacity:0.57661288;fill:#ff0000;stroke:none" />
    </clipPath>
    <path
       style="fill:#333333;fill-opacity:1;stroke:none;display:inline"
       d="m -4510.8685,8601.4044 c 8.0696,137.1876 125.824,241.8589 263.0119,233.789 137.1877,-8.0696 241.8588,-125.8241 233.789,-263.0118 -8.0697,-137.1877 -125.8241,-241.859 -263.0119,-233.7891 -137.1878,8.0695 -241.8589,125.824 -233.789,263.0119 z"
       id="path4818"
       inkscape:connector-curvature="0" />
    <path
       sodipodi:type="arc"
       style="fill:none;stroke:none;display:inline"
       id="path8788"
       sodipodi:cx="-167.14285"
       sodipodi:cy="679.50507"
       sodipodi:rx="252.85715"
       sodipodi:ry="252.85715"
       d="m 85.714294,679.50507 a 252.85715,252.85715 0 1 1 -505.714294,0 252.85715,252.85715 0 1 1 505.714294,0 z"
       transform="matrix(-0.51916951,0.26351034,0.26351031,0.51916954,-699.44695,643.73975)" />
  </defs>
  <sodipodi:namedview
     id="base"
     pagecolor="#ffffff"
     bordercolor="#666666"
     borderopacity="1.0"
     inkscape:pageopacity="0"
     inkscape:pageshadow="2"
     inkscape:zoom="4.4642426"
     inkscape:cx="103.04103"
     inkscape:cy="91.29178"
     inkscape:document-units="px"
     inkscape:current-layer="g8807"
     showgrid="false"
     units="cm"
     showguides="true"
     inkscape:guide-bbox="true"
     guidecolor="#d7d7ff"
     guideopacity="0.49803922"
     inkscape:window-width="1920"
     inkscape:window-height="1065"
     inkscape:window-x="0"
     inkscape:window-y="15"
     inkscape:window-maximized="0"
     fit-margin-top="0"
     fit-margin-left="0"
     fit-margin-right="0"
     fit-margin-bottom="0">
    <sodipodi:guide
       orientation="1,0"
       position="8.8582677,7.078125e-05"
       id="guide3047" />
    <sodipodi:guide
       orientation="1,0"
       position="125.7874,7.078125e-05"
       id="guide3051" />
    <sodipodi:guide
       orientation="0,1"
       position="0,8.8583385"
       id="guide3053" />
    <sodipodi:guide
       orientation="0,1"
       position="0,125.7874"
       id="guide3055" />
    <sodipodi:guide
       orientation="1,0"
       position="23.031496,0"
       id="guide8855" />
    <sodipodi:guide
       orientation="1,0"
       position="111.61417,0"
       id="guide8857" />
    <sodipodi:guide
       orientation="0,1"
       position="0,23.031496"
       id="guide8859" />
    <sodipodi:guide
       orientation="0,1"
       position="0,111.61417"
       id="guide8861" />
  </sodipodi:namedview>
  <metadata
     id="metadata3044">
    <rdf:RDF>
      <cc:Work
         rdf:about="">
        <dc:format>image/svg+xml</dc:format>
        <dc:type
           rdf:resource="http://purl.org/dc/dcmitype/StillImage" />
        <dc:title></dc:title>
      </cc:Work>
    </rdf:RDF>
  </metadata>
  <g
     inkscape:label="Layer 1"
     inkscape:groupmode="layer"
     id="layer1"
     transform="translate(0,-917.71523)">
    <rect
       style="fill:#333333;fill-opacity:1;fill-rule:evenodd;stroke:none"
       id="rect3219"
       width="134.64568"
       height="134.64568"
       x="0"
       y="917.71521" />
    <g
       transform="matrix(0.27966674,0,0,0.27966674,188.64569,718.63702)"
       id="g8807">
      <path
         inkscape:connector-curvature="0"
         id="path4790"
         d="m -433.80343,800.53786 c 83.8545,0 152.02815,68.17365 152.02815,152.02816 0,83.85448 -68.17365,152.02818 -152.02815,152.02818 -83.85451,0 -152.0458,-68.1737 -152.0458,-152.02818 0,-83.85451 68.19129,-152.02816 152.0458,-152.02816 z m 0,18.65961 c -73.7741,0 -133.38619,59.59445 -133.38619,133.36855 0,73.77408 59.61209,133.38618 133.38619,133.38618 73.77409,0 133.36855,-59.6121 133.36855,-133.38618 0,-73.7741 -59.59446,-133.36855 -133.36855,-133.36855 z"
         style="font-size:medium;font-style:normal;font-variant:normal;font-weight:normal;font-stretch:normal;text-indent:0;text-align:start;text-decoration:none;line-height:normal;letter-spacing:normal;word-spacing:normal;text-transform:none;direction:ltr;block-progression:tb;writing-mode:lr-tb;text-anchor:start;baseline-shift:baseline;color:#000000;fill:#e5287a;fill-opacity:1;stroke:none;stroke-width:33.04941177;marker:none;visibility:visible;display:inline;overflow:visible;enable-background:accumulate;font-family:Sans;-inkscape-font-specification:Sans" />
      <path
         inkscape:connector-curvature="0"
         id="path4792"
         d="m -433.80459,828.00809 c 68.74222,0 124.55838,55.81616 124.55838,124.55838 0,68.74223 -55.81616,124.55843 -124.55838,124.55843 -68.74223,0 -124.57324,-55.8162 -124.57324,-124.55843 0,-68.74222 55.83101,-124.55838 124.57324,-124.55838 z m 0,8.76335 c -64.00834,0 -115.80989,51.7867 -115.80989,115.79503 0,64.00833 51.80155,115.80993 115.80989,115.80993 64.00833,0 115.79503,-51.8016 115.79503,-115.80993 0,-64.00833 -51.7867,-115.79503 -115.79503,-115.79503 z"
         style="font-size:medium;font-style:normal;font-variant:normal;font-weight:normal;font-stretch:normal;text-indent:0;text-align:start;text-decoration:none;line-height:normal;letter-spacing:normal;word-spacing:normal;text-transform:none;direction:ltr;block-progression:tb;writing-mode:lr-tb;text-anchor:start;baseline-shift:baseline;color:#000000;fill:#ededed;fill-opacity:1;stroke:none;stroke-width:18.42903709;marker:none;visibility:visible;display:inline;overflow:visible;enable-background:accumulate;font-family:Sans;-inkscape-font-specification:Sans" />
      <path
         inkscape:connector-curvature="0"
         id="path4794"
         transform="translate(0,857.479)"
         d="m -382.09375,15.84375 -3.96875,4.3125 C -372.47116,32.915903 -364,51.077173 -364,71.21875 c 0,11.026809 -2.53266,21.427417 -7.0625,30.6875 L -365.75,104.5 c 4.93504,-10.054795 7.71875,-21.332328 7.71875,-33.28125 0,-21.841085 -9.25639,-41.545103 -24.0625,-55.375 z m -103.4375,0.09375 c -14.75288,13.825507 -24,33.485079 -24,55.28125 0,11.93332 2.76454,23.205071 7.6875,33.25 l 5.25,-2.5625 c -4.54566,-9.260083 -7.125,-19.660691 -7.125,-30.6875 0,-20.11237 8.53291,-38.24324 22.125,-51 l -3.9375,-4.28125 z m 90.125,14.34375 -3.96875,4.3125 c 9.70687,9.169806 15.78125,22.160882 15.78125,36.59375 0,7.903769 -1.82756,15.389541 -5.0625,22.03125 l 5.3125,2.625 c 3.64557,-7.440402 5.6875,-15.819726 5.6875,-24.65625 1.6e-4,-16.130137 -6.83718,-30.662765 -17.75,-40.90625 z M -472.25,30.3125 c -10.92309,10.242162 -17.78125,24.757905 -17.78125,40.875 0,8.836524 2.06165,17.215848 5.71875,24.65625 l 5.3125,-2.625 c -3.24642,-6.641709 -5.09375,-14.127481 -5.09375,-22.03125 0,-14.41695 6.09871,-27.39435 15.8125,-36.5625 L -472.25,30.3125 z m 64.5625,13.28125 -3.96875,4.3125 c 6.14412,5.844937 9.96875,14.10444 9.96875,23.28125 0,5.038403 -1.16268,9.7932 -3.21875,14.03125 l 5.25,2.59375 c 2.45199,-5.023391 3.84375,-10.662959 3.84375,-16.625 0,-10.854441 -4.56536,-20.65144 -11.875,-27.59375 z M -460,43.625 c -7.29842,6.939651 -11.84375,16.731833 -11.84375,27.5625 0,5.962041 1.38422,11.601609 3.84375,16.625 l 5.28125,-2.59375 c -2.05253,-4.235133 -3.1875,-8.997455 -3.1875,-14.03125 0,-9.148939 3.79486,-17.37692 9.90625,-23.21875 l -4,-4.34375 z m 26.1875,10.4375 c -0.14928,0 -0.29011,0.03125 -0.4375,0.03125 -0.14597,0 -0.29276,0.03125 -0.4375,0.03125 l -0.0312,0 c -0.14485,0 -0.26264,0.03125 -0.40625,0.03125 l -0.0312,0 c -0.14337,0 -0.26418,-0.0072 -0.40625,0.03125 -0.1419,0.0153 -0.29696,0.0241 -0.4375,0.0625 -0.14054,0.0154 -0.29808,0.0241 -0.4375,0.0625 -0.139,0.0151 -0.26843,0.0241 -0.40625,0.0625 -0.13794,0.0227 -0.3008,0.0241 -0.4375,0.0625 -0.13646,0.0191 -0.27108,0.05535 -0.40625,0.09375 -0.13492,0.0345 -0.27222,0.05535 -0.40625,0.09375 -0.26915,0.0651 -0.54867,0.14215 -0.8125,0.21875 -0.13108,0.04591 -0.24521,0.0713 -0.375,0.125 -0.26117,0.08804 -0.52551,0.18175 -0.78125,0.28125 l -0.0312,0 c -0.12713,0.0498 -0.24906,0.10245 -0.375,0.15625 -0.12595,0.05362 -0.25059,0.10245 -0.375,0.15625 -0.37625,0.16846 -0.72961,0.33595 -1.09375,0.53125 l -0.0312,0 c -0.97302,0.52684 -1.8953,1.17001 -2.78125,1.90625 -0.44253,0.36869 -0.86046,0.7663 -1.28125,1.1875 -2.00299,2.0032 -3.43666,4.2548 -4.25,6.75 -0.0854,0.2619 -0.14565,0.51325 -0.21875,0.78125 -0.36237,1.3405 -0.55945,2.7736 -0.59375,4.25 -0.006,0.147 0,0.2882 0,0.4375 0,1.3776 0.13621,2.717 0.4375,4 0.38729,1.6498 1.02078,3.22635 1.90625,4.71875 0.5904,0.9783 1.26393,1.8605 2,2.6875 0.24592,0.2753 0.48813,0.5522 0.75,0.8125 1.0451,1.0338 2.22829,1.9233 3.53125,2.6875 l 0,5.34375 -17.28125,1.0625 0,12.4375 17.28125,1.09375 0,60.15625 c -14.19213,-1.89781 -27.1065,-8.36476 -37.46875,-18.0625 l 15.90625,0.59375 -10.9375,-11.65625 -25.40625,-0.90625 -0.84375,25.5 10.9375,11.6875 0.4375,-15.78125 c 12.54166,12.34233 28.40952,20.6065 45.90625,22.9375 2.30813,3.42201 5.95853,5.65625 10.09375,5.65625 4.13833,0 7.80825,-2.22984 10.125,-5.65625 17.50046,-2.31595 33.36966,-10.56425 45.90625,-22.90625 l 0.4375,15.75 10.9375,-11.6875 -0.84375,-25.5 -25.40625,0.90625 -10.9375,11.65625 15.9375,-0.59375 c -10.36826,9.71929 -23.28009,16.21236 -37.5,18.09375 l 0,-60.21875 17.28125,-1.09375 0,-12.4375 -17.28125,-1.09375 0,-5.3125 c 0.16199,-0.0957 0.34221,-0.2125 0.5,-0.3125 0.15761,-0.0958 0.31486,-0.17795 0.46875,-0.28125 0.15371,-0.1034 0.2878,-0.23655 0.4375,-0.34375 l 0.0312,0 c 0.14999,-0.1072 0.292,-0.2015 0.4375,-0.3125 0.14561,-0.111 0.29584,-0.22505 0.4375,-0.34375 0.14196,-0.1148 0.26843,-0.2563 0.40625,-0.375 0.13883,-0.1188 0.2715,-0.22125 0.40625,-0.34375 0.13475,-0.1264 0.27569,-0.27605 0.40625,-0.40625 0.26223,-0.2595 0.50425,-0.50555 0.75,-0.78125 0.73607,-0.8262 1.40972,-1.74045 2,-2.71875 1.57411,-2.6537 2.37488,-5.5386 2.375,-8.6875 -1.2e-4,-1.6386 -0.19541,-3.2127 -0.59375,-4.6875 -0.072,-0.2673 -0.1654,-0.51715 -0.25,-0.78125 -0.81334,-2.4952 -2.21581,-4.7471 -4.21875,-6.75 -0.42073,-0.4208 -0.86997,-0.81995 -1.3125,-1.1875 -0.11106,-0.09194 -0.20031,-0.19325 -0.3125,-0.28125 -0.78457,-0.62139 -1.61754,-1.1644 -2.46875,-1.625 -0.12175,-0.0651 -0.25171,-0.1262 -0.375,-0.1875 -0.2448,-0.12253 -0.49959,-0.2327 -0.75,-0.34375 -0.37731,-0.16849 -0.76653,-0.33094 -1.15625,-0.46875 -0.12843,-0.04209 -0.24521,-0.0713 -0.375,-0.125 -0.26241,-0.08425 -0.54447,-0.1734 -0.8125,-0.25 -0.13244,-0.03447 -0.24102,-0.05535 -0.375,-0.09375 -1.35346,-0.32928 -2.79126,-0.5 -4.28125,-0.5 l 0,-0.03125 z m 0,9.96875 c 3.9537,0 7.15625,3.202549 7.15625,7.15625 0,3.953701 -3.20255,7.15625 -7.15625,7.15625 -3.9537,0 -7.15625,-3.202549 -7.15625,-7.15625 0,-3.953701 3.20255,-7.15625 7.15625,-7.15625 z"
         clip-path="none"
         style="font-size:medium;font-style:normal;font-variant:normal;font-weight:normal;font-stretch:normal;text-indent:0;text-align:start;text-decoration:none;line-height:normal;letter-spacing:normal;word-spacing:normal;text-transform:none;direction:ltr;block-progression:tb;writing-mode:lr-tb;text-anchor:start;baseline-shift:baseline;color:#000000;fill:#fdbc41;fill-opacity:1;stroke:none;stroke-width:2.82827973;marker:none;visibility:visible;display:inline;overflow:visible;enable-background:accumulate;font-family:Sans;-inkscape-font-specification:Sans" />
      <path
         sodipodi:type="arc"
         style="fill:none;stroke:none;display:inline"
         id="path8830"
         sodipodi:cx="-167.14285"
         sodipodi:cy="679.50507"
         sodipodi:rx="252.85715"
         sodipodi:ry="252.85715"
         d="m 85.714294,679.50507 c 0,139.64914 -113.208,252.85714 -252.857144,252.85714 C -306.792,932.36221 -420,819.15421 -420,679.50507 c 0,-139.64915 113.208,-252.85715 252.85715,-252.85715 139.649144,0 252.857144,113.208 252.857144,252.85715 z"
         transform="matrix(-0.51916951,0.26351034,0.26351031,0.51916954,-699.44695,643.73975)" />
      <g
         style="font-size:40px;font-style:normal;font-variant:normal;font-weight:normal;font-stretch:normal;line-height:125%;letter-spacing:0px;word-spacing:0px;fill:#333333;fill-opacity:1;stroke:none;font-family:Open Sans;-inkscape-font-specification:Open Sans"
         id="text8792">
        <path
           d="m -561.04349,1026.2874 -1.00038,-1.8293 3.91647,-2.1418 c 0.96762,-0.5292 1.25463,-1.1536 0.86105,-1.8733 -0.2799,-0.5118 -0.65609,-0.7866 -1.12859,-0.8242 -0.47251,-0.038 -1.09861,0.1567 -1.8783,0.583 l -3.15477,1.7253 -1.00038,-1.8293 9.33236,-5.1036 1.00039,1.8293 -1.90126,1.0397 c -0.14795,0.081 -0.50347,0.2572 -1.06656,0.5288 l -0.56275,0.2532 0.0525,0.096 c 0.87878,0.049 1.56088,0.5177 2.04632,1.4054 0.43076,0.7877 0.54574,1.5013 0.34496,2.141 -0.20081,0.6396 -0.69706,1.1759 -1.48874,1.6088 l -4.3723,2.3911"
           style="font-size:14px;font-weight:bold;fill:#333333;-inkscape-font-specification:Open Sans Bold"
           id="path8864" />
        <path
           d="m -557.363,1032.2592 0.66626,-0.8935 -0.029,-0.046 c -0.56092,-0.063 -1.01398,-0.2063 -1.35917,-0.431 -0.33891,-0.2232 -0.66688,-0.5878 -0.98391,-1.0936 -0.38964,-0.6217 -0.51936,-1.2235 -0.38916,-1.8053 0.13262,-0.5779 0.52716,-1.0726 1.18364,-1.484 0.68736,-0.4308 1.34328,-0.5084 1.96775,-0.2328 0.63074,0.277 1.26722,0.8892 1.90942,1.8367 l 0.73901,1.1019 0.28383,-0.1778 c 0.65646,-0.4115 0.77415,-0.9531 0.35306,-1.625 -0.3243,-0.5175 -0.86186,-1.0277 -1.61269,-1.5306 l 0.82659,-1.3329 c 0.8571,0.5009 1.57001,1.2051 2.13875,2.1125 0.54451,0.8689 0.77276,1.6536 0.68474,2.3542 -0.088,0.7005 -0.5182,1.2928 -1.29051,1.7769 l -4.31535,2.7044 -0.77322,-1.2338 m 2.67375,-2.4017 -0.45153,-0.669 c -0.33732,-0.5039 -0.66959,-0.8281 -0.9968,-0.9726 -0.32723,-0.1445 -0.66461,-0.1079 -1.01215,0.1099 -0.49815,0.3122 -0.56813,0.7541 -0.20995,1.3256 0.25652,0.4093 0.5788,0.6618 0.96683,0.7575 0.39044,0.1 0.78067,0.027 1.1707,-0.2174 l 0.5329,-0.334"
           style="font-size:14px;font-weight:bold;fill:#333333;-inkscape-font-specification:Open Sans Bold"
           id="path8866" />
        <path
           d="m -551.40574,1040.8289 -1.23708,-1.6783 3.59322,-2.6486 c 0.44387,-0.3272 0.72043,-0.6471 0.82968,-0.9597 0.11561,-0.3117 0.0558,-0.6271 -0.17945,-0.9463 -0.31637,-0.4292 -0.70395,-0.6247 -1.16274,-0.5866 -0.4588,0.038 -1.04954,0.3235 -1.77222,0.8562 l -2.89438,2.1334 -1.23708,-1.6783 6.15195,-4.5346 0.94504,1.2821 -0.62058,0.8057 0.0689,0.093 c 0.40414,-0.043 0.80001,0.033 1.1876,0.2286 0.39124,0.1929 0.73558,0.4911 1.03303,0.8946 0.6787,0.9208 0.83756,1.7661 0.47661,2.5361 l 0.10951,0.1485 c 0.40781,-0.046 0.80821,0.033 1.20121,0.2356 0.39568,0.2065 0.74225,0.5116 1.0397,0.9151 0.51374,0.697 0.72201,1.3559 0.62481,1.9768 -0.0909,0.6217 -0.53064,1.2233 -1.31934,1.8047 l -4.01142,2.9568 -1.24113,-1.6838 3.59322,-2.6486 c 0.44387,-0.3272 0.72043,-0.6471 0.82968,-0.9597 0.1156,-0.3117 0.0558,-0.6271 -0.17945,-0.9463 -0.30286,-0.4108 -0.67673,-0.6108 -1.12162,-0.5999 -0.4422,0.014 -0.98245,0.2571 -1.62074,0.7276 l -3.08698,2.2754"
           style="font-size:14px;font-weight:bold;fill:#333333;-inkscape-font-specification:Open Sans Bold"
           id="path8868" />
        <path
           d="m -538.49038,1044.4137 c 0.5898,0.6829 0.78422,1.4483 0.58327,2.2964 -0.19752,0.845 -0.76017,1.6681 -1.68793,2.4695 -0.95537,0.8251 -1.86795,1.264 -2.73773,1.3167 -0.86682,0.056 -1.59662,-0.2589 -2.1894,-0.9453 -0.58684,-0.6794 -0.80047,-1.4253 -0.64089,-2.2375 l -0.0938,-0.1087 -0.86422,0.2858 -1.0411,-1.2054 8.0499,-6.9527 1.36282,1.5779 -1.87279,1.6176 c -0.23799,0.2055 -0.63697,0.514 -1.19696,0.9254 l 0.0536,0.062 c 0.89126,-0.1254 1.64967,0.174 2.27524,0.8983 m -1.70022,0.5833 c -0.33662,-0.3898 -0.70308,-0.5701 -1.0994,-0.5409 -0.39289,0.026 -0.86822,0.2742 -1.42601,0.7439 l -0.17073,0.1474 c -0.62082,0.5362 -0.98679,1.0119 -1.09793,1.427 -0.10817,0.4186 0.0105,0.828 0.35607,1.228 0.28001,0.3242 0.65024,0.4531 1.11069,0.3866 0.46687,-0.066 0.98485,-0.3448 1.55393,-0.8363 0.56908,-0.4915 0.91162,-0.9559 1.02763,-1.3933 0.11944,-0.4404 0.0347,-0.8279 -0.25425,-1.1624"
           style="font-size:14px;font-weight:bold;fill:#333333;-inkscape-font-specification:Open Sans Bold"
           id="path8870" />
        <path
           d="m -537.53833,1056.8208 0.50293,-0.8838 -0.0765,-0.078 c -0.41027,0.089 -0.82885,0.055 -1.25572,-0.101 -0.42362,-0.1594 -0.81864,-0.4265 -1.18507,-0.8012 -0.62771,-0.6419 -0.92983,-1.293 -0.90635,-1.9534 0.0267,-0.6636 0.36267,-1.3108 1.00781,-1.9417 l 3.56288,-3.4843 1.45775,1.4907 -3.19144,3.121 c -0.39425,0.3856 -0.62224,0.7456 -0.68398,1.08 -0.0585,0.3313 0.062,0.6501 0.36155,0.9564 0.40785,0.417 0.84106,0.583 1.29964,0.4979 0.46183,-0.088 1.0153,-0.4479 1.66044,-1.0788 l 2.57075,-2.5141 1.45775,1.4907 -5.46406,5.3435 -1.1184,-1.1437"
           style="font-size:14px;font-weight:bold;fill:#333333;-inkscape-font-specification:Open Sans Bold"
           id="path8872" />
        <path
           d="m -526.40329,1056.6238 c 0.20803,0.1912 0.36697,0.3651 0.4768,0.5218 l -1.43868,1.3331 c -0.0933,-0.1476 -0.2289,-0.3032 -0.40674,-0.4666 -0.48992,-0.4502 -0.98809,-0.676 -1.49451,-0.6772 -0.50308,0 -0.96277,0.2294 -1.37907,0.6824 l -2.63194,2.8639 -1.53516,-1.4108 5.17137,-5.6272 1.1627,1.0685 -0.64311,1.1544 0.0755,0.069 c 0.46435,-0.1551 0.93206,-0.1926 1.40313,-0.1125 0.47749,0.08 0.89072,0.2801 1.23971,0.6008"
           style="font-size:14px;font-weight:bold;fill:#333333;-inkscape-font-specification:Open Sans Bold"
           id="path8874" />
        <path
           d="m -520.09573,1062.1398 -0.67805,0.8142 -1.11612,-0.5292 c -0.0506,0.4027 -0.21157,0.7668 -0.48278,1.0925 -0.52495,0.6304 -1.15532,0.9387 -1.89111,0.9249 -0.72939,-0.014 -1.48455,-0.3467 -2.26548,-0.997 l -0.27579,-0.2564 -0.21452,-0.2231 c -0.26958,-0.011 -0.46853,0.061 -0.59685,0.2146 -0.19248,0.2312 0.005,0.5917 0.59378,1.0816 l 0.99807,0.8312 c 0.64436,0.5366 1.01944,1.0832 1.12524,1.6398 0.1093,0.5596 -0.0591,1.1073 -0.50534,1.6431 -0.57161,0.6863 -1.30206,0.9795 -2.19134,0.8794 -0.88579,-0.097 -1.86449,-0.5919 -2.93609,-1.4843 -0.81947,-0.6824 -1.32675,-1.348 -1.52186,-1.9968 -0.19451,-0.6424 -0.0774,-1.2209 0.35128,-1.7357 0.29455,-0.3537 0.65129,-0.5578 1.07023,-0.6122 0.41893,-0.054 0.88431,0.045 1.39612,0.2998 -0.10626,-0.2072 -0.15506,-0.4405 -0.1464,-0.7002 0.0116,-0.2632 0.0917,-0.484 0.24048,-0.6626 0.18664,-0.2242 0.40599,-0.3558 0.65806,-0.395 0.25497,-0.043 0.56481,-0.034 0.92952,0.027 -0.19735,-0.3897 -0.2646,-0.8075 -0.20172,-1.2533 0.0664,-0.4429 0.26578,-0.8639 0.59825,-1.2632 0.53369,-0.6408 1.15471,-0.9628 1.86309,-0.966 0.70836,-0 1.44952,0.3175 2.22346,0.962 0.16459,0.1371 0.34582,0.3147 0.54371,0.5329 0.20429,0.2176 0.33212,0.3596 0.3835,0.4261 l 2.04866,1.7061 m -10.11519,2.9276 c -0.18373,0.2206 -0.22303,0.4814 -0.1179,0.7825 0.10863,0.3039 0.35381,0.6149 0.73552,0.9328 0.57433,0.4782 1.08995,0.7742 1.54687,0.8878 0.45692,0.1136 0.79911,0.034 1.02659,-0.2393 0.18373,-0.2206 0.21428,-0.4531 0.0917,-0.6976 -0.12262,-0.2444 -0.38529,-0.5343 -0.78802,-0.8697 l -0.82997,-0.6912 c -0.29416,-0.245 -0.59792,-0.3823 -0.91127,-0.4119 -0.31277,-0.023 -0.56393,0.079 -0.75349,0.3066 m 4.56389,-4.2947 c -0.2654,0.3187 -0.40358,0.6306 -0.41456,0.9358 -0.007,0.3081 0.1376,0.5861 0.43527,0.834 0.30117,0.2508 0.59908,0.3417 0.89373,0.2728 0.29464,-0.069 0.57465,-0.2628 0.84005,-0.5815 0.58909,-0.7074 0.59298,-1.3031 0.0117,-1.7873 -0.58834,-0.4899 -1.17706,-0.3812 -1.76615,0.3262"
           style="font-size:14px;font-weight:bold;fill:#333333;-inkscape-font-specification:Open Sans Bold"
           id="path8876" />
        <path
           d="m -523.61074,1067.7931 c 0.23283,-0.3038 0.49023,-0.4712 0.7722,-0.502 0.28197,-0.031 0.57851,0.073 0.88962,0.3113 0.30025,0.2301 0.47079,0.487 0.51162,0.7709 0.0445,0.2867 -0.047,0.5784 -0.27425,0.875 -0.21897,0.2858 -0.47541,0.4481 -0.76931,0.487 -0.29114,0.035 -0.58502,-0.061 -0.88165,-0.288 -0.30388,-0.2328 -0.47803,-0.4925 -0.52248,-0.7792 -0.0417,-0.2903 0.0497,-0.582 0.27425,-0.875"
           style="font-size:14px;font-weight:bold;fill:#333333;-inkscape-font-specification:Open Sans Bold"
           id="path8878" />
        <path
           d="m -513.81501,1068.6777 -1.46698,-1.0511 -3.53957,4.9399 -1.69481,-1.2143 3.53957,-4.94 -0.93353,-0.6689 0.58528,-0.8168 1.26002,0.2132 0.32648,-0.4556 c 0.50698,-0.7076 1.05137,-1.0996 1.63318,-1.1761 0.5818,-0.077 1.25612,0.16 2.02296,0.7094 0.5853,0.4194 1.04341,0.8794 1.37432,1.38 l -1.32529,0.9342 c -0.26385,-0.3517 -0.54024,-0.631 -0.82919,-0.8381 -0.2408,-0.1725 -0.46667,-0.225 -0.67761,-0.1575 -0.2083,0.064 -0.39208,0.2068 -0.55133,0.4291 l -0.27871,0.389 1.46698,1.0511 -0.91177,1.2725"
           style="font-size:14px;font-weight:bold;fill:#333333;-inkscape-font-specification:Open Sans Bold"
           id="path8880" />
        <path
           d="m -508.52583,1070.1201 c 0.23609,0.1553 0.42093,0.3014 0.55453,0.4383 l -1.20544,1.5472 c -0.11587,-0.1307 -0.27471,-0.2624 -0.47652,-0.3951 -0.55597,-0.3655 -1.08397,-0.5081 -1.58399,-0.4279 -0.49622,0.083 -0.91333,0.3813 -1.25132,0.8954 l -2.13687,3.2501 -1.74214,-1.1455 4.19863,-6.3859 1.31946,0.8675 -0.44899,1.2428 0.0857,0.056 c 0.43336,-0.2278 0.88894,-0.34 1.36676,-0.3368 0.48411,0 0.92418,0.1332 1.32022,0.3935"
           style="font-size:14px;font-weight:bold;fill:#333333;-inkscape-font-specification:Open Sans Bold"
           id="path8882" />
        <path
           d="m -505.10245,1073.9304 c -0.38101,-0.2242 -0.75116,-0.2781 -1.11047,-0.1617 -0.35702,0.1125 -0.6818,0.3814 -0.97437,0.8068 l 2.52167,1.4837 c 0.25329,-0.4485 0.33848,-0.8584 0.25557,-1.2297 -0.0806,-0.3752 -0.31141,-0.675 -0.6924,-0.8991 m -3.01218,5.6991 c -1.06052,-0.624 -1.71712,-1.4043 -1.9698,-2.3408 -0.25268,-0.9365 -0.0636,-1.9409 0.56735,-3.0133 0.64941,-1.1037 1.42586,-1.7942 2.32935,-2.0717 0.90972,-0.279 1.85164,-0.1319 2.82575,0.4412 0.93089,0.5477 1.49958,1.2393 1.70607,2.0746 0.20647,0.8353 0.0347,1.7204 -0.51533,2.6552 l -0.51305,0.872 -4.24796,-2.4994 c -0.2808,0.5221 -0.36415,1.0098 -0.25005,1.4629 0.11409,0.4531 0.42645,0.8299 0.93707,1.1304 0.39671,0.2334 0.79608,0.4128 1.19813,0.5384 0.40203,0.1255 0.84866,0.2111 1.33991,0.2569 l -0.81812,1.3905 c -0.40667,-0.028 -0.81068,-0.1095 -1.21202,-0.2452 -0.40366,-0.1317 -0.86276,-0.349 -1.3773,-0.6517"
           style="font-size:14px;font-weight:bold;fill:#333333;-inkscape-font-specification:Open Sans Bold"
           id="path8884" />
        <path
           d="m -499.39923,1073.35 c 0.31913,-0.5993 0.81258,-0.7212 1.48033,-0.3657 0.66775,0.3556 0.84205,0.833 0.52292,1.4324 -0.15208,0.2856 -0.35543,0.4639 -0.61005,0.5348 -0.24846,0.069 -0.53963,0.015 -0.8735,-0.1631 -0.66775,-0.3555 -0.84099,-0.835 -0.5197,-1.4384 m -2.60165,9.5114 -1.84034,-0.9799 3.59193,-6.7459 1.84033,0.9799 -3.59192,6.7459"
           style="font-size:14px;font-weight:bold;fill:#333333;-inkscape-font-specification:Open Sans Bold"
           id="path8886" />
        <path
           d="m -493.59269,1080.2703 -1.61988,-0.7955 -2.67892,5.4548 -1.87145,-0.9191 2.67891,-5.4548 -1.03083,-0.5062 0.44297,-0.902 1.27793,0 0.2471,-0.5032 c 0.38371,-0.7813 0.85621,-1.2575 1.41752,-1.4286 0.5613,-0.1711 1.26533,-0.049 2.11209,0.3671 0.64631,0.3174 1.17383,0.6958 1.58256,1.1351 l -1.1536,1.1394 c -0.31809,-0.3034 -0.63666,-0.5335 -0.95572,-0.6902 -0.2659,-0.1306 -0.49733,-0.1452 -0.6943,-0.044 -0.19497,0.097 -0.35272,0.2685 -0.47325,0.514 l -0.21094,0.4295 1.61988,0.7955 -0.69007,1.4051"
           style="font-size:14px;font-weight:bold;fill:#333333;-inkscape-font-specification:Open Sans Bold"
           id="path8888" />
        <path
           d="m -490.22791,1088.3871 0.12964,-1.0086 -0.10044,-0.043 c -0.3458,0.238 -0.74581,0.3658 -1.20003,0.3834 -0.45242,0.013 -0.91927,-0.084 -1.40053,-0.2912 -0.82443,-0.3554 -1.35117,-0.843 -1.58021,-1.4629 -0.22724,-0.624 -0.16224,-1.3503 0.195,-2.1789 l 1.97295,-4.5763 1.91461,0.8255 -1.76727,4.0991 c -0.21832,0.5064 -0.29253,0.926 -0.22264,1.2589 0.0717,0.3287 0.30423,0.5778 0.69762,0.7474 0.53567,0.2309 0.99945,0.22 1.39136,-0.033 0.3937,-0.2571 0.76917,-0.7999 1.12642,-1.6285 l 1.42356,-3.3019 1.9146,0.8254 -3.02573,7.0181 -1.46891,-0.6333"
           style="font-size:14px;font-weight:bold;fill:#333333;-inkscape-font-specification:Open Sans Bold"
           id="path8890" />
        <path
           d="m -480.07049,1092.2142 -1.96223,-0.7048 1.50889,-4.2011 c 0.18639,-0.5189 0.23359,-0.9402 0.1416,-1.2638 -0.0905,-0.3279 -0.33728,-0.5642 -0.74045,-0.709 -0.549,-0.1972 -1.01197,-0.1553 -1.38892,0.1258 -0.37542,0.2767 -0.71564,0.8397 -1.02065,1.689 l -1.21543,3.384 -1.96224,-0.7047 2.58338,-7.1928 1.49902,0.5384 -0.0667,1.0148 0.10937,0.039 c 0.34352,-0.2689 0.73772,-0.4227 1.18261,-0.4614 0.4507,-0.042 0.92053,0.025 1.40949,0.2011 0.83636,0.3004 1.38949,0.7557 1.6594,1.366 0.27143,0.6059 0.25388,1.3356 -0.0527,2.1891 l -1.68451,4.6901"
           style="font-size:14px;font-weight:bold;fill:#333333;-inkscape-font-specification:Open Sans Bold"
           id="path8892" />
        <path
           d="m -474.92349,1089.4475 1.19869,-0.8603 2.70577,-1.6306 2.25713,0.6597 -3.8434,2.3308 1.87646,5.0566 -2.30961,-0.675 -1.24402,-3.5899 -1.06091,0.4377 -0.66739,2.2834 -2.00123,-0.5849 2.98409,-10.2096 2.00123,0.5849 -1.33095,4.5537 -0.59211,1.6359 0.0263,0.01"
           style="font-size:14px;font-weight:bold;fill:#333333;-inkscape-font-specification:Open Sans Bold"
           id="path8894" />
        <path
           d="m -469.69129,1094.2014 c 0.0916,-0.3717 0.26034,-0.6282 0.50634,-0.7694 0.246,-0.1412 0.55927,-0.165 0.93982,-0.071 0.36728,0.09 0.6265,0.2575 0.77766,0.5013 0.15559,0.2448 0.18869,0.5487 0.0993,0.9115 -0.0861,0.3496 -0.25602,0.6011 -0.5097,0.7545 -0.25261,0.149 -0.56033,0.1788 -0.92318,0.089 -0.37171,-0.092 -0.63535,-0.2598 -0.79094,-0.5046 -0.1545,-0.2493 -0.1876,-0.5531 -0.0993,-0.9115"
           style="font-size:14px;font-weight:bold;fill:#333333;-inkscape-font-specification:Open Sans Bold"
           id="path8896" />
        <path
           d="m -458.84597,1097.5652 -2.04468,-0.4079 0.87324,-4.3776 c 0.10786,-0.5407 0.0924,-0.9644 -0.0462,-1.2709 -0.1378,-0.3109 -0.41675,-0.5083 -0.83685,-0.5921 -0.57207,-0.1141 -1.02381,-0 -1.35522,0.3291 -0.33053,0.3291 -0.58405,0.9361 -0.76057,1.821 l -0.7034,3.5262 -2.04468,-0.4078 1.49507,-7.495 1.562,0.3116 0.0836,1.0135 0.11396,0.023 c 0.30014,-0.3165 0.66737,-0.5267 1.10169,-0.6306 0.43967,-0.1075 0.91425,-0.1104 1.42375,-0.01 0.8715,0.1739 1.48569,0.5427 1.84259,1.1065 0.35778,0.5593 0.44797,1.2836 0.27057,2.173 l -0.97487,4.8871"
           style="font-size:14px;font-weight:bold;fill:#333333;-inkscape-font-specification:Open Sans Bold"
           id="path8898" />
        <path
           d="m -452.71194,1092.1022 c -0.43788,-0.061 -0.80035,0.032 -1.0874,0.2772 -0.28643,0.241 -0.48304,0.614 -0.58982,1.1191 l 2.8981,0.4015 c 0.0616,-0.5113 -0.0171,-0.9225 -0.23627,-1.2335 -0.21854,-0.3155 -0.54674,-0.5036 -0.98461,-0.5643 m -0.59254,6.4189 c -1.21883,-0.1689 -2.12473,-0.6372 -2.7177,-1.4048 -0.59296,-0.7677 -0.80408,-1.7677 -0.63334,-3.0001 0.17574,-1.2685 0.62744,-2.2043 1.35512,-2.8074 0.7328,-0.607 1.65897,-0.8329 2.77849,-0.6778 1.06985,0.1482 1.8605,0.5683 2.37195,1.2603 0.51143,0.6919 0.69273,1.5751 0.54389,2.6495 l -0.13884,1.0021 -4.88208,-0.6764 c -0.0587,0.59 0.0516,1.0723 0.33095,1.4468 0.27936,0.3746 0.71246,0.6025 1.29931,0.6838 0.45592,0.063 0.89359,0.075 1.31301,0.037 0.4194,-0.039 0.86469,-0.1309 1.33585,-0.2773 l -0.22139,1.598 c -0.38616,0.1306 -0.79057,0.2103 -1.21324,0.2391 -0.4233,0.033 -0.93063,0.01 -1.52198,-0.073"
           style="font-size:14px;font-weight:bold;fill:#333333;-inkscape-font-specification:Open Sans Bold"
           id="path8900" />
        <path
           d="m -445.15225,1097.7363 c 0.36313,0.032 0.80599,-0.01 1.32857,-0.1217 l -0.13791,1.5456 c -0.53813,0.1854 -1.18396,0.2444 -1.93747,0.1772 -0.83069,-0.074 -1.41805,-0.337 -1.76208,-0.7886 -0.3391,-0.4558 -0.47118,-1.1036 -0.39625,-1.9433 l 0.32744,-3.67 -0.9941,-0.089 0.0784,-0.8784 1.20586,-0.5924 0.74256,-1.5534 1.32773,0.1184 -0.14459,1.6205 2.13118,0.1902 -0.13911,1.5592 -2.13119,-0.1901 -0.32744,3.67 c -0.0263,0.295 0.0359,0.5202 0.1868,0.6755 0.15539,0.1557 0.36927,0.2457 0.64163,0.27"
           style="font-size:14px;font-weight:bold;fill:#333333;-inkscape-font-specification:Open Sans Bold"
           id="path8902" />
      </g>
    </g>
  </g>
</svg>
