<?xml version="1.0" encoding="UTF-8" standalone="no"?>
<!-- Created with Inkscape (http://www.inkscape.org/) -->

<svg
   xmlns:dc="http://purl.org/dc/elements/1.1/"
   xmlns:cc="http://creativecommons.org/ns#"
   xmlns:rdf="http://www.w3.org/1999/02/22-rdf-syntax-ns#"
   xmlns:svg="http://www.w3.org/2000/svg"
   xmlns="http://www.w3.org/2000/svg"
   xmlns:sodipodi="http://sodipodi.sourceforge.net/DTD/sodipodi-0.dtd"
   xmlns:inkscape="http://www.inkscape.org/namespaces/inkscape"
   width="90"
   height="90"
   id="svg2"
   version="1.1"
   inkscape:version="0.48.5 r10040"
   sodipodi:docname="our-net.svg">
  <defs
     id="defs4" />
  <sodipodi:namedview
     id="base"
     pagecolor="#333333"
     bordercolor="#666666"
     borderopacity="1.0"
     inkscape:pageopacity="1"
     inkscape:pageshadow="2"
     inkscape:zoom="5.0998265"
     inkscape:cx="35.494466"
     inkscape:cy="39.48975"
     inkscape:document-units="px"
     inkscape:current-layer="layer1"
     showgrid="false"
     fit-margin-top="0"
     fit-margin-left="0"
     fit-margin-right="0"
     fit-margin-bottom="0"
     inkscape:window-width="1920"
     inkscape:window-height="1065"
     inkscape:window-x="0"
     inkscape:window-y="15"
     inkscape:window-maximized="0" />
  <metadata
     id="metadata7">
    <rdf:RDF>
      <cc:Work
         rdf:about="">
        <dc:format>image/svg+xml</dc:format>
        <dc:type
           rdf:resource="http://purl.org/dc/dcmitype/StillImage" />
        <dc:title></dc:title>
      </cc:Work>
    </rdf:RDF>
  </metadata>
  <g
     inkscape:label="Layer 1"
     inkscape:groupmode="layer"
     id="layer1"
     transform="translate(-667.06347,-266.36526)">
    <g
       id="g3809">
      <rect
         y="268.71674"
         x="671.03192"
         height="8.5409775"
         width="82.096161"
         id="rect3019"
         style="fill:#e5287a;fill-opacity:1;stroke:none" />
      <rect
         style="fill:#e5287a;fill-opacity:1;stroke:none"
         id="rect3789"
         width="82.096161"
         height="8.5409775"
         x="671.03192"
         y="345.47278" />
      <path
         inkscape:connector-curvature="0"
         id="path3873"
         style="font-size:40.81572341999999765px;font-style:normal;font-variant:normal;font-weight:bold;font-stretch:normal;line-height:125%;letter-spacing:0px;word-spacing:0px;fill:#ededed;fill-opacity:1;stroke:none;font-family:Open Sans;-inkscape-font-specification:Open Sans Bold"
         d="m 677.17574,309.74968 -5.9003,0 0,-29.73119 16.21132,0 0,5.16533 -10.31102,0 0,7.66667 9.59524,0 0,5.145 -9.59524,0 0,11.75419" />
      <path
         inkscape:connector-curvature="0"
         id="path3875"
         style="font-size:40.81572341999999765px;font-style:normal;font-variant:normal;font-weight:bold;font-stretch:normal;line-height:125%;letter-spacing:0px;word-spacing:0px;fill:#ededed;fill-opacity:1;stroke:none;font-family:Open Sans;-inkscape-font-specification:Open Sans Bold"
         d="m 696.35617,309.74968 -5.9003,0 0,-29.73119 16.21132,0 0,5.16533 -10.31102,0 0,7.66667 9.59526,0 0,5.145 -9.59526,0 0,11.75419" />
      <path
         inkscape:connector-curvature="0"
         id="path3877"
         style="font-size:40.81572341999999765px;font-style:normal;font-variant:normal;font-weight:bold;font-stretch:normal;line-height:125%;letter-spacing:0px;word-spacing:0px;fill:#ededed;fill-opacity:1;stroke:none;font-family:Open Sans;-inkscape-font-specification:Open Sans Bold"
         d="m 729.54889,309.74968 -5.97768,0 0,-12.83199 -8.44308,0 0,12.83199 -5.99703,0 0,-29.73119 5.99703,0 0,11.65251 8.44308,0 0,-11.65251 5.97768,0 0,29.73119"
         sodipodi:nodetypes="ccccccccccccc" />
      <path
         inkscape:connector-curvature="0"
         id="path3879"
         style="font-size:40.81572341999999765px;font-style:normal;font-variant:normal;font-weight:bold;font-stretch:normal;line-height:125%;letter-spacing:0px;word-spacing:0px;fill:#ededed;fill-opacity:1;stroke:none;font-family:Open Sans;-inkscape-font-specification:Open Sans Bold"
         d="m 752.8515,309.74968 -5.9777,0 0,-12.83199 -8.44307,0 0,12.83199 -5.99702,0 0,-29.73119 5.99702,0 0,11.65251 8.44307,0 0,-11.65251 5.9777,0 0,29.73119"
         sodipodi:nodetypes="ccccccccccccc" />
      <path
         inkscape:connector-curvature="0"
         id="path3866"
         style="font-size:41.08403014999999669px;font-style:normal;font-variant:normal;font-weight:bold;font-stretch:normal;line-height:125%;letter-spacing:0px;word-spacing:0px;fill:#ededed;fill-opacity:1;stroke:none;font-family:Open Sans;-inkscape-font-specification:Open Sans Bold"
         d="m 677.11895,342.8195 -5.95703,0 0,-30.12337 16.36719,0 0,5.23347 -10.41016,0 0,7.76779 9.6875,0 0,5.21287 -9.6875,0 0,11.90924" />
      <path
         inkscape:connector-curvature="0"
         id="path3868"
         style="font-size:41.08403014999999669px;font-style:normal;font-variant:normal;font-weight:bold;font-stretch:normal;line-height:125%;letter-spacing:0px;word-spacing:0px;fill:#ededed;fill-opacity:1;stroke:none;font-family:Open Sans;-inkscape-font-specification:Open Sans Bold"
         d="m 704.32676,342.8195 -6.05468,0 0,-24.80748 -7.75392,0 0,-5.31589 21.5625,0 0,5.31589 -7.7539,0 0,24.80748" />
      <path
         inkscape:connector-curvature="0"
         id="path3870"
         style="font-size:41.08403014999999669px;font-style:normal;font-variant:normal;font-weight:bold;font-stretch:normal;line-height:125%;letter-spacing:0px;word-spacing:0px;fill:#ededed;fill-opacity:1;stroke:none;font-family:Open Sans;-inkscape-font-specification:Open Sans Bold"
         d="m 745.69939,342.8195 -6.89453,0 -3.86719,-15.82405 c -0.14325,-0.56316 -0.39064,-1.72386 -0.74219,-3.48211 -0.33856,-1.77194 -0.53387,-2.96011 -0.58594,-3.56453 -0.0782,0.74177 -0.27345,1.93683 -0.58593,3.58514 -0.31252,1.63462 -0.5534,2.80219 -0.72265,3.50272 l -3.84766,15.78283 -6.875,0 -7.28516,-30.12337 5.95703,0 3.65234,16.44216 c 0.63802,3.0357 1.10025,5.66618 1.38672,7.89142 0.0781,-0.78296 0.2539,-1.99173 0.52735,-3.62634 0.28645,-1.64832 0.55337,-2.92579 0.80078,-3.83238 l 4.16015,-16.87486 5.72267,0 4.16015,16.87486 c 0.18226,0.75549 0.41013,1.90933 0.6836,3.4615 0.27341,1.5522 0.48174,2.8846 0.62499,3.99722 0.13018,-1.07141 0.33851,-2.40381 0.625,-3.99722 0.28643,-1.60711 0.54685,-2.90518 0.78125,-3.8942 l 3.63282,-16.44216 5.95703,0 -7.26563,30.12337" />
    </g>
  </g>
</svg>
