<?xml version="1.0" encoding="UTF-8" standalone="no"?>
<!-- Created with Inkscape (http://www.inkscape.org/) -->

<svg
   xmlns:dc="http://purl.org/dc/elements/1.1/"
   xmlns:cc="http://creativecommons.org/ns#"
   xmlns:rdf="http://www.w3.org/1999/02/22-rdf-syntax-ns#"
   xmlns:svg="http://www.w3.org/2000/svg"
   xmlns="http://www.w3.org/2000/svg"
   xmlns:sodipodi="http://sodipodi.sourceforge.net/DTD/sodipodi-0.dtd"
   xmlns:inkscape="http://www.inkscape.org/namespaces/inkscape"
   width="210mm"
   height="297mm"
   viewBox="0 0 744.09448819 1052.3622047"
   id="svg2"
   version="1.1"
   inkscape:version="0.91 r13725"
   sodipodi:docname="beachflag.svg"
   inkscape:export-filename="/tmp/g7396.png"
   inkscape:export-xdpi="50.004379"
   inkscape:export-ydpi="50.004379">
  <defs
     id="defs4">
    <clipPath
       id="clipPath4169"
       clipPathUnits="userSpaceOnUse">
      <path
         inkscape:connector-curvature="0"
         id="path4171"
         d="m 0,5539.568 3597.122,0 L 3597.122,0 0,0 0,5539.568 Z" />
    </clipPath>
    <clipPath
       clipPathUnits="userSpaceOnUse"
       id="clipPath4598-4">
      <path
         sodipodi:nodetypes="cccccccc"
         inkscape:connector-curvature="0"
         id="path4600-8"
         d="m -4588.8535,7377.4531 -67.2619,-33.1184 44.2416,-47.9831 z m -112.1113,-81.1015 44.2416,47.9741 -67.2575,33.1274 z"
         style="fill:#ff0000;fill-opacity:1;fill-rule:evenodd;stroke:none" />
    </clipPath>
    <clipPath
       clipPathUnits="userSpaceOnUse"
       id="clipPath4594-4">
      <path
         sodipodi:nodetypes="cccccccc"
         inkscape:connector-curvature="0"
         id="path4596-2"
         d="m -4611.873,7366.1514 -44.3484,-21.8363 29.1702,-31.6371 z m -73.9194,-53.4734 29.1702,31.6312 -44.3455,21.8422 z"
         style="fill:#ff0000;fill-opacity:1;fill-rule:evenodd;stroke:none" />
    </clipPath>
    <clipPath
       clipPathUnits="userSpaceOnUse"
       id="clipPath4590-9">
      <path
         sodipodi:nodetypes="cccccccc"
         inkscape:connector-curvature="0"
         id="path4592-5"
         d="m -4623.8797,7360.2562 -32.3968,-15.9515 21.309,-23.1111 z m -53.9986,-39.0626 21.3091,23.1067 -32.3947,15.9559 z"
         style="fill:#ff0000;fill-opacity:1;fill-rule:evenodd;stroke:none" />
    </clipPath>
    <clipPath
       clipPathUnits="userSpaceOnUse"
       id="clipPath4434-6">
      <rect
         transform="matrix(0.70710678,0.70710678,-0.70710678,0.70710678,0,0)"
         ry="1.8153608"
         rx="1.2299931"
         y="8491.9297"
         x="1914.3979"
         height="261.76361"
         width="261.76361"
         id="rect4436-4"
         style="opacity:0.57661288;fill:#ff0000;stroke:none" />
    </clipPath>
    <clipPath
       clipPathUnits="userSpaceOnUse"
       id="clipPath7514">
      <path
         inkscape:connector-curvature="0"
         id="path7516"
         style="fill:#e5287a;fill-opacity:1"
         d="m -6020.0855,-1374.1462 -103.9675,0 c 0,-672.93 -526.41,-1156.4088 -1087.2888,-1220.22 -678.33,-77.3087 -1056.8712,396.8087 -1056.8712,396.8087 -515.7887,577.6225 -622.0812,1196.9125 -622.0812,1196.9125 C -9152.733,181.95377 -9103.503,992.85377 -9103.503,992.85377 l -1.3725,2702.02873 88.5838,0 3033.9699,-5069.0287 -37.7637,0 z" />
    </clipPath>
    <clipPath
       clipPathUnits="userSpaceOnUse"
       id="clipPath7557">
      <path
         d="m -5636.6436,-1309.9561 103.9675,0 c 0,-672.93 526.41,-1156.4088 1087.2888,-1220.22 678.33,-77.3087 1056.8712,396.8087 1056.8712,396.8087 515.7887,577.6225 622.0812,1196.91259 622.0812,1196.91259 262.4388,1182.59875 213.2088,1993.49871 213.2088,1993.49871 l 1.3725,2702.0287 -88.5838,0 -3033.9699,-5069.0287 37.7637,0 z"
         style="fill:#e5287a;fill-opacity:1"
         id="path7559"
         inkscape:connector-curvature="0" />
    </clipPath>
  </defs>
  <sodipodi:namedview
     id="base"
     pagecolor="#ffffff"
     bordercolor="#666666"
     borderopacity="1.0"
     inkscape:pageopacity="0.0"
     inkscape:pageshadow="2"
     inkscape:zoom="0.13197815"
     inkscape:cx="-6463.6137"
     inkscape:cy="39.460342"
     inkscape:document-units="px"
     inkscape:current-layer="layer3"
     showgrid="false"
     inkscape:window-width="2560"
     inkscape:window-height="1417"
     inkscape:window-x="0"
     inkscape:window-y="23"
     inkscape:window-maximized="0" />
  <metadata
     id="metadata7">
    <rdf:RDF>
      <cc:Work
         rdf:about="">
        <dc:format>image/svg+xml</dc:format>
        <dc:type
           rdf:resource="http://purl.org/dc/dcmitype/StillImage" />
        <dc:title></dc:title>
      </cc:Work>
    </rdf:RDF>
  </metadata>
  <g
     inkscape:groupmode="layer"
     id="layer3"
     inkscape:label="Motiv 1"
     style="display:inline">
    <g
       id="g7572">
      <path
         inkscape:connector-curvature="0"
         id="path5337"
         style="fill:#e5287a;fill-opacity:1"
         d="m -6020.0855,-1374.1462 -103.9675,0 c 0,-672.93 -526.41,-1156.4088 -1087.2888,-1220.22 -678.33,-77.3087 -1056.8712,396.8087 -1056.8712,396.8087 -515.7887,577.6225 -622.0812,1196.9125 -622.0812,1196.9125 C -9152.733,181.95377 -9103.503,992.85377 -9103.503,992.85377 l -1.3725,2702.02873 88.5838,0 3033.9699,-5069.0287 -37.7637,0 z" />
      <g
         clip-path="url(#clipPath7514)"
         id="g7488">
        <text
           xml:space="preserve"
           style="font-style:normal;font-weight:normal;font-size:217.01348877px;line-height:125%;font-family:Sans;letter-spacing:0px;word-spacing:0px;fill:#ffffff;fill-opacity:1;stroke:none;stroke-width:1px;stroke-linecap:butt;stroke-linejoin:miter;stroke-opacity:1"
           x="-4722.0269"
           y="-7668.2803"
           id="text5393"
           sodipodi:linespacing="125%"
           transform="matrix(0.49772761,-0.8673334,0.8673334,0.49772761,0,0)"><tspan
             sodipodi:role="line"
             x="-4722.0269"
             y="-7668.2803"
             style="font-style:normal;font-variant:normal;font-weight:800;font-stretch:normal;font-size:287.34109497px;font-family:'Open Sans';-inkscape-font-specification:'Open Sans Ultra-Bold';fill:#ffffff"
             id="tspan7314"
             dx="1133.1349"
             dy="1.1673955e-07">OFFEN</tspan><tspan
             sodipodi:role="line"
             x="-4722.0269"
             y="-7309.104"
             style="font-style:normal;font-variant:normal;font-weight:800;font-stretch:normal;font-size:287.34109497px;font-family:'Open Sans';-inkscape-font-specification:'Open Sans Ultra-Bold';fill:#ffffff"
             dx="449.46906 -5.3577566 0 0 2.6788783 -5.3577566 -2.6788783 0 0 0 0 -21.431026"
             id="tspan7328">UNGEDROSSELT</tspan><tspan
             dx="0 0 0 5.3577566 0 -10.715512 -2.6788783 0 0 0 0 0 0 0 2.6788783 2.6788783"
             sodipodi:role="line"
             x="-4722.0269"
             y="-6949.9277"
             style="font-style:normal;font-variant:normal;font-weight:800;font-stretch:normal;font-size:287.34109497px;font-family:'Open Sans';-inkscape-font-specification:'Open Sans Ultra-Bold';fill:#ffffff"
             id="tspan7324">ÜBERWACHUNGSFREI</tspan><tspan
             sodipodi:role="line"
             x="-4722.0269"
             y="-6443.4321"
             style="font-style:normal;font-variant:normal;font-weight:800;font-stretch:normal;font-size:437.5px;font-family:'Open Sans';-inkscape-font-specification:'Open Sans Ultra-Bold';fill:#ffffff"
             id="tspan7332"
             dx="489.85825 0 2.6788783 0 0 0 -5.3577566 -2.6788783"
             dy="132.38239">FREIFUNK</tspan></text>
        <path
           style="color:#000000;font-style:normal;font-variant:normal;font-weight:normal;font-stretch:normal;font-size:medium;line-height:normal;font-family:sans-serif;text-indent:0;text-align:start;text-decoration:none;text-decoration-line:none;text-decoration-style:solid;text-decoration-color:#000000;letter-spacing:normal;word-spacing:normal;text-transform:none;direction:ltr;block-progression:tb;writing-mode:lr-tb;baseline-shift:baseline;text-anchor:start;white-space:normal;clip-rule:nonzero;display:inline;overflow:visible;visibility:visible;opacity:1;isolation:auto;mix-blend-mode:normal;color-interpolation:sRGB;color-interpolation-filters:linearRGB;solid-color:#000000;solid-opacity:1;fill:#ffffff;fill-opacity:1;fill-rule:nonzero;stroke:none;stroke-width:1.36224389;stroke-linecap:butt;stroke-linejoin:miter;stroke-miterlimit:4;stroke-dasharray:none;stroke-dashoffset:0;stroke-opacity:1;color-rendering:auto;image-rendering:auto;shape-rendering:auto;text-rendering:auto;enable-background:accumulate"
           clip-path="none"
           d="m -7799.9941,913.48817 -43.5079,34.4758 c 108.4776,139.07543 161.278,321.01943 131.7191,509.23893 -16.1824,103.0443 -55.2924,196.7219 -111.3052,276.6723 l 45.4971,32.0321 c 60.9107,-86.7483 103.442,-188.356 120.9813,-300.0396 32.0239,-203.9174 -25.5155,-401.4084 -143.3844,-552.37953 z m -967.295,-151.74893 c -158.3749,107.58023 -273.6019,277.87166 -305.6131,481.70756 -17.5373,111.6701 -8.2057,221.4103 23.1729,322.6434 l 53.1305,-16.5375 c -28.8015,-93.2627 -37.3093,-194.4081 -21.1283,-297.4409 29.5457,-188.1364 135.4934,-345.08053 281.2793,-444.21683 l -30.8413,-46.15573 z m 821.8046,267.02816 -43.5386,34.498 c 77.4151,99.8482 115.0025,230.209 93.817,365.1106 -11.6122,73.942 -39.6179,141.1697 -79.7271,198.5777 l 45.5268,32.0523 c 45.0186,-64.2054 76.4525,-139.3685 89.4226,-221.9576 23.6509,-150.5999 -18.6844,-296.5217 -105.5007,-408.281 z m -718.6597,-112.69063 c -116.7896,79.7748 -201.7307,205.63663 -225.3679,356.14903 -12.9692,82.5833 -6.0883,163.7578 17.0783,238.6675 l 53.163,-16.5479 c -20.5788,-66.9363 -26.6306,-139.5085 -15.0189,-213.4473 21.1716,-134.8127 96.8215,-247.318 201.0093,-318.63683 l -30.8638,-46.1845 z m 584.2903,219.15773 -43.5277,34.4922 c 48.7482,63.6376 72.2976,146.3913 58.8436,232.0607 -7.3929,47.076 -25.16,89.8791 -50.5952,126.4664 l 45.5216,32.0496 c 30.3419,-43.3831 51.528,-94.123 60.279,-149.8464 15.9198,-101.3721 -12.3723,-199.6777 -70.5213,-275.2225 z m -489.0373,-76.5987 c -78.3736,54.0929 -135.3296,138.9256 -151.2335,240.1952 -8.7502,55.7183 -4.1393,110.5046 11.4359,161.0951 l 53.1549,-16.5452 c -12.9897,-42.6205 -16.7763,-88.8059 -9.3836,-135.8799 13.4377,-85.5645 61.1099,-157.045 126.8834,-202.6857 l -30.8571,-46.1795 z m 229.3692,136.0765 c -1.3952,-0.2191 -2.7868,-0.3869 -4.1644,-0.6033 l -0.051,-0.01 c -1.3644,-0.2144 -2.7696,-0.066 -4.1224,-0.2788 l -0.05,-0.01 c -1.3538,-0.2125 -2.7816,-0.07 -4.1237,-0.2807 l -0.05,-0.01 c -1.34,-0.2106 -2.6471,-0.4152 -4.0313,-0.2644 l -0.051,-0.01 c -1.3489,-0.065 -2.684,-0.2751 -4.0539,-0.1221 l -0.05,-0.01 c -1.3363,-0.063 -2.6492,-0.2677 -4.0086,-0.1131 l -0.059,-0.01 c -1.3213,-0.062 -2.6403,-0.1225 -3.9847,0.034 l -0.051,-0.01 c -1.3224,0.01 -2.6148,-0.046 -3.9486,0.1117 l -0.059,-0.01 c -1.3035,-0.021 -2.5896,0 -3.9092,0.1568 l -0.06,-0.01 c -1.3112,0.1245 -2.6223,0.1367 -3.9315,0.2991 l -0.059,-0.01 c -2.6108,0.213 -5.188,0.5416 -7.7659,0.8709 l -0.052,-0.01 c -1.2924,0.2365 -2.5425,0.2571 -3.8342,0.5704 l -0.051,-0.01 c -2.5703,0.4393 -5.1323,0.8811 -7.6685,1.4358 l -0.052,-0.01 c -1.2613,0.2791 -2.4908,0.5964 -3.7466,0.9142 l -0.059,-0.01 c -1.2559,0.3164 -2.5129,0.6318 -3.7545,0.9518 l -0.059,-0.01 c -3.7637,1.0218 -7.4849,2.1976 -11.1744,3.4883 l -0.059,-0.01 c -9.8671,3.4956 -19.46,8.054 -28.8203,13.6346 l -0.051,-0.01 c -4.6772,2.7962 -9.2965,5.8784 -13.8472,9.1974 -21.6597,15.7814 -38.1108,34.7606 -49.3745,56.8867 -1.1827,2.3227 -2.3221,4.6494 -3.3993,7.0467 -5.3538,11.9961 -9.2442,24.8952 -11.7314,38.643 -0.2748,1.3644 -0.494,2.7594 -0.7131,4.1548 -2.022,12.8747 -2.5919,25.5496 -1.6592,37.9828 1.1981,15.987 4.8615,31.5908 10.9466,46.8382 4.082,10.0092 8.9517,19.4159 14.6171,28.2251 1.8945,2.9337 3.8864,5.7891 5.9515,8.6066 8.25,11.1951 17.874,21.3254 28.9296,30.3797 l -7.8186,49.7869 -162.9808,-15.1861 -18.2329,116.0999 159.7822,35.5547 -88.338,562.5017 c -129.8151,-38.5415 -240.8216,-118.0491 -323.4376,-223.8532 l 147.6477,28.7764 -85.0168,-125.0178 -236.3314,-45.7104 -45.1596,237.1381 85.0173,125.0155 27.2846,-146.692 c 99.0476,133.6826 235.1377,234.3153 395.1167,281.8073 16.5994,35.4022 47.712,61.4972 86.4051,67.5737 38.6484,6.0695 76.219,-9.1911 102.866,-37.7373 166.9182,4.0211 327.3207,-49.975 462.58,-146.8465 l -18.9476,147.6245 119.2455,-92.9373 29.7038,-239.5651 -238.9642,-28.9322 -119.2476,92.939 149.7878,17.9169 c -111.1444,75.5457 -241.3291,117.2398 -376.9365,113.9778 l 88.4056,-562.9338 162.9823,15.1883 18.2332,-116.1017 -159.7842,-35.553 7.8282,-49.8476 c 1.6542,-0.6566 3.2907,-1.3539 4.9115,-2.0531 l 0.06,0.01 c 1.6132,-0.6631 3.1981,-1.4417 4.7879,-2.1814 l 0.051,0.01 c 1.5882,-0.7403 3.1574,-1.5192 4.7138,-2.3015 l 0.06,0.01 c 1.5591,-0.7817 3.0645,-1.573 4.5873,-2.3973 l 0.06,0.01 c 1.5241,-0.8235 3.0317,-1.7244 4.5299,-2.6257 l 0.059,0.01 c 1.4953,-0.8649 2.9894,-1.8028 4.4516,-2.7097 l 0.051,0.01 c 1.4716,-0.9057 2.8855,-1.856 4.3247,-2.8034 1.4447,-0.9831 2.849,-1.9728 4.2603,-2.9979 2.8317,-2.0412 5.6032,-4.1616 8.3044,-6.3775 8.0919,-6.6413 15.6131,-14.1094 22.5654,-22.3859 18.6066,-22.4905 30.2179,-48.4628 34.8405,-77.8909 2.405,-15.3147 2.8427,-30.1768 1.2842,-44.5445 -0.2787,-2.6039 -0.671,-5.1542 -1.0741,-7.7475 -3.9389,-24.5133 -13.7811,-47.6215 -29.5606,-69.2792 -3.3145,-4.5501 -6.7659,-8.9204 -10.3624,-13.005 -0.903,-1.0222 -1.8401,-2.0123 -2.7593,-2.9998 -6.4205,-6.9591 -13.2618,-13.2583 -20.5409,-18.8121 -1.0424,-0.7875 -2.1295,-1.5808 -3.1918,-2.3341 -2.108,-1.5044 -4.2414,-3.0134 -6.4188,-4.4187 -3.279,-2.1286 -6.6678,-4.1264 -10.1078,-5.9863 -1.1382,-0.5824 -2.3293,-1.0991 -3.4632,-1.7923 -2.3288,-1.172 -4.7028,-2.2783 -7.0952,-3.3874 -1.1873,-0.5168 -2.4004,-0.997 -3.5962,-1.5529 -12.1657,-5.0638 -25.2281,-8.6929 -39.1533,-10.8797 l -0.031,-0.1984 z m -14.6949,93.0147 c 36.9504,5.8029 62.2001,40.4603 56.3973,77.4111 -5.8028,36.9505 -40.4608,62.202 -77.4115,56.3992 -36.9507,-5.8029 -62.1998,-40.4625 -56.3969,-77.4129 5.8029,-36.951 40.4603,-62.2004 77.4111,-56.3974 z"
           id="path4363"
           inkscape:connector-curvature="0" />
      </g>
    </g>
    <text
       xml:space="preserve"
       style="font-style:normal;font-weight:normal;font-size:40px;line-height:125%;font-family:Sans;letter-spacing:0px;word-spacing:0px;fill:#000000;fill-opacity:1;stroke:none;stroke-width:1px;stroke-linecap:butt;stroke-linejoin:miter;stroke-opacity:1"
       x="-8138.625"
       y="-1083.9707"
       id="text6305"
       sodipodi:linespacing="125%"><tspan
         sodipodi:role="line"
         id="tspan6307"
         x="-8138.625"
         y="-1083.9707" /></text>
    <flowRoot
       xml:space="preserve"
       id="flowRoot6323"
       style="font-style:normal;font-weight:normal;font-size:40px;line-height:125%;font-family:Sans;letter-spacing:0px;word-spacing:0px;fill:#000000;fill-opacity:1;stroke:none;stroke-width:1px;stroke-linecap:butt;stroke-linejoin:miter;stroke-opacity:1"
       transform="translate(-4037.6628,-213.28273)"><flowRegion
         id="flowRegion6325"><rect
           id="rect6327"
           width="23852.773"
           height="6927.6143"
           x="1170.0486"
           y="-5469.79" /></flowRegion><flowPara
         id="flowPara6329"></flowPara></flowRoot>    <text
       sodipodi:linespacing="125%"
       id="text7414"
       y="-1019.7806"
       x="3518.104"
       style="font-style:normal;font-weight:normal;font-size:40px;line-height:125%;font-family:Sans;letter-spacing:0px;word-spacing:0px;fill:#000000;fill-opacity:1;stroke:none;stroke-width:1px;stroke-linecap:butt;stroke-linejoin:miter;stroke-opacity:1"
       xml:space="preserve"
       transform="scale(-1,1)"><tspan
         y="-1019.7806"
         x="3518.104"
         id="tspan7416"
         sodipodi:role="line" /></text>
    <flowRoot
       style="font-style:normal;font-weight:normal;font-size:40px;line-height:125%;font-family:Sans;letter-spacing:0px;word-spacing:0px;fill:#000000;fill-opacity:1;stroke:none;stroke-width:1px;stroke-linecap:butt;stroke-linejoin:miter;stroke-opacity:1"
       id="flowRoot7418"
       xml:space="preserve"><flowRegion
         id="flowRegion7420"><rect
           y="-5618.8828"
           x="8789.1152"
           height="6927.6143"
           width="23852.773"
           id="rect7422"
           transform="scale(-1,1)" /></flowRegion><flowPara
         id="flowPara7424"></flowPara></flowRoot>    <g
       id="g7561"
       transform="translate(303.08047,-90.924142)">
      <path
         d="m -5636.6436,-1309.9561 103.9675,0 c 0,-672.93 526.41,-1156.4088 1087.2888,-1220.22 678.33,-77.3087 1056.8712,396.8087 1056.8712,396.8087 515.7887,577.6225 622.0812,1196.91259 622.0812,1196.91259 262.4388,1182.59875 213.2088,1993.49871 213.2088,1993.49871 l 1.3725,2702.0287 -88.5838,0 -3033.9699,-5069.0287 37.7637,0 z"
         style="fill:#e5287a;fill-opacity:1"
         id="path7398"
         inkscape:connector-curvature="0" />
      <g
         clip-path="url(#clipPath7557)"
         id="g7533">
        <text
           transform="matrix(0.50226895,0.86471145,-0.86471145,0.50226895,0,0)"
           sodipodi:linespacing="125%"
           id="text7402"
           y="2448.4683"
           x="-4270.375"
           style="font-style:normal;font-weight:normal;font-size:217.01348877px;line-height:125%;font-family:Sans;letter-spacing:0px;word-spacing:0px;fill:#ffffff;fill-opacity:1;stroke:none;stroke-width:1px;stroke-linecap:butt;stroke-linejoin:miter;stroke-opacity:1"
           xml:space="preserve"><tspan
             dx="1111.2717 0 -16.073269 10.715512"
             id="tspan7404"
             style="font-style:normal;font-variant:normal;font-weight:800;font-stretch:normal;font-size:287.34109497px;font-family:'Open Sans';-inkscape-font-specification:'Open Sans Ultra-Bold';fill:#ffffff"
             y="2448.4683"
             x="-4270.375"
             sodipodi:role="line">SATTE</tspan><tspan
             dx="241.32561 -5.3577566 16.073269 10.715513 0 0 0 0 0 0 0 0 5.3577566 5.3577566 -5.3577566 -5.3577566"
             id="tspan7406"
             style="font-style:normal;font-variant:normal;font-weight:800;font-stretch:normal;font-size:287.34109497px;font-family:'Open Sans';-inkscape-font-specification:'Open Sans Ultra-Bold';fill:#ffffff"
             y="2807.6445"
             x="-4270.375"
             sodipodi:role="line">1440 MIN. FREIHEIT</tspan><tspan
             dx="600.41296 -5.3577566 0 0 0 0 0 0 0 0 0 10.715513 5.3577566"
             id="tspan7408"
             style="font-style:normal;font-variant:normal;font-weight:800;font-stretch:normal;font-size:287.34109497px;font-family:'Open Sans';-inkscape-font-specification:'Open Sans Ultra-Bold';fill:#ffffff"
             y="3166.821"
             x="-4270.375"
             sodipodi:role="line">TÄGLICH INKL.</tspan><tspan
             dx="588.36627 0 5.3577566 0 -5.3577566 0 -5.3577566"
             dy="132.38239"
             id="tspan7410"
             style="font-style:normal;font-variant:normal;font-weight:800;font-stretch:normal;font-size:437.5px;font-family:'Open Sans';-inkscape-font-specification:'Open Sans Ultra-Bold';fill:#ffffff"
             y="3673.3162"
             x="-4270.375"
             sodipodi:role="line">FREIFUNK</tspan></text>
        <path
           inkscape:connector-curvature="0"
           id="path7412"
           d="m -3856.735,977.67834 43.5079,34.47576 c -108.4776,139.0754 -161.278,321.0194 -131.7191,509.2389 16.1824,103.0443 55.2924,196.7219 111.3052,276.6723 l -45.4971,32.0321 c -60.9107,-86.7483 -103.442,-188.356 -120.9813,-300.0396 -32.0239,-203.9174 25.5155,-401.4084 143.3844,-552.37946 z m 967.295,-151.74893 c 158.3749,107.58023 273.6019,277.87159 305.6131,481.70749 17.5373,111.6701 8.2057,221.4103 -23.1729,322.6434 l -53.1305,-16.5375 c 28.8015,-93.2627 37.3093,-194.4081 21.1283,-297.4409 -29.5457,-188.1364 -135.4934,-345.08046 -281.2793,-444.21676 l 30.8413,-46.15573 z m -821.8046,267.02809 43.5386,34.498 c -77.4151,99.8482 -115.0025,230.209 -93.817,365.1106 11.6122,73.942 39.6179,141.1697 79.7271,198.5777 l -45.5268,32.0523 c -45.0186,-64.2054 -76.4525,-139.3685 -89.4226,-221.9576 -23.6509,-150.5999 18.6844,-296.5217 105.5007,-408.281 z m 718.6597,-112.69056 c 116.7896,79.77476 201.7307,205.63656 225.3679,356.14896 12.9692,82.5833 6.0883,163.7578 -17.0783,238.6675 l -53.163,-16.5479 c 20.5788,-66.9363 26.6306,-139.5085 15.0189,-213.4473 -21.1716,-134.8127 -96.8215,-247.318 -201.0093,-318.6368 l 30.8638,-46.18446 z m -584.2903,219.15766 43.5277,34.4922 c -48.7482,63.6376 -72.2976,146.3913 -58.8436,232.0607 7.3929,47.076 25.16,89.8791 50.5952,126.4664 l -45.5216,32.0496 c -30.3419,-43.3831 -51.528,-94.123 -60.279,-149.8464 -15.9198,-101.3721 12.3723,-199.6777 70.5213,-275.2225 z m 489.0373,-76.5987 c 78.3736,54.0929 135.3296,138.9256 151.2335,240.1952 8.7502,55.7183 4.1393,110.5046 -11.4359,161.0951 l -53.1549,-16.5452 c 12.9897,-42.6205 16.7763,-88.8059 9.3836,-135.8799 -13.4377,-85.5645 -61.1099,-157.045 -126.8834,-202.6857 l 30.8571,-46.1795 z m -229.3692,136.0765 c 1.3952,-0.2191 2.7868,-0.3869 4.1644,-0.6033 l 0.051,-0.01 c 1.3644,-0.2144 2.7696,-0.066 4.1224,-0.2788 l 0.05,-0.01 c 1.3538,-0.2125 2.7816,-0.07 4.1237,-0.2807 l 0.05,-0.01 c 1.34,-0.2106 2.6471,-0.4152 4.0313,-0.2644 l 0.051,-0.01 c 1.3489,-0.065 2.684,-0.2751 4.0539,-0.1221 l 0.05,-0.01 c 1.3363,-0.063 2.6492,-0.2677 4.0086,-0.1131 l 0.059,-0.01 c 1.3213,-0.062 2.6403,-0.1225 3.9847,0.034 l 0.051,-0.01 c 1.3224,0.01 2.6148,-0.046 3.9486,0.1117 l 0.059,-0.01 c 1.3035,-0.021 2.5896,0 3.9092,0.1568 l 0.06,-0.01 c 1.3112,0.1245 2.6223,0.1367 3.9315,0.2991 l 0.059,-0.01 c 2.6108,0.213 5.188,0.5416 7.7659,0.8709 l 0.052,-0.01 c 1.2924,0.2365 2.5425,0.2571 3.8342,0.5704 l 0.051,-0.01 c 2.5703,0.4393 5.1323,0.8811 7.6685,1.4358 l 0.052,-0.01 c 1.2613,0.2791 2.4908,0.5964 3.7466,0.9142 l 0.059,-0.01 c 1.2559,0.3164 2.5129,0.6318 3.7545,0.9518 l 0.059,-0.01 c 3.7637,1.0218 7.4849,2.1976 11.1744,3.4883 l 0.059,-0.01 c 9.8671,3.4956 19.46,8.054 28.8203,13.6346 l 0.051,-0.01 c 4.6772,2.7962 9.2965,5.8784 13.8472,9.1974 21.6597,15.7814 38.1108,34.7606 49.3745,56.8867 1.1827,2.3227 2.3221,4.6494 3.3993,7.0467 5.3538,11.9961 9.2442,24.8952 11.7314,38.643 0.2748,1.3644 0.494,2.7594 0.7131,4.1548 2.022,12.8747 2.5919,25.5496 1.6592,37.9828 -1.1981,15.987 -4.8615,31.5908 -10.9466,46.8382 -4.082,10.0092 -8.9517,19.4159 -14.6171,28.2251 -1.8945,2.9337 -3.8864,5.7891 -5.9515,8.6066 -8.25,11.1951 -17.874,21.3254 -28.9296,30.3797 l 7.8186,49.7869 162.9808,-15.1861 18.2329,116.0999 -159.7822,35.5547 88.338,562.5017 c 129.8151,-38.5415 240.8216,-118.0491 323.4376,-223.8532 l -147.6477,28.7764 85.0168,-125.0178 236.3314,-45.7104 45.1596,237.1381 -85.0173,125.0155 -27.2846,-146.692 c -99.0476,133.6826 -235.1377,234.3153 -395.1167,281.8073 -16.5994,35.4022 -47.712,61.4972 -86.4051,67.5737 -38.6484,6.0695 -76.219,-9.1911 -102.866,-37.7373 -166.9182,4.0211 -327.3207,-49.975 -462.58,-146.8465 l 18.9476,147.6245 -119.2455,-92.9373 -29.7038,-239.5651 238.9642,-28.9322 119.2476,92.939 -149.7878,17.9169 c 111.1444,75.5457 241.3291,117.2398 376.9365,113.9778 l -88.4056,-562.9338 -162.9823,15.1883 -18.2332,-116.1017 159.7842,-35.553 -7.8282,-49.8476 c -1.6542,-0.6566 -3.2907,-1.3539 -4.9115,-2.0531 l -0.06,0.01 c -1.6132,-0.6631 -3.1981,-1.4417 -4.7879,-2.1814 l -0.051,0.01 c -1.5882,-0.7403 -3.1574,-1.5192 -4.7138,-2.3015 l -0.06,0.01 c -1.5591,-0.7817 -3.0645,-1.573 -4.5873,-2.3973 l -0.06,0.01 c -1.5241,-0.8235 -3.0317,-1.7244 -4.5299,-2.6257 l -0.059,0.01 c -1.4953,-0.8649 -2.9894,-1.8028 -4.4516,-2.7097 l -0.051,0.01 c -1.4716,-0.9057 -2.8855,-1.856 -4.3247,-2.8034 -1.4447,-0.9831 -2.849,-1.9728 -4.2603,-2.9979 -2.8317,-2.0412 -5.6032,-4.1616 -8.3044,-6.3775 -8.0919,-6.6413 -15.6131,-14.1094 -22.5654,-22.3859 -18.6066,-22.4905 -30.2179,-48.4628 -34.8405,-77.8909 -2.405,-15.3147 -2.8427,-30.1768 -1.2842,-44.5445 0.2787,-2.6039 0.671,-5.1542 1.0741,-7.7475 3.9389,-24.5133 13.7811,-47.6215 29.5606,-69.2792 3.3145,-4.5501 6.7659,-8.9204 10.3624,-13.005 0.903,-1.0222 1.8401,-2.0123 2.7593,-2.9998 6.4205,-6.9591 13.2618,-13.2583 20.5409,-18.8121 1.0424,-0.7875 2.1295,-1.5808 3.1918,-2.3341 2.108,-1.5044 4.2414,-3.0134 6.4188,-4.4187 3.279,-2.1286 6.6678,-4.1264 10.1078,-5.9863 1.1382,-0.5824 2.3293,-1.0991 3.4632,-1.7923 2.3288,-1.172 4.7028,-2.2783 7.0952,-3.3874 1.1873,-0.5168 2.4004,-0.997 3.5962,-1.5529 12.1657,-5.0638 25.2281,-8.6929 39.1533,-10.8797 l 0.031,-0.1984 z m 14.6949,93.0147 c -36.9504,5.8029 -62.2001,40.4603 -56.3973,77.4111 5.8028,36.9505 40.4608,62.202 77.4115,56.3992 36.9507,-5.8029 62.1998,-40.4625 56.3969,-77.4129 -5.8029,-36.951 -40.4603,-62.2004 -77.4111,-56.3974 z"
           clip-path="none"
           style="color:#000000;font-style:normal;font-variant:normal;font-weight:normal;font-stretch:normal;font-size:medium;line-height:normal;font-family:sans-serif;text-indent:0;text-align:start;text-decoration:none;text-decoration-line:none;text-decoration-style:solid;text-decoration-color:#000000;letter-spacing:normal;word-spacing:normal;text-transform:none;direction:ltr;block-progression:tb;writing-mode:lr-tb;baseline-shift:baseline;text-anchor:start;white-space:normal;clip-rule:nonzero;display:inline;overflow:visible;visibility:visible;opacity:1;isolation:auto;mix-blend-mode:normal;color-interpolation:sRGB;color-interpolation-filters:linearRGB;solid-color:#000000;solid-opacity:1;fill:#ffffff;fill-opacity:1;fill-rule:nonzero;stroke:none;stroke-width:1.36224389;stroke-linecap:butt;stroke-linejoin:miter;stroke-miterlimit:4;stroke-dasharray:none;stroke-dashoffset:0;stroke-opacity:1;color-rendering:auto;image-rendering:auto;shape-rendering:auto;text-rendering:auto;enable-background:accumulate" />
      </g>
    </g>
  </g>
  <g
     inkscape:label="Vorlage"
     inkscape:groupmode="layer"
     id="layer1" />
  <g
     inkscape:groupmode="layer"
     id="layer2"
     inkscape:label="Motiv" />
</svg>
