<?xml version="1.0" encoding="UTF-8" standalone="no"?>
<!-- Created with Inkscape (http://www.inkscape.org/) -->

<svg
   xmlns:dc="http://purl.org/dc/elements/1.1/"
   xmlns:cc="http://creativecommons.org/ns#"
   xmlns:rdf="http://www.w3.org/1999/02/22-rdf-syntax-ns#"
   xmlns:svg="http://www.w3.org/2000/svg"
   xmlns="http://www.w3.org/2000/svg"
   xmlns:sodipodi="http://sodipodi.sourceforge.net/DTD/sodipodi-0.dtd"
   xmlns:inkscape="http://www.inkscape.org/namespaces/inkscape"
   width="881.90082mm"
   height="1777.3708mm"
   viewBox="0 0 3124.8454 6297.7707"
   id="svg7601"
   version="1.1"
   inkscape:version="0.91 r13725"
   sodipodi:docname="beachflag1.svg">
  <defs
     id="defs7603">
    <clipPath
       clipPathUnits="userSpaceOnUse"
       id="clipPath7514">
      <path
         inkscape:connector-curvature="0"
         id="path7516"
         style="fill:#e5287a;fill-opacity:1"
         d="m -6020.0855,-1374.1462 -103.9675,0 c 0,-672.93 -526.41,-1156.4088 -1087.2888,-1220.22 -678.33,-77.3087 -1056.8712,396.8087 -1056.8712,396.8087 -515.7887,577.6225 -622.0812,1196.9125 -622.0812,1196.9125 C -9152.733,181.95377 -9103.503,992.85377 -9103.503,992.85377 l -1.3725,2702.02873 88.5838,0 3033.9699,-5069.0287 -37.7637,0 z" />
    </clipPath>
  </defs>
  <sodipodi:namedview
     id="base"
     pagecolor="#ffffff"
     bordercolor="#666666"
     borderopacity="1.0"
     inkscape:pageopacity="0.0"
     inkscape:pageshadow="2"
     inkscape:zoom="0.18911454"
     inkscape:cx="1562.4227"
     inkscape:cy="3148.8854"
     inkscape:document-units="px"
     inkscape:current-layer="g7572"
     showgrid="false"
     fit-margin-top="0"
     fit-margin-left="0"
     fit-margin-right="0"
     fit-margin-bottom="0"
     inkscape:window-width="2560"
     inkscape:window-height="1397"
     inkscape:window-x="0"
     inkscape:window-y="23"
     inkscape:window-maximized="0" />
  <metadata
     id="metadata7606">
    <rdf:RDF>
      <cc:Work
         rdf:about="">
        <dc:format>image/svg+xml</dc:format>
        <dc:type
           rdf:resource="http://purl.org/dc/dcmitype/StillImage" />
        <dc:title></dc:title>
      </cc:Work>
    </rdf:RDF>
  </metadata>
  <g
     inkscape:label="Layer 1"
     inkscape:groupmode="layer"
     id="layer1"
     transform="translate(2302.4227,2933.666)">
    <g
       transform="translate(6804.7445,-330.7778)"
       style="display:inline"
       id="g7572">
      <path
         inkscape:connector-curvature="0"
         id="path5337"
         style="fill:#e5287a;fill-opacity:1"
         d="m -6020.0855,-1374.1462 -103.9675,0 c 0,-672.93 -526.41,-1156.4088 -1087.2888,-1220.22 -678.33,-77.3087 -1056.8712,396.8087 -1056.8712,396.8087 -515.7887,577.6225 -622.0812,1196.9125 -622.0812,1196.9125 C -9152.733,181.95377 -9103.503,992.85377 -9103.503,992.85377 l -1.3725,2702.02873 88.5838,0 3033.9699,-5069.0287 -37.7637,0 z" />
      <g
         clip-path="url(#clipPath7514)"
         id="g7488">
        <g
           transform="matrix(0.49772761,-0.8673334,0.8673334,0.49772761,0,0)"
           style="font-style:normal;font-weight:normal;font-size:217.01348877px;line-height:125%;font-family:Sans;letter-spacing:0px;word-spacing:0px;fill:#ffffff;fill-opacity:1;stroke:none;stroke-width:1px;stroke-linecap:butt;stroke-linejoin:miter;stroke-opacity:1"
           id="text5393">
          <path
             d="m -3374.7892,-7771.1226 q 0,51.7719 -25.3949,78.7102 -25.3949,26.9382 -74.3607,26.9382 -48.2643,0 -74.0801,-27.0785 -25.6755,-27.0786 -25.6755,-78.8505 0,-51.2107 25.5352,-78.1489 25.6755,-27.0785 74.501,-27.0785 48.9658,0 74.2204,26.7979 25.2546,26.7979 25.2546,78.7101 z m -141.1451,0 q 0,59.4886 41.3895,59.4886 21.0455,0 31.1473,-14.4512 10.2422,-14.4513 10.2422,-45.0374 0,-30.7264 -10.3825,-45.3179 -10.2421,-14.7319 -30.7264,-14.7319 -41.6701,0 -41.6701,60.0498 z"
             style="font-style:normal;font-variant:normal;font-weight:800;font-stretch:normal;font-size:287.34109497px;font-family:'Open Sans';-inkscape-font-specification:'Open Sans Ultra-Bold';fill:#ffffff"
             id="path8878" />
          <path
             d="m -3283.1711,-7668.2803 -54.578,0 0,-205.1234 121.222,0 0,44.4762 -66.644,0 0,39.1446 61.4528,0 0,44.4761 -61.4528,0 0,77.0265 z"
             style="font-style:normal;font-variant:normal;font-weight:800;font-stretch:normal;font-size:287.34109497px;font-family:'Open Sans';-inkscape-font-specification:'Open Sans Ultra-Bold';fill:#ffffff"
             id="path8880" />
          <path
             d="m -3128.2763,-7668.2803 -54.578,0 0,-205.1234 121.222,0 0,44.4762 -66.644,0 0,39.1446 61.4528,0 0,44.4761 -61.4528,0 0,77.0265 z"
             style="font-style:normal;font-variant:normal;font-weight:800;font-stretch:normal;font-size:287.34109497px;font-family:'Open Sans';-inkscape-font-specification:'Open Sans Ultra-Bold';fill:#ffffff"
             id="path8882" />
          <path
             d="m -2906.1763,-7668.2803 -121.7832,0 0,-205.1234 121.7832,0 0,44.4762 -66.3634,0 0,32.2697 61.4528,0 0,44.4762 -61.4528,0 0,38.7237 66.3634,0 0,45.1776 z"
             style="font-style:normal;font-variant:normal;font-weight:800;font-stretch:normal;font-size:287.34109497px;font-family:'Open Sans';-inkscape-font-specification:'Open Sans Ultra-Bold';fill:#ffffff"
             id="path8884" />
          <path
             d="m -2674.9564,-7668.2803 -72.6771,0 -74.922,-144.5123 -1.2627,0 q 2.6657,34.0937 2.6657,52.0525 l 0,92.4598 -49.1061,0 0,-205.1234 72.3965,0 74.6413,142.5482 0.8418,0 q -1.9642,-31.0071 -1.9642,-49.8077 l 0,-92.7405 49.3868,0 0,205.1234 z"
             style="font-style:normal;font-variant:normal;font-weight:800;font-stretch:normal;font-size:287.34109497px;font-family:'Open Sans';-inkscape-font-specification:'Open Sans Ultra-Bold';fill:#ffffff"
             id="path8886" />
          <path
             d="m -4075.9929,-7514.2273 0,123.4669 q 0,40.267 -22.8695,62.4349 -22.7291,22.0277 -65.6619,22.0277 -41.9507,0 -64.5395,-21.4664 -22.4485,-21.4664 -22.4485,-61.7335 l 0,-124.7296 55.7004,0 0,120.3802 q 0,21.747 8.1376,31.5683 8.1376,9.8212 23.9918,9.8212 16.9767,0 24.5531,-9.6809 7.7167,-9.8213 7.7167,-31.9892 l 0,-120.0996 55.4198,0 z"
             style="font-style:normal;font-variant:normal;font-weight:800;font-stretch:normal;font-size:287.34109497px;font-family:'Open Sans';-inkscape-font-specification:'Open Sans Ultra-Bold';fill:#ffffff"
             id="path8888" />
          <path
             d="m -3842.6948,-7309.1039 -72.6771,0 -74.9219,-144.5124 -1.2628,0 q 2.6658,34.0937 2.6658,52.0525 l 0,92.4599 -49.1061,0 0,-205.1234 72.3964,0 74.6414,142.5481 0.8418,0 q -1.9642,-31.007 -1.9642,-49.8076 l 0,-92.7405 49.3867,0 0,205.1234 z"
             style="font-style:normal;font-variant:normal;font-weight:800;font-stretch:normal;font-size:287.34109497px;font-family:'Open Sans';-inkscape-font-specification:'Open Sans Ultra-Bold';fill:#ffffff"
             id="path8890" />
          <path
             d="m -3716.001,-7429.2035 88.5314,0 0,110.559 q -36.058,12.3467 -79.2714,12.3467 -47.4225,0 -73.3786,-27.4995 -25.8158,-27.4994 -25.8158,-78.4295 0,-49.6674 28.3413,-77.3071 28.3412,-27.6398 79.4116,-27.6398 19.3619,0 36.4789,3.6479 17.2573,3.6479 30.0249,9.26 l -17.5379,43.4941 q -22.1679,-10.9437 -48.6853,-10.9437 -24.2724,0 -37.6012,15.8543 -13.1885,15.7139 -13.1885,45.0373 0,28.7622 11.9257,43.9149 12.0661,15.0125 34.6549,15.0125 12.3467,0 22.7292,-2.3852 l 0,-32.1294 -36.6192,0 0,-42.7925 z"
             style="font-style:normal;font-variant:normal;font-weight:800;font-stretch:normal;font-size:287.34109497px;font-family:'Open Sans';-inkscape-font-specification:'Open Sans Ultra-Bold';fill:#ffffff"
             id="path8892" />
          <path
             d="m -3463.876,-7309.1039 -121.7832,0 0,-205.1234 121.7832,0 0,44.4762 -66.3634,0 0,32.2697 61.4528,0 0,44.4761 -61.4528,0 0,38.7237 66.3634,0 0,45.1777 z"
             style="font-style:normal;font-variant:normal;font-weight:800;font-stretch:normal;font-size:287.34109497px;font-family:'Open Sans';-inkscape-font-specification:'Open Sans Ultra-Bold';fill:#ffffff"
             id="path8894" />
          <path
             d="m -3251.1631,-7416.015 q 0,51.351 -28.3413,79.131 -28.2009,27.7801 -79.4116,27.7801 l -66.3635,0 0,-205.1234 70.9935,0 q 49.3867,0 76.1847,25.2546 26.9382,25.2546 26.9382,72.9577 z m -57.5244,1.9643 q 0,-28.201 -11.2242,-41.8104 -11.084,-13.6094 -33.8131,-13.6094 l -16.1349,0 0,114.9083 12.3467,0 q 25.2546,0 37.0401,-14.5915 11.7854,-14.7318 11.7854,-44.897 z"
             style="font-style:normal;font-variant:normal;font-weight:800;font-stretch:normal;font-size:287.34109497px;font-family:'Open Sans';-inkscape-font-specification:'Open Sans Ultra-Bold';fill:#ffffff"
             id="path8896" />
          <path
             d="m -3164.2014,-7383.7452 0,74.6413 -55.4197,0 0,-205.1234 67.2052,0 q 83.6208,0 83.6208,60.611 0,35.6371 -34.7952,55.1392 l 59.7692,89.3732 -62.8559,0 -43.494,-74.6413 -14.0304,0 z m 0,-41.6701 10.3825,0 q 29.0428,0 29.0428,-25.6755 0,-21.1858 -28.4816,-21.1858 l -10.9437,0 0,46.8613 z"
             style="font-style:normal;font-variant:normal;font-weight:800;font-stretch:normal;font-size:287.34109497px;font-family:'Open Sans';-inkscape-font-specification:'Open Sans Ultra-Bold';fill:#ffffff"
             id="path8898" />
          <path
             d="m -2835.6241,-7411.9462 q 0,51.7719 -25.3949,78.7101 -25.3949,26.9383 -74.3608,26.9383 -48.2643,0 -74.0801,-27.0786 -25.6755,-27.0785 -25.6755,-78.8504 0,-51.2107 25.5352,-78.1489 25.6755,-27.0786 74.501,-27.0786 48.9659,0 74.2205,26.798 25.2546,26.7979 25.2546,78.7101 z m -141.1451,0 q 0,59.4886 41.3894,59.4886 21.0455,0 31.1474,-14.4513 10.2421,-14.4512 10.2421,-45.0373 0,-30.7264 -10.3824,-45.318 -10.2422,-14.7318 -30.7265,-14.7318 -41.67,0 -41.67,60.0498 z"
             style="font-style:normal;font-variant:normal;font-weight:800;font-stretch:normal;font-size:287.34109497px;font-family:'Open Sans';-inkscape-font-specification:'Open Sans Ultra-Bold';fill:#ffffff"
             id="path8900" />
          <path
             d="m -2664.4542,-7371.3986 q 0,19.0813 -9.681,33.9534 -9.6809,14.7319 -27.9203,23.0098 -18.2394,8.1376 -42.7925,8.1376 -20.4843,0 -34.3743,-2.8061 -13.89,-2.9464 -28.9025,-10.1018 l 0,-49.3868 q 15.8543,8.1376 32.9713,12.7676 17.117,4.4897 31.4279,4.4897 12.3467,0 18.0991,-4.2091 5.7525,-4.3494 5.7525,-11.0839 0,-4.2091 -2.3852,-7.2958 -2.2448,-3.227 -7.4361,-6.454 -5.0509,-3.2269 -27.2188,-13.1885 -20.0634,-9.1197 -30.1652,-17.6782 -9.9615,-8.5585 -14.8721,-19.6424 -4.7703,-11.084 -4.7703,-26.2368 0,-28.3412 20.6245,-44.1955 20.6246,-15.8543 56.6826,-15.8543 31.8488,0 64.9604,14.7319 l -16.9767,42.7925 q -28.7622,-13.1885 -49.6674,-13.1885 -10.8033,0 -15.714,3.7882 -4.9106,3.7882 -4.9106,9.4003 0,6.033 6.1734,10.8033 6.3136,4.7704 33.9534,17.3976 26.5173,11.9258 36.7594,25.6755 10.3825,13.6095 10.3825,34.3743 z"
             style="font-style:normal;font-variant:normal;font-weight:800;font-stretch:normal;font-size:287.34109497px;font-family:'Open Sans';-inkscape-font-specification:'Open Sans Ultra-Bold';fill:#ffffff"
             id="path8902" />
          <path
             d="m -2498.3352,-7371.3986 q 0,19.0813 -9.6809,33.9534 -9.681,14.7319 -27.9204,23.0098 -18.2394,8.1376 -42.7925,8.1376 -20.4843,0 -34.3743,-2.8061 -13.89,-2.9464 -28.9025,-10.1018 l 0,-49.3868 q 15.8543,8.1376 32.9713,12.7676 17.117,4.4897 31.4279,4.4897 12.3467,0 18.0992,-4.2091 5.7524,-4.3494 5.7524,-11.0839 0,-4.2091 -2.3852,-7.2958 -2.2448,-3.227 -7.436,-6.454 -5.051,-3.2269 -27.2189,-13.1885 -20.0633,-9.1197 -30.1652,-17.6782 -9.9615,-8.5585 -14.8721,-19.6424 -4.7703,-11.084 -4.7703,-26.2368 0,-28.3412 20.6246,-44.1955 20.6245,-15.8543 56.6825,-15.8543 31.8488,0 64.9604,14.7319 l -16.9767,42.7925 q -28.7622,-13.1885 -49.6674,-13.1885 -10.8033,0 -15.7139,3.7882 -4.9106,3.7882 -4.9106,9.4003 0,6.033 6.1733,10.8033 6.3136,4.7704 33.9534,17.3976 26.5173,11.9258 36.7594,25.6755 10.3825,13.6095 10.3825,34.3743 z"
             style="font-style:normal;font-variant:normal;font-weight:800;font-stretch:normal;font-size:287.34109497px;font-family:'Open Sans';-inkscape-font-specification:'Open Sans Ultra-Bold';fill:#ffffff"
             id="path8904" />
          <path
             d="m -2344.5628,-7309.1039 -121.7832,0 0,-205.1234 121.7832,0 0,44.4762 -66.3634,0 0,32.2697 61.4528,0 0,44.4761 -61.4528,0 0,38.7237 66.3634,0 0,45.1777 z"
             style="font-style:normal;font-variant:normal;font-weight:800;font-stretch:normal;font-size:287.34109497px;font-family:'Open Sans';-inkscape-font-specification:'Open Sans Ultra-Bold';fill:#ffffff"
             id="path8906" />
          <path
             d="m -2308.6451,-7309.1039 0,-205.1234 55.4198,0 0,160.3667 78.9908,0 0,44.7567 -134.4106,0 z"
             style="font-style:normal;font-variant:normal;font-weight:800;font-stretch:normal;font-size:287.34109497px;font-family:'Open Sans';-inkscape-font-specification:'Open Sans Ultra-Bold';fill:#ffffff"
             id="path8908" />
          <path
             d="m -2072.3389,-7309.1039 -55.4198,0 0,-159.8054 -50.0883,0 0,-45.318 155.456,0 0,45.318 -49.9479,0 0,159.8054 z"
             style="font-style:normal;font-variant:normal;font-weight:800;font-stretch:normal;font-size:287.34109497px;font-family:'Open Sans';-inkscape-font-specification:'Open Sans Ultra-Bold';fill:#ffffff"
             id="path8910" />
          <path
             d="m -4525.462,-7155.0509 0,123.4669 q 0,40.267 -22.8694,62.4349 -22.7291,22.0276 -65.6619,22.0276 -41.9507,0 -64.5395,-21.4664 -22.4486,-21.4664 -22.4486,-61.7334 l 0,-124.7296 55.7004,0 0,120.3802 q 0,21.747 8.1376,31.5682 8.1376,9.8213 23.9919,9.8213 16.9767,0 24.5531,-9.681 7.7166,-9.8212 7.7166,-31.9891 l 0,-120.0996 55.4198,0 z m -145.7751,-40.5477 q 0,-10.5227 6.454,-16.2751 6.4539,-5.8928 17.3976,-5.8928 11.0839,0 17.5379,6.0331 6.5942,5.8927 6.5942,16.1348 0,9.9616 -6.5942,15.9946 -6.454,5.8927 -17.5379,5.8927 -10.9437,0 -17.3976,-5.7524 -6.454,-5.7524 -6.454,-16.1349 z m 67.2053,0 q 0,-10.5227 6.4539,-16.2751 6.454,-5.8928 17.6783,-5.8928 11.2242,0 17.6782,6.0331 6.5942,6.033 6.5942,16.1348 0,9.9616 -6.5942,15.9946 -6.454,5.8927 -17.6782,5.8927 -11.3646,0 -17.8186,-5.7524 -6.3136,-5.8927 -6.3136,-16.1349 z"
             style="font-style:normal;font-variant:normal;font-weight:800;font-stretch:normal;font-size:287.34109497px;font-family:'Open Sans';-inkscape-font-specification:'Open Sans Ultra-Bold';fill:#ffffff"
             id="path8912" />
          <path
             d="m -4482.1083,-7155.0509 71.5547,0 q 41.8104,0 62.014,12.487 20.344,12.3467 20.344,38.5834 0,17.2573 -8.8391,29.4637 -8.8391,12.2063 -23.2903,15.7139 l 0,1.4031 q 19.0812,5.0509 27.6397,16.8364 8.5585,11.7854 8.5585,30.5861 0,27.9203 -21.0455,44.0552 -20.9052,15.9946 -57.1034,15.9946 l -79.8326,0 0,-205.1234 z m 55.4198,78.7101 16.6961,0 q 11.9258,0 18.3797,-4.9106 6.5943,-4.9106 6.5943,-14.5915 0,-17.2573 -26.0964,-17.2573 l -15.5737,0 0,36.7594 z m 0,40.5477 0,43.0731 19.5022,0 q 25.9561,0 25.9561,-21.8873 0,-10.2422 -7.0152,-15.714 -6.8748,-5.4718 -20.0633,-5.4718 l -18.3798,0 z"
             style="font-style:normal;font-variant:normal;font-weight:800;font-stretch:normal;font-size:287.34109497px;font-family:'Open Sans';-inkscape-font-specification:'Open Sans Ultra-Bold';fill:#ffffff"
             id="path8914" />
          <path
             d="m -4166.7065,-6949.9275 -121.7832,0 0,-205.1234 121.7832,0 0,44.4761 -66.3634,0 0,32.2698 61.4528,0 0,44.4761 -61.4528,0 0,38.7237 66.3634,0 0,45.1777 z"
             style="font-style:normal;font-variant:normal;font-weight:800;font-stretch:normal;font-size:287.34109497px;font-family:'Open Sans';-inkscape-font-specification:'Open Sans Ultra-Bold';fill:#ffffff"
             id="path8916" />
          <path
             d="m -4070.0114,-7024.5689 0,74.6414 -55.4197,0 0,-205.1234 67.2052,0 q 83.6208,0 83.6208,60.611 0,35.637 -34.7952,55.1392 l 59.7692,89.3732 -62.8559,0 -43.494,-74.6414 -14.0304,0 z m 0,-41.67 10.3825,0 q 29.0428,0 29.0428,-25.6755 0,-21.1858 -28.4816,-21.1858 l -10.9437,0 0,46.8613 z"
             style="font-style:normal;font-variant:normal;font-weight:800;font-stretch:normal;font-size:287.34109497px;font-family:'Open Sans';-inkscape-font-specification:'Open Sans Ultra-Bold';fill:#ffffff"
             id="path8918" />
          <path
             d="m -3709.1513,-6949.9275 -65.5216,0 -19.6425,-89.3732 q -1.403,-5.6121 -4.4897,-22.3082 -2.9464,-16.6961 -4.3494,-27.9204 -1.1224,9.1197 -3.6479,22.7291 -2.5254,13.4692 -5.0509,24.8337 -2.3852,11.3646 -20.344,92.039 l -65.5216,0 -50.7898,-205.1234 53.4556,0 22.3082,102.8423 q 7.5763,34.0937 10.3824,54.2973 1.824,-14.3109 6.454,-38.864 4.7703,-24.553 8.8391,-40.6879 l 18.0991,-77.5877 51.351,0 17.5379,77.5877 q 4.4897,18.6603 9.1197,43.0731 4.63,24.4128 6.1734,36.4788 1.8239,-15.5736 9.9615,-54.0167 l 22.7291,-103.1229 53.4556,0 -50.5092,205.1234 z"
             style="font-style:normal;font-variant:normal;font-weight:800;font-stretch:normal;font-size:287.34109497px;font-family:'Open Sans';-inkscape-font-specification:'Open Sans Ultra-Bold';fill:#ffffff"
             id="path8920" />
          <path
             d="m -3516.9882,-6949.9275 -10.1019,-38.4431 -66.644,0 -10.3825,38.4431 -60.8916,0 66.9247,-205.9652 73.9398,0 67.7665,205.9652 -60.611,0 z m -21.6067,-83.9014 -8.8391,-33.6728 q -3.0867,-11.2242 -7.5764,-29.0428 -4.3494,-17.8185 -5.7524,-25.5351 -1.2628,7.1554 -5.051,23.5709 -3.6479,16.4155 -16.4154,64.6798 l 43.6343,0 z"
             style="font-style:normal;font-variant:normal;font-weight:800;font-stretch:normal;font-size:287.34109497px;font-family:'Open Sans';-inkscape-font-specification:'Open Sans Ultra-Bold';fill:#ffffff"
             id="path8922" />
          <path
             d="m -3345.4105,-7112.539 q -19.7828,0 -30.8668,16.2752 -11.0839,16.1348 -11.0839,44.6164 0,59.208 45.0373,59.208 13.6094,0 26.377,-3.7882 12.7676,-3.7882 25.6755,-9.1197 l 0,46.8613 q -25.6755,11.3645 -58.0855,11.3645 -46.4404,0 -71.2741,-26.9382 -24.6934,-26.9382 -24.6934,-77.8683 0,-31.8489 11.9258,-55.981 12.0661,-24.1322 34.5146,-37.0401 22.5889,-13.0482 53.0347,-13.0482 33.2518,0 63.5573,14.4513 l -16.9767,43.6343 q -11.3645,-5.3316 -22.7291,-8.9794 -11.3645,-3.6479 -24.4127,-3.6479 z"
             style="font-style:normal;font-variant:normal;font-weight:800;font-stretch:normal;font-size:287.34109497px;font-family:'Open Sans';-inkscape-font-specification:'Open Sans Ultra-Bold';fill:#ffffff"
             id="path8924" />
          <path
             d="m -3074.6252,-6949.9275 -55.7004,0 0,-83.6208 -64.3992,0 0,83.6208 -55.7004,0 0,-205.1234 55.7004,0 0,76.0444 64.3992,0 0,-76.0444 55.7004,0 0,205.1234 z"
             style="font-style:normal;font-variant:normal;font-weight:800;font-stretch:normal;font-size:287.34109497px;font-family:'Open Sans';-inkscape-font-specification:'Open Sans Ultra-Bold';fill:#ffffff"
             id="path8926" />
          <path
             d="m -2856.0327,-7155.0509 0,123.4669 q 0,40.267 -22.8694,62.4349 -22.7291,22.0276 -65.6619,22.0276 -41.9507,0 -64.5395,-21.4664 -22.4485,-21.4664 -22.4485,-61.7334 l 0,-124.7296 55.7004,0 0,120.3802 q 0,21.747 8.1375,31.5682 8.1376,9.8213 23.9919,9.8213 16.9767,0 24.5531,-9.681 7.7167,-9.8212 7.7167,-31.9891 l 0,-120.0996 55.4197,0 z"
             style="font-style:normal;font-variant:normal;font-weight:800;font-stretch:normal;font-size:287.34109497px;font-family:'Open Sans';-inkscape-font-specification:'Open Sans Ultra-Bold';fill:#ffffff"
             id="path8928" />
          <path
             d="m -2617.3769,-6949.9275 -72.6771,0 -74.9219,-144.5124 -1.2627,0 q 2.6657,34.0937 2.6657,52.0525 l 0,92.4599 -49.1061,0 0,-205.1234 72.3965,0 74.6413,142.5481 0.8418,0 q -1.9642,-31.007 -1.9642,-49.8077 l 0,-92.7404 49.3867,0 0,205.1234 z"
             style="font-style:normal;font-variant:normal;font-weight:800;font-stretch:normal;font-size:287.34109497px;font-family:'Open Sans';-inkscape-font-specification:'Open Sans Ultra-Bold';fill:#ffffff"
             id="path8930" />
          <path
             d="m -2490.683,-7070.0271 88.5313,0 0,110.5589 q -36.0579,12.3467 -79.2713,12.3467 -47.4225,0 -73.3786,-27.4994 -25.8158,-27.4995 -25.8158,-78.4295 0,-49.6674 28.3412,-77.3071 28.3413,-27.6398 79.4117,-27.6398 19.3618,0 36.4788,3.6479 17.2573,3.6479 30.0249,9.26 l -17.5379,43.494 q -22.1679,-10.9436 -48.6852,-10.9436 -24.2725,0 -37.6013,15.8542 -13.1885,15.714 -13.1885,45.0374 0,28.7622 11.9258,43.9149 12.066,15.0125 34.6549,15.0125 12.3467,0 22.7291,-2.3852 l 0,-32.1294 -36.6191,0 0,-42.7925 z"
             style="font-style:normal;font-variant:normal;font-weight:800;font-stretch:normal;font-size:287.34109497px;font-family:'Open Sans';-inkscape-font-specification:'Open Sans Ultra-Bold';fill:#ffffff"
             id="path8932" />
          <path
             d="m -2226.2114,-7012.2222 q 0,19.0813 -9.681,33.9534 -9.6809,14.7318 -27.9203,23.0097 -18.2394,8.1376 -42.7925,8.1376 -20.4843,0 -34.3743,-2.806 -13.89,-2.9464 -28.9025,-10.1019 l 0,-49.3867 q 15.8543,8.1376 32.9713,12.7676 17.117,4.4897 31.4279,4.4897 12.3467,0 18.0991,-4.2091 5.7525,-4.3494 5.7525,-11.084 0,-4.2091 -2.3852,-7.2957 -2.2448,-3.227 -7.4361,-6.454 -5.0509,-3.227 -27.2188,-13.1885 -20.0634,-9.1197 -30.1652,-17.6782 -9.9615,-8.5585 -14.8721,-19.6425 -4.7704,-11.0839 -4.7704,-26.2367 0,-28.3412 20.6246,-44.1955 20.6246,-15.8543 56.6826,-15.8543 31.8488,0 64.9604,14.7319 l -16.9767,42.7925 q -28.7622,-13.1886 -49.6674,-13.1886 -10.8033,0 -15.714,3.7882 -4.9106,3.7882 -4.9106,9.4004 0,6.033 6.1734,10.8033 6.3136,4.7703 33.9534,17.3976 26.5173,11.9258 36.7594,25.6755 10.3825,13.6094 10.3825,34.3743 z"
             style="font-style:normal;font-variant:normal;font-weight:800;font-stretch:normal;font-size:287.34109497px;font-family:'Open Sans';-inkscape-font-specification:'Open Sans Ultra-Bold';fill:#ffffff"
             id="path8934" />
          <path
             d="m -2139.6442,-6949.9275 -54.578,0 0,-205.1234 121.222,0 0,44.4761 -66.644,0 0,39.1446 61.4528,0 0,44.4762 -61.4528,0 0,77.0265 z"
             style="font-style:normal;font-variant:normal;font-weight:800;font-stretch:normal;font-size:287.34109497px;font-family:'Open Sans';-inkscape-font-specification:'Open Sans Ultra-Bold';fill:#ffffff"
             id="path8936" />
          <path
             d="m -1983.9077,-7024.5689 0,74.6414 -55.4197,0 0,-205.1234 67.2052,0 q 83.6208,0 83.6208,60.611 0,35.637 -34.7952,55.1392 l 59.7692,89.3732 -62.8559,0 -43.494,-74.6414 -14.0304,0 z m 0,-41.67 10.3825,0 q 29.0428,0 29.0428,-25.6755 0,-21.1858 -28.4816,-21.1858 l -10.9437,0 0,46.8613 z"
             style="font-style:normal;font-variant:normal;font-weight:800;font-stretch:normal;font-size:287.34109497px;font-family:'Open Sans';-inkscape-font-specification:'Open Sans Ultra-Bold';fill:#ffffff"
             id="path8938" />
          <path
             d="m -1720.1243,-6949.9275 -121.7832,0 0,-205.1234 121.7832,0 0,44.4761 -66.3634,0 0,32.2698 61.4528,0 0,44.4761 -61.4528,0 0,38.7237 66.3634,0 0,45.1777 z"
             style="font-style:normal;font-variant:normal;font-weight:800;font-stretch:normal;font-size:287.34109497px;font-family:'Open Sans';-inkscape-font-specification:'Open Sans Ultra-Bold';fill:#ffffff"
             id="path8940" />
          <path
             d="m -1681.5279,-6949.9275 0,-205.1234 55.7004,0 0,205.1234 -55.7004,0 z"
             style="font-style:normal;font-variant:normal;font-weight:800;font-stretch:normal;font-size:287.34109497px;font-family:'Open Sans';-inkscape-font-specification:'Open Sans Ultra-Bold';fill:#ffffff"
             id="path8942" />
          <path
             d="m -4115.3168,-6311.0499 -83.0994,0 0,-312.3169 184.5703,0 0,67.7185 -101.4709,0 0,59.6008 93.5669,0 0,67.7185 -93.5669,0 0,117.2791 z"
             style="font-style:normal;font-variant:normal;font-weight:800;font-stretch:normal;font-size:437.5px;font-family:'Open Sans';-inkscape-font-specification:'Open Sans Ultra-Bold';fill:#ffffff"
             id="path8944" />
          <path
             d="m -3878.1952,-6424.6974 0,113.6475 -84.3811,0 0,-312.3169 102.3254,0 q 127.3194,0 127.3194,92.2851 0,54.2603 -52.9785,83.9539 l 91.0034,136.0779 -95.7031,0 -66.2232,-113.6475 -21.3623,0 z m 0,-63.446 15.8081,0 q 44.22,0 44.22,-39.093 0,-32.2571 -43.3655,-32.2571 l -16.6626,0 0,71.3501 z"
             style="font-style:normal;font-variant:normal;font-weight:800;font-stretch:normal;font-size:437.5px;font-family:'Open Sans';-inkscape-font-specification:'Open Sans Ultra-Bold';fill:#ffffff"
             id="path8946" />
          <path
             d="m -3477.9639,-6311.0499 -185.4248,0 0,-312.3169 185.4248,0 0,67.7185 -101.0437,0 0,49.1333 93.5669,0 0,67.7185 -93.5669,0 0,58.96 101.0437,0 0,68.7866 z"
             style="font-style:normal;font-variant:normal;font-weight:800;font-stretch:normal;font-size:437.5px;font-family:'Open Sans';-inkscape-font-specification:'Open Sans Ultra-Bold';fill:#ffffff"
             id="path8948" />
          <path
             d="m -3423.2764,-6311.0499 0,-312.3169 84.8084,0 0,312.3169 -84.8084,0 z"
             style="font-style:normal;font-variant:normal;font-weight:800;font-stretch:normal;font-size:437.5px;font-family:'Open Sans';-inkscape-font-specification:'Open Sans Ultra-Bold';fill:#ffffff"
             id="path8950" />
          <path
             d="m -3188.0774,-6311.0499 -83.0994,0 0,-312.3169 184.5704,0 0,67.7185 -101.471,0 0,59.6008 93.5669,0 0,67.7185 -93.5669,0 0,117.2791 z"
             style="font-style:normal;font-variant:normal;font-weight:800;font-stretch:normal;font-size:437.5px;font-family:'Open Sans';-inkscape-font-specification:'Open Sans Ultra-Bold';fill:#ffffff"
             id="path8952" />
          <path
             d="m -2769.8035,-6623.3668 0,187.9883 q 0,61.3098 -34.8205,95.0622 -34.607,33.5388 -99.9756,33.5388 -63.8733,0 -98.2666,-32.6843 -34.1797,-32.6843 -34.1797,-93.9941 l 0,-189.9109 84.8084,0 0,183.2886 q 0,33.1115 12.3901,48.0651 12.3901,14.9537 36.5295,14.9537 25.8484,0 37.3841,-14.74 11.7492,-14.9536 11.7492,-48.7061 l 0,-182.8613 84.3811,0 z"
             style="font-style:normal;font-variant:normal;font-weight:800;font-stretch:normal;font-size:437.5px;font-family:'Open Sans';-inkscape-font-specification:'Open Sans Ultra-Bold';fill:#ffffff"
             id="path8954" />
          <path
             d="m -2411.7885,-6311.0499 -110.6567,0 -114.0747,-220.0318 -1.9226,0 q 4.0588,51.9104 4.0588,79.2542 l 0,140.7776 -74.768,0 0,-312.3169 110.2295,0 113.6474,217.041 1.2818,0 q -2.9908,-47.2107 -2.9908,-75.8362 l 0,-141.2048 75.1953,0 0,312.3169 z"
             style="font-style:normal;font-variant:normal;font-weight:800;font-stretch:normal;font-size:437.5px;font-family:'Open Sans';-inkscape-font-specification:'Open Sans Ultra-Bold';fill:#ffffff"
             id="path8956" />
          <path
             d="m -2080.1472,-6311.0499 -95.2759,0 -61.7371,-119.4153 -24.9939,14.9536 0,104.4617 -84.8083,0 0,-312.3169 84.8083,0 0,135.6506 q 6.4087,-12.6037 25.8484,-39.9475 l 65.5823,-95.7031 92.2852,0 -98.4803,139.9231 96.7713,172.3938 z"
             style="font-style:normal;font-variant:normal;font-weight:800;font-stretch:normal;font-size:437.5px;font-family:'Open Sans';-inkscape-font-specification:'Open Sans Ultra-Bold';fill:#ffffff"
             id="path8958" />
        </g>
        <path
           style="color:#000000;font-style:normal;font-variant:normal;font-weight:normal;font-stretch:normal;font-size:medium;line-height:normal;font-family:sans-serif;text-indent:0;text-align:start;text-decoration:none;text-decoration-line:none;text-decoration-style:solid;text-decoration-color:#000000;letter-spacing:normal;word-spacing:normal;text-transform:none;direction:ltr;block-progression:tb;writing-mode:lr-tb;baseline-shift:baseline;text-anchor:start;white-space:normal;clip-rule:nonzero;display:inline;overflow:visible;visibility:visible;opacity:1;isolation:auto;mix-blend-mode:normal;color-interpolation:sRGB;color-interpolation-filters:linearRGB;solid-color:#000000;solid-opacity:1;fill:#ffffff;fill-opacity:1;fill-rule:nonzero;stroke:none;stroke-width:1.36224389;stroke-linecap:butt;stroke-linejoin:miter;stroke-miterlimit:4;stroke-dasharray:none;stroke-dashoffset:0;stroke-opacity:1;color-rendering:auto;image-rendering:auto;shape-rendering:auto;text-rendering:auto;enable-background:accumulate"
           clip-path="none"
           d="m -7799.9941,913.48817 -43.5079,34.4758 c 108.4776,139.07543 161.278,321.01943 131.7191,509.23893 -16.1824,103.0443 -55.2924,196.7219 -111.3052,276.6723 l 45.4971,32.0321 c 60.9107,-86.7483 103.442,-188.356 120.9813,-300.0396 32.0239,-203.9174 -25.5155,-401.4084 -143.3844,-552.37953 z m -967.295,-151.74893 c -158.3749,107.58023 -273.6019,277.87166 -305.6131,481.70756 -17.5373,111.6701 -8.2057,221.4103 23.1729,322.6434 l 53.1305,-16.5375 c -28.8015,-93.2627 -37.3093,-194.4081 -21.1283,-297.4409 29.5457,-188.1364 135.4934,-345.08053 281.2793,-444.21683 l -30.8413,-46.15573 z m 821.8046,267.02816 -43.5386,34.498 c 77.4151,99.8482 115.0025,230.209 93.817,365.1106 -11.6122,73.942 -39.6179,141.1697 -79.7271,198.5777 l 45.5268,32.0523 c 45.0186,-64.2054 76.4525,-139.3685 89.4226,-221.9576 23.6509,-150.5999 -18.6844,-296.5217 -105.5007,-408.281 z m -718.6597,-112.69063 c -116.7896,79.7748 -201.7307,205.63663 -225.3679,356.14903 -12.9692,82.5833 -6.0883,163.7578 17.0783,238.6675 l 53.163,-16.5479 c -20.5788,-66.9363 -26.6306,-139.5085 -15.0189,-213.4473 21.1716,-134.8127 96.8215,-247.318 201.0093,-318.63683 l -30.8638,-46.1845 z m 584.2903,219.15773 -43.5277,34.4922 c 48.7482,63.6376 72.2976,146.3913 58.8436,232.0607 -7.3929,47.076 -25.16,89.8791 -50.5952,126.4664 l 45.5216,32.0496 c 30.3419,-43.3831 51.528,-94.123 60.279,-149.8464 15.9198,-101.3721 -12.3723,-199.6777 -70.5213,-275.2225 z m -489.0373,-76.5987 c -78.3736,54.0929 -135.3296,138.9256 -151.2335,240.1952 -8.7502,55.7183 -4.1393,110.5046 11.4359,161.0951 l 53.1549,-16.5452 c -12.9897,-42.6205 -16.7763,-88.8059 -9.3836,-135.8799 13.4377,-85.5645 61.1099,-157.045 126.8834,-202.6857 l -30.8571,-46.1795 z m 229.3692,136.0765 c -1.3952,-0.2191 -2.7868,-0.3869 -4.1644,-0.6033 l -0.051,-0.01 c -1.3644,-0.2144 -2.7696,-0.066 -4.1224,-0.2788 l -0.05,-0.01 c -1.3538,-0.2125 -2.7816,-0.07 -4.1237,-0.2807 l -0.05,-0.01 c -1.34,-0.2106 -2.6471,-0.4152 -4.0313,-0.2644 l -0.051,-0.01 c -1.3489,-0.065 -2.684,-0.2751 -4.0539,-0.1221 l -0.05,-0.01 c -1.3363,-0.063 -2.6492,-0.2677 -4.0086,-0.1131 l -0.059,-0.01 c -1.3213,-0.062 -2.6403,-0.1225 -3.9847,0.034 l -0.051,-0.01 c -1.3224,0.01 -2.6148,-0.046 -3.9486,0.1117 l -0.059,-0.01 c -1.3035,-0.021 -2.5896,0 -3.9092,0.1568 l -0.06,-0.01 c -1.3112,0.1245 -2.6223,0.1367 -3.9315,0.2991 l -0.059,-0.01 c -2.6108,0.213 -5.188,0.5416 -7.7659,0.8709 l -0.052,-0.01 c -1.2924,0.2365 -2.5425,0.2571 -3.8342,0.5704 l -0.051,-0.01 c -2.5703,0.4393 -5.1323,0.8811 -7.6685,1.4358 l -0.052,-0.01 c -1.2613,0.2791 -2.4908,0.5964 -3.7466,0.9142 l -0.059,-0.01 c -1.2559,0.3164 -2.5129,0.6318 -3.7545,0.9518 l -0.059,-0.01 c -3.7637,1.0218 -7.4849,2.1976 -11.1744,3.4883 l -0.059,-0.01 c -9.8671,3.4956 -19.46,8.054 -28.8203,13.6346 l -0.051,-0.01 c -4.6772,2.7962 -9.2965,5.8784 -13.8472,9.1974 -21.6597,15.7814 -38.1108,34.7606 -49.3745,56.8867 -1.1827,2.3227 -2.3221,4.6494 -3.3993,7.0467 -5.3538,11.9961 -9.2442,24.8952 -11.7314,38.643 -0.2748,1.3644 -0.494,2.7594 -0.7131,4.1548 -2.022,12.8747 -2.5919,25.5496 -1.6592,37.9828 1.1981,15.987 4.8615,31.5908 10.9466,46.8382 4.082,10.0092 8.9517,19.4159 14.6171,28.2251 1.8945,2.9337 3.8864,5.7891 5.9515,8.6066 8.25,11.1951 17.874,21.3254 28.9296,30.3797 l -7.8186,49.7869 -162.9808,-15.1861 -18.2329,116.0999 159.7822,35.5547 -88.338,562.5017 c -129.8151,-38.5415 -240.8216,-118.0491 -323.4376,-223.8532 l 147.6477,28.7764 -85.0168,-125.0178 -236.3314,-45.7104 -45.1596,237.1381 85.0173,125.0155 27.2846,-146.692 c 99.0476,133.6826 235.1377,234.3153 395.1167,281.8073 16.5994,35.4022 47.712,61.4972 86.4051,67.5737 38.6484,6.0695 76.219,-9.1911 102.866,-37.7373 166.9182,4.0211 327.3207,-49.975 462.58,-146.8465 l -18.9476,147.6245 119.2455,-92.9373 29.7038,-239.5651 -238.9642,-28.9322 -119.2476,92.939 149.7878,17.9169 c -111.1444,75.5457 -241.3291,117.2398 -376.9365,113.9778 l 88.4056,-562.9338 162.9823,15.1883 18.2332,-116.1017 -159.7842,-35.553 7.8282,-49.8476 c 1.6542,-0.6566 3.2907,-1.3539 4.9115,-2.0531 l 0.06,0.01 c 1.6132,-0.6631 3.1981,-1.4417 4.7879,-2.1814 l 0.051,0.01 c 1.5882,-0.7403 3.1574,-1.5192 4.7138,-2.3015 l 0.06,0.01 c 1.5591,-0.7817 3.0645,-1.573 4.5873,-2.3973 l 0.06,0.01 c 1.5241,-0.8235 3.0317,-1.7244 4.5299,-2.6257 l 0.059,0.01 c 1.4953,-0.8649 2.9894,-1.8028 4.4516,-2.7097 l 0.051,0.01 c 1.4716,-0.9057 2.8855,-1.856 4.3247,-2.8034 1.4447,-0.9831 2.849,-1.9728 4.2603,-2.9979 2.8317,-2.0412 5.6032,-4.1616 8.3044,-6.3775 8.0919,-6.6413 15.6131,-14.1094 22.5654,-22.3859 18.6066,-22.4905 30.2179,-48.4628 34.8405,-77.8909 2.405,-15.3147 2.8427,-30.1768 1.2842,-44.5445 -0.2787,-2.6039 -0.671,-5.1542 -1.0741,-7.7475 -3.9389,-24.5133 -13.7811,-47.6215 -29.5606,-69.2792 -3.3145,-4.5501 -6.7659,-8.9204 -10.3624,-13.005 -0.903,-1.0222 -1.8401,-2.0123 -2.7593,-2.9998 -6.4205,-6.9591 -13.2618,-13.2583 -20.5409,-18.8121 -1.0424,-0.7875 -2.1295,-1.5808 -3.1918,-2.3341 -2.108,-1.5044 -4.2414,-3.0134 -6.4188,-4.4187 -3.279,-2.1286 -6.6678,-4.1264 -10.1078,-5.9863 -1.1382,-0.5824 -2.3293,-1.0991 -3.4632,-1.7923 -2.3288,-1.172 -4.7028,-2.2783 -7.0952,-3.3874 -1.1873,-0.5168 -2.4004,-0.997 -3.5962,-1.5529 -12.1657,-5.0638 -25.2281,-8.6929 -39.1533,-10.8797 l -0.031,-0.1984 z m -14.6949,93.0147 c 36.9504,5.8029 62.2001,40.4603 56.3973,77.4111 -5.8028,36.9505 -40.4608,62.202 -77.4115,56.3992 -36.9507,-5.8029 -62.1998,-40.4625 -56.3969,-77.4129 5.8029,-36.951 40.4603,-62.2004 77.4111,-56.3974 z"
           id="path4363"
           inkscape:connector-curvature="0" />
      </g>
    </g>
  </g>
</svg>
