<?xml version="1.0" encoding="UTF-8" standalone="no"?>
<!-- Created with Inkscape (http://www.inkscape.org/) -->

<svg
   xmlns:dc="http://purl.org/dc/elements/1.1/"
   xmlns:cc="http://creativecommons.org/ns#"
   xmlns:rdf="http://www.w3.org/1999/02/22-rdf-syntax-ns#"
   xmlns:svg="http://www.w3.org/2000/svg"
   xmlns="http://www.w3.org/2000/svg"
   xmlns:sodipodi="http://sodipodi.sourceforge.net/DTD/sodipodi-0.dtd"
   xmlns:inkscape="http://www.inkscape.org/namespaces/inkscape"
   width="881.90082mm"
   height="1777.3708mm"
   viewBox="0 0 3124.8454 6297.7707"
   id="svg8225"
   version="1.1"
   inkscape:version="0.91 r13725"
   sodipodi:docname="beachflag2.svg">
  <defs
     id="defs8227">
    <clipPath
       clipPathUnits="userSpaceOnUse"
       id="clipPath7557">
      <path
         d="m -5636.6436,-1309.9561 103.9675,0 c 0,-672.93 526.41,-1156.4088 1087.2888,-1220.22 678.33,-77.3087 1056.8712,396.8087 1056.8712,396.8087 515.7887,577.6225 622.0812,1196.91259 622.0812,1196.91259 262.4388,1182.59875 213.2088,1993.49871 213.2088,1993.49871 l 1.3725,2702.0287 -88.5838,0 -3033.9699,-5069.0287 37.7637,0 z"
         style="fill:#e5287a;fill-opacity:1"
         id="path7559"
         inkscape:connector-curvature="0" />
    </clipPath>
  </defs>
  <sodipodi:namedview
     id="base"
     pagecolor="#ffffff"
     bordercolor="#666666"
     borderopacity="1.0"
     inkscape:pageopacity="0.0"
     inkscape:pageshadow="2"
     inkscape:zoom="0.18911454"
     inkscape:cx="1562.4227"
     inkscape:cy="3148.8854"
     inkscape:document-units="px"
     inkscape:current-layer="text7402"
     showgrid="false"
     fit-margin-top="0"
     fit-margin-left="0"
     fit-margin-right="0"
     fit-margin-bottom="0"
     inkscape:window-width="2560"
     inkscape:window-height="1397"
     inkscape:window-x="0"
     inkscape:window-y="23"
     inkscape:window-maximized="0" />
  <metadata
     id="metadata8230">
    <rdf:RDF>
      <cc:Work
         rdf:about="">
        <dc:format>image/svg+xml</dc:format>
        <dc:type
           rdf:resource="http://purl.org/dc/dcmitype/StillImage" />
        <dc:title></dc:title>
      </cc:Work>
    </rdf:RDF>
  </metadata>
  <g
     inkscape:label="Layer 1"
     inkscape:groupmode="layer"
     id="layer1"
     transform="translate(2256.7084,4285.0946)">
    <text
       xml:space="preserve"
       style="font-style:normal;font-weight:normal;font-size:40px;line-height:125%;font-family:Sans;letter-spacing:0px;word-spacing:0px;display:inline;fill:#000000;fill-opacity:1;stroke:none;stroke-width:1px;stroke-linecap:butt;stroke-linejoin:miter;stroke-opacity:1"
       x="-5024.0063"
       y="-2739.4431"
       id="text6305"
       sodipodi:linespacing="125%"><tspan
         sodipodi:role="line"
         id="tspan6307"
         x="-5024.0063"
         y="-2739.4431" /></text>
    <flowRoot
       xml:space="preserve"
       id="flowRoot6323"
       style="font-style:normal;font-weight:normal;font-size:40px;line-height:125%;font-family:Sans;letter-spacing:0px;word-spacing:0px;display:inline;fill:#000000;fill-opacity:1;stroke:none;stroke-width:1px;stroke-linecap:butt;stroke-linejoin:miter;stroke-opacity:1"
       transform="translate(-923.04441,-1868.7551)"><flowRegion
         id="flowRegion6325"><rect
           id="rect6327"
           width="23852.773"
           height="6927.6143"
           x="1170.0486"
           y="-5469.79" /></flowRegion><flowPara
         id="flowPara6329" /></flowRoot>    <text
       sodipodi:linespacing="125%"
       id="text7414"
       y="-2675.2529"
       x="403.48563"
       style="font-style:normal;font-weight:normal;font-size:40px;line-height:125%;font-family:Sans;letter-spacing:0px;word-spacing:0px;display:inline;fill:#000000;fill-opacity:1;stroke:none;stroke-width:1px;stroke-linecap:butt;stroke-linejoin:miter;stroke-opacity:1"
       xml:space="preserve"
       transform="scale(-1,1)"><tspan
         y="-2675.2529"
         x="403.48563"
         id="tspan7416"
         sodipodi:role="line" /></text>
    <flowRoot
       transform="translate(3114.6184,-1655.4724)"
       style="font-style:normal;font-weight:normal;font-size:40px;line-height:125%;font-family:Sans;letter-spacing:0px;word-spacing:0px;display:inline;fill:#000000;fill-opacity:1;stroke:none;stroke-width:1px;stroke-linecap:butt;stroke-linejoin:miter;stroke-opacity:1"
       id="flowRoot7418"
       xml:space="preserve"><flowRegion
         id="flowRegion7420"><rect
           y="-5618.8828"
           x="8789.1152"
           height="6927.6143"
           width="23852.773"
           id="rect7422"
           transform="scale(-1,1)" /></flowRegion><flowPara
         id="flowPara7424" /></flowRoot>    <g
       style="display:inline"
       id="g7561"
       transform="translate(3417.6989,-1746.3965)">
      <path
         d="m -5636.6436,-1309.9561 103.9675,0 c 0,-672.93 526.41,-1156.4088 1087.2888,-1220.22 678.33,-77.3087 1056.8712,396.8087 1056.8712,396.8087 515.7887,577.6225 622.0812,1196.91259 622.0812,1196.91259 262.4388,1182.59875 213.2088,1993.49871 213.2088,1993.49871 l 1.3725,2702.0287 -88.5838,0 -3033.9699,-5069.0287 37.7637,0 z"
         style="fill:#e5287a;fill-opacity:1"
         id="path7398"
         inkscape:connector-curvature="0" />
      <g
         clip-path="url(#clipPath7557)"
         id="g7533">
        <g
           transform="matrix(0.50226895,0.86471145,-0.86471145,0.50226895,0,0)"
           style="font-style:normal;font-weight:normal;font-size:217.01348877px;line-height:125%;font-family:Sans;letter-spacing:0px;word-spacing:0px;fill:#ffffff;fill-opacity:1;stroke:none;stroke-width:1px;stroke-linecap:butt;stroke-linejoin:miter;stroke-opacity:1"
           id="text7402">
          <path
             d="m -3002.8054,2386.1736 q 0,19.0813 -9.681,33.9534 -9.6809,14.7318 -27.9203,23.0097 -18.2394,8.1376 -42.7925,8.1376 -20.4843,0 -34.3743,-2.806 -13.89,-2.9464 -28.9025,-10.1019 l 0,-49.3867 q 15.8543,8.1376 32.9713,12.7676 17.117,4.4897 31.4279,4.4897 12.3467,0 18.0991,-4.2091 5.7525,-4.3494 5.7525,-11.084 0,-4.2091 -2.3852,-7.2957 -2.2448,-3.227 -7.436,-6.454 -5.051,-3.227 -27.2189,-13.1885 -20.0634,-9.1197 -30.1652,-17.6782 -9.9615,-8.5585 -14.8721,-19.6425 -4.7703,-11.0839 -4.7703,-26.2367 0,-28.3412 20.6245,-44.1955 20.6246,-15.8543 56.6826,-15.8543 31.8488,0 64.9604,14.7319 l -16.9767,42.7925 q -28.7622,-13.1886 -49.6674,-13.1886 -10.8033,0 -15.7139,3.7882 -4.9107,3.7882 -4.9107,9.4004 0,6.033 6.1734,10.8033 6.3136,4.7703 33.9534,17.3976 26.5173,11.9258 36.7594,25.6755 10.3825,13.6094 10.3825,34.3743 z"
             style="font-style:normal;font-variant:normal;font-weight:800;font-stretch:normal;font-size:287.34109497px;font-family:'Open Sans';-inkscape-font-specification:'Open Sans Ultra-Bold';fill:#ffffff"
             id="path8961" />
          <path
             d="m -2844.9643,2448.4683 -10.1018,-38.4431 -66.6441,0 -10.3824,38.4431 -60.8917,0 66.9247,-205.9652 73.9398,0 67.7665,205.9652 -60.611,0 z m -21.6067,-83.9014 -8.8391,-33.6728 q -3.0867,-11.2242 -7.5764,-29.0428 -4.3494,-17.8185 -5.7524,-25.5351 -1.2628,7.1554 -5.0509,23.5709 -3.6479,16.4155 -16.4155,64.6798 l 43.6343,0 z"
             style="font-style:normal;font-variant:normal;font-weight:800;font-stretch:normal;font-size:287.34109497px;font-family:'Open Sans';-inkscape-font-specification:'Open Sans Ultra-Bold';fill:#ffffff"
             id="path8963" />
          <path
             d="m -2687.6227,2448.4683 -55.4198,0 0,-159.8055 -50.0883,0 0,-45.3179 155.456,0 0,45.3179 -49.9479,0 0,159.8055 z"
             style="font-style:normal;font-variant:normal;font-weight:800;font-stretch:normal;font-size:287.34109497px;font-family:'Open Sans';-inkscape-font-specification:'Open Sans Ultra-Bold';fill:#ffffff"
             id="path8965" />
          <path
             d="m -2506.8595,2448.4683 -55.4198,0 0,-159.8055 -50.0883,0 0,-45.3179 155.456,0 0,45.3179 -49.9479,0 0,159.8055 z"
             style="font-style:normal;font-variant:normal;font-weight:800;font-stretch:normal;font-size:287.34109497px;font-family:'Open Sans';-inkscape-font-specification:'Open Sans Ultra-Bold';fill:#ffffff"
             id="path8967" />
          <path
             d="m -2305.5244,2448.4683 -121.7833,0 0,-205.1234 121.7833,0 0,44.4761 -66.3635,0 0,32.2698 61.4529,0 0,44.4761 -61.4529,0 0,38.7237 66.3635,0 0,45.1777 z"
             style="font-style:normal;font-variant:normal;font-weight:800;font-stretch:normal;font-size:287.34109497px;font-family:'Open Sans';-inkscape-font-specification:'Open Sans Ultra-Bold';fill:#ffffff"
             id="path8969" />
          <path
             d="m -3896.8837,2807.6446 -56.2616,0 0,-108.5947 q 0,-19.7828 0.8418,-36.1982 -5.1912,6.3136 -12.9079,13.1885 l -23.2903,19.2215 -28.7622,-35.3564 70.4322,-57.384 49.948,0 0,205.1233 z"
             style="font-style:normal;font-variant:normal;font-weight:800;font-stretch:normal;font-size:287.34109497px;font-family:'Open Sans';-inkscape-font-specification:'Open Sans Ultra-Bold';fill:#ffffff"
             id="path8971" />
          <path
             d="m -3702.0287,2767.9388 -22.5888,0 0,39.7058 -54.7183,0 0,-39.7058 -81.7968,0 0,-40.6879 85.3044,-124.7296 51.2107,0 0,124.028 22.5888,0 0,41.3895 z m -77.3071,-41.3895 0,-23.8515 q 0,-6.7346 0.4209,-18.0991 0.5612,-11.5049 0.8418,-12.0661 l -1.5433,0 q -4.7703,10.8033 -10.8034,20.2037 l -22.7291,33.813 33.8131,0 z"
             style="font-style:normal;font-variant:normal;font-weight:800;font-stretch:normal;font-size:287.34109497px;font-family:'Open Sans';-inkscape-font-specification:'Open Sans Ultra-Bold';fill:#ffffff"
             id="path8973" />
          <path
             d="m -3517.5915,2767.9388 -22.5888,0 0,39.7058 -54.7183,0 0,-39.7058 -81.7968,0 0,-40.6879 85.3044,-124.7296 51.2107,0 0,124.028 22.5888,0 0,41.3895 z m -77.3071,-41.3895 0,-23.8515 q 0,-6.7346 0.4209,-18.0991 0.5612,-11.5049 0.8418,-12.0661 l -1.5433,0 q -4.7703,10.8033 -10.8034,20.2037 l -22.7291,33.813 33.8131,0 z"
             style="font-style:normal;font-variant:normal;font-weight:800;font-stretch:normal;font-size:287.34109497px;font-family:'Open Sans';-inkscape-font-specification:'Open Sans Ultra-Bold';fill:#ffffff"
             id="path8975" />
          <path
             d="m -3344.2645,2705.3635 q 0,54.4377 -18.2394,79.8326 -18.2395,25.2546 -55.8407,25.2546 -36.7595,0 -55.4198,-26.377 -18.6604,-26.5173 -18.6604,-78.7102 0,-54.7182 18.2394,-80.2534 18.2395,-25.5352 55.8408,-25.5352 36.6191,0 55.2794,26.6576 18.8007,26.5173 18.8007,79.131 z m -93.0211,0 q 0,34.7953 4.3494,47.8435 4.3494,13.0482 14.5916,13.0482 10.3824,0 14.5915,-13.4691 4.3494,-13.4692 4.3494,-47.4226 0,-34.0936 -4.3494,-47.7031 -4.3494,-13.7497 -14.5915,-13.7497 -10.2422,0 -14.5916,13.1885 -4.3494,13.1885 -4.3494,48.2643 z"
             style="font-style:normal;font-variant:normal;font-weight:800;font-stretch:normal;font-size:287.34109497px;font-family:'Open Sans';-inkscape-font-specification:'Open Sans Ultra-Bold';fill:#ffffff"
             id="path8977" />
          <path
             d="m -3147.9803,2807.6446 -41.9506,-147.7393 -1.2628,0 q 2.9464,37.7416 2.9464,58.6468 l 0,89.0925 -49.1061,0 0,-205.1233 73.7995,0 42.7925,145.6347 1.1224,0 41.9507,-145.6347 73.9398,0 0,205.1233 -50.9301,0 0,-89.9344 q 0,-7.0151 0.1403,-15.5736 0.2806,-8.5585 1.9643,-41.9507 l -1.2628,0 -41.3894,147.4587 -52.7541,0 z"
             style="font-style:normal;font-variant:normal;font-weight:800;font-stretch:normal;font-size:287.34109497px;font-family:'Open Sans';-inkscape-font-specification:'Open Sans Ultra-Bold';fill:#ffffff"
             id="path8979" />
          <path
             d="m -2959.5529,2807.6446 0,-205.1233 55.7004,0 0,205.1233 -55.7004,0 z"
             style="font-style:normal;font-variant:normal;font-weight:800;font-stretch:normal;font-size:287.34109497px;font-family:'Open Sans';-inkscape-font-specification:'Open Sans Ultra-Bold';fill:#ffffff"
             id="path8981" />
          <path
             d="m -2664.3549,2807.6446 -72.6771,0 -74.9219,-144.5123 -1.2628,0 q 2.6658,34.0937 2.6658,52.0525 l 0,92.4598 -49.1061,0 0,-205.1233 72.3965,0 74.6413,142.5481 0.8418,0 q -1.9642,-31.0071 -1.9642,-49.8077 l 0,-92.7404 49.3867,0 0,205.1233 z"
             style="font-style:normal;font-variant:normal;font-weight:800;font-stretch:normal;font-size:287.34109497px;font-family:'Open Sans';-inkscape-font-specification:'Open Sans Ultra-Bold';fill:#ffffff"
             id="path8983" />
          <path
             d="m -2630.1208,2784.3543 q 0,-12.9079 7.5764,-19.9231 7.7166,-7.0151 22.3082,-7.0151 13.89,0 21.3261,7.0151 7.4361,7.0152 7.4361,19.9231 0,12.6273 -7.7167,19.7827 -7.5764,7.0152 -21.0455,7.0152 -13.89,0 -21.8873,-7.0152 -7.9973,-7.0151 -7.9973,-19.7827 z"
             style="font-style:normal;font-variant:normal;font-weight:800;font-stretch:normal;font-size:287.34109497px;font-family:'Open Sans';-inkscape-font-specification:'Open Sans Ultra-Bold';fill:#ffffff"
             id="path8985" />
          <path
             d="m -2407.7402,2807.6446 -54.578,0 0,-205.1233 121.2221,0 0,44.4761 -66.6441,0 0,39.1446 61.4528,0 0,44.4761 -61.4528,0 0,77.0265 z"
             style="font-style:normal;font-variant:normal;font-weight:800;font-stretch:normal;font-size:287.34109497px;font-family:'Open Sans';-inkscape-font-specification:'Open Sans Ultra-Bold';fill:#ffffff"
             id="path8987" />
          <path
             d="m -2252.0036,2733.0033 0,74.6413 -55.4198,0 0,-205.1233 67.2053,0 q 83.6207,0 83.6207,60.611 0,35.637 -34.7952,55.1391 l 59.7692,89.3732 -62.8559,0 -43.494,-74.6413 -14.0303,0 z m 0,-41.6701 10.3824,0 q 29.0428,0 29.0428,-25.6755 0,-21.1858 -28.4815,-21.1858 l -10.9437,0 0,46.8613 z"
             style="font-style:normal;font-variant:normal;font-weight:800;font-stretch:normal;font-size:287.34109497px;font-family:'Open Sans';-inkscape-font-specification:'Open Sans Ultra-Bold';fill:#ffffff"
             id="path8989" />
          <path
             d="m -1985.5415,2807.6446 -121.7833,0 0,-205.1233 121.7833,0 0,44.4761 -66.3635,0 0,32.2697 61.4529,0 0,44.4762 -61.4529,0 0,38.7237 66.3635,0 0,45.1776 z"
             style="font-style:normal;font-variant:normal;font-weight:800;font-stretch:normal;font-size:287.34109497px;font-family:'Open Sans';-inkscape-font-specification:'Open Sans Ultra-Bold';fill:#ffffff"
             id="path8991" />
          <path
             d="m -1944.2659,2807.6446 0,-205.1233 55.7004,0 0,205.1233 -55.7004,0 z"
             style="font-style:normal;font-variant:normal;font-weight:800;font-stretch:normal;font-size:287.34109497px;font-family:'Open Sans';-inkscape-font-specification:'Open Sans Ultra-Bold';fill:#ffffff"
             id="path8993" />
          <path
             d="m -1673.9278,2807.6446 -55.7004,0 0,-83.6207 -64.3992,0 0,83.6207 -55.7004,0 0,-205.1233 55.7004,0 0,76.0443 64.3992,0 0,-76.0443 55.7004,0 0,205.1233 z"
             style="font-style:normal;font-variant:normal;font-weight:800;font-stretch:normal;font-size:287.34109497px;font-family:'Open Sans';-inkscape-font-specification:'Open Sans Ultra-Bold';fill:#ffffff"
             id="path8995" />
          <path
             d="m -1513.3069,2807.6446 -121.7832,0 0,-205.1233 121.7832,0 0,44.4761 -66.3634,0 0,32.2697 61.4528,0 0,44.4762 -61.4528,0 0,38.7237 66.3634,0 0,45.1776 z"
             style="font-style:normal;font-variant:normal;font-weight:800;font-stretch:normal;font-size:287.34109497px;font-family:'Open Sans';-inkscape-font-specification:'Open Sans Ultra-Bold';fill:#ffffff"
             id="path8997" />
          <path
             d="m -1477.3892,2807.6446 0,-205.1233 55.7004,0 0,205.1233 -55.7004,0 z"
             style="font-style:normal;font-variant:normal;font-weight:800;font-stretch:normal;font-size:287.34109497px;font-family:'Open Sans';-inkscape-font-specification:'Open Sans Ultra-Bold';fill:#ffffff"
             id="path8999" />
          <path
             d="m -1286.9976,2807.6446 -55.4198,0 0,-159.8054 -50.0883,0 0,-45.3179 155.4561,0 0,45.3179 -49.948,0 0,159.8054 z"
             style="font-style:normal;font-variant:normal;font-weight:800;font-stretch:normal;font-size:287.34109497px;font-family:'Open Sans';-inkscape-font-specification:'Open Sans Ultra-Bold';fill:#ffffff"
             id="path9001" />
          <path
             d="m -3557.2985,3166.821 -55.4198,0 0,-159.8054 -50.0883,0 0,-45.318 155.4561,0 0,45.318 -49.948,0 0,159.8054 z"
             style="font-style:normal;font-variant:normal;font-weight:800;font-stretch:normal;font-size:287.34109497px;font-family:'Open Sans';-inkscape-font-specification:'Open Sans Ultra-Bold';fill:#ffffff"
             id="path9003" />
          <path
             d="m -3357.2523,3166.821 -10.1018,-38.4431 -66.6441,0 -10.3824,38.4431 -60.8916,0 66.9246,-205.9652 73.9399,0 67.7664,205.9652 -60.611,0 z m -21.6067,-83.9014 -8.8391,-33.6727 q -3.0866,-11.2243 -7.5764,-29.0428 -4.3494,-17.8185 -5.7524,-25.5352 -1.2627,7.1555 -5.0509,23.5709 -3.6479,16.4155 -16.4155,64.6798 l 43.6343,0 z m -77.0265,-161.7696 q 0,-10.5228 6.454,-16.2752 6.4539,-5.8927 17.3976,-5.8927 11.0839,0 17.5379,6.033 6.5943,5.8927 6.5943,16.1349 0,9.9615 -6.5943,15.9945 -6.454,5.8928 -17.5379,5.8928 -10.9437,0 -17.3976,-5.7524 -6.454,-5.7525 -6.454,-16.1349 z m 67.2053,0 q 0,-10.5228 6.454,-16.2752 6.4539,-5.8927 17.6782,-5.8927 11.2242,0 17.6782,6.033 6.5942,6.033 6.5942,16.1349 0,9.9615 -6.5942,15.9945 -6.454,5.8928 -17.6782,5.8928 -11.3646,0 -17.8186,-5.7524 -6.3136,-5.8928 -6.3136,-16.1349 z"
             style="font-style:normal;font-variant:normal;font-weight:800;font-stretch:normal;font-size:287.34109497px;font-family:'Open Sans';-inkscape-font-specification:'Open Sans Ultra-Bold';fill:#ffffff"
             id="path9005" />
          <path
             d="m -3191.975,3046.7214 88.5313,0 0,110.559 q -36.0579,12.3467 -79.2713,12.3467 -47.4225,0 -73.3786,-27.4995 -25.8158,-27.4994 -25.8158,-78.4295 0,-49.6674 28.3412,-77.3071 28.3413,-27.6397 79.4117,-27.6397 19.3618,0 36.4788,3.6478 17.2573,3.6479 30.0249,9.2601 l -17.5379,43.494 q -22.1679,-10.9437 -48.6852,-10.9437 -24.2725,0 -37.6013,15.8543 -13.1885,15.7139 -13.1885,45.0373 0,28.7622 11.9258,43.915 12.0661,15.0124 34.6549,15.0124 12.3467,0 22.7291,-2.3852 l 0,-32.1294 -36.6191,0 0,-42.7925 z"
             style="font-style:normal;font-variant:normal;font-weight:800;font-stretch:normal;font-size:287.34109497px;font-family:'Open Sans';-inkscape-font-specification:'Open Sans Ultra-Bold';fill:#ffffff"
             id="path9007" />
          <path
             d="m -3061.6332,3166.821 0,-205.1234 55.4198,0 0,160.3667 78.9907,0 0,44.7567 -134.4105,0 z"
             style="font-style:normal;font-variant:normal;font-weight:800;font-stretch:normal;font-size:287.34109497px;font-family:'Open Sans';-inkscape-font-specification:'Open Sans Ultra-Bold';fill:#ffffff"
             id="path9009" />
          <path
             d="m -2894.3918,3166.821 0,-205.1234 55.7004,0 0,205.1234 -55.7004,0 z"
             style="font-style:normal;font-variant:normal;font-weight:800;font-stretch:normal;font-size:287.34109497px;font-family:'Open Sans';-inkscape-font-specification:'Open Sans Ultra-Bold';fill:#ffffff"
             id="path9011" />
          <path
             d="m -2703.1585,3004.2095 q -19.7827,0 -30.8667,16.2752 -11.084,16.1349 -11.084,44.6164 0,59.208 45.0374,59.208 13.6094,0 26.377,-3.7882 12.7676,-3.7882 25.6755,-9.1197 l 0,46.8613 q -25.6755,11.3646 -58.0855,11.3646 -46.4404,0 -71.2741,-26.9383 -24.6934,-26.9382 -24.6934,-77.8683 0,-31.8488 11.9258,-55.981 12.0661,-24.1321 34.5146,-37.04 22.5888,-13.0482 53.0346,-13.0482 33.2519,0 63.5574,14.4512 l -16.9767,43.6343 q -11.3645,-5.3315 -22.7291,-8.9794 -11.3646,-3.6479 -24.4128,-3.6479 z"
             style="font-style:normal;font-variant:normal;font-weight:800;font-stretch:normal;font-size:287.34109497px;font-family:'Open Sans';-inkscape-font-specification:'Open Sans Ultra-Bold';fill:#ffffff"
             id="path9013" />
          <path
             d="m -2432.3732,3166.821 -55.7003,0 0,-83.6207 -64.3993,0 0,83.6207 -55.7003,0 0,-205.1234 55.7003,0 0,76.0444 64.3993,0 0,-76.0444 55.7003,0 0,205.1234 z"
             style="font-style:normal;font-variant:normal;font-weight:800;font-stretch:normal;font-size:287.34109497px;font-family:'Open Sans';-inkscape-font-specification:'Open Sans Ultra-Bold';fill:#ffffff"
             id="path9015" />
          <path
             d="m -2313.5363,3166.821 0,-205.1234 55.7004,0 0,205.1234 -55.7004,0 z"
             style="font-style:normal;font-variant:normal;font-weight:800;font-stretch:normal;font-size:287.34109497px;font-family:'Open Sans';-inkscape-font-specification:'Open Sans Ultra-Bold';fill:#ffffff"
             id="path9017" />
          <path
             d="m -2018.3382,3166.821 -72.6771,0 -74.9219,-144.5124 -1.2627,0 q 2.6657,34.0937 2.6657,52.0525 l 0,92.4599 -49.1061,0 0,-205.1234 72.3965,0 74.6413,142.5481 0.8418,0 q -1.9642,-31.007 -1.9642,-49.8076 l 0,-92.7405 49.3867,0 0,205.1234 z"
             style="font-style:normal;font-variant:normal;font-weight:800;font-stretch:normal;font-size:287.34109497px;font-family:'Open Sans';-inkscape-font-specification:'Open Sans Ultra-Bold';fill:#ffffff"
             id="path9019" />
          <path
             d="m -1798.7635,3166.821 -62.5752,0 -40.5477,-78.4295 -16.4155,9.8212 0,68.6083 -55.7003,0 0,-205.1234 55.7003,0 0,89.0926 q 4.2091,-8.2779 16.9767,-26.2367 l 43.0731,-62.8559 60.6111,0 -64.6798,91.8987 63.5573,113.2247 z"
             style="font-style:normal;font-variant:normal;font-weight:800;font-stretch:normal;font-size:287.34109497px;font-family:'Open Sans';-inkscape-font-specification:'Open Sans Ultra-Bold';fill:#ffffff"
             id="path9021" />
          <path
             d="m -1765.7398,3166.821 0,-205.1234 55.4198,0 0,160.3667 78.9907,0 0,44.7567 -134.4105,0 z"
             style="font-style:normal;font-variant:normal;font-weight:800;font-stretch:normal;font-size:287.34109497px;font-family:'Open Sans';-inkscape-font-specification:'Open Sans Ultra-Bold';fill:#ffffff"
             id="path9023" />
          <path
             d="m -1603.2425,3143.5307 q 0,-12.9079 7.5764,-19.9231 7.7166,-7.0152 22.3082,-7.0152 13.89,0 21.3261,7.0152 7.4361,7.0152 7.4361,19.9231 0,12.6273 -7.7167,19.7827 -7.5764,7.0152 -21.0455,7.0152 -13.89,0 -21.8873,-7.0152 -7.9973,-7.0151 -7.9973,-19.7827 z"
             style="font-style:normal;font-variant:normal;font-weight:800;font-stretch:normal;font-size:287.34109497px;font-family:'Open Sans';-inkscape-font-specification:'Open Sans Ultra-Bold';fill:#ffffff"
             id="path9025" />
          <path
             d="m -3565.1569,3805.6986 -83.0994,0 0,-312.3169 184.5703,0 0,67.7185 -101.4709,0 0,59.6009 93.5669,0 0,67.7185 -93.5669,0 0,117.279 z"
             style="font-style:normal;font-variant:normal;font-weight:800;font-stretch:normal;font-size:437.5px;font-family:'Open Sans';-inkscape-font-specification:'Open Sans Ultra-Bold';fill:#ffffff"
             id="path9027" />
          <path
             d="m -3328.0353,3692.0512 0,113.6474 -84.3811,0 0,-312.3169 102.3254,0 q 127.3193,0 127.3193,92.2852 0,54.2602 -52.9785,83.9538 l 91.0034,136.0779 -95.7031,0 -66.2231,-113.6474 -21.3623,0 z m 0,-63.4461 15.8081,0 q 44.2199,0 44.2199,-39.093 0,-32.2571 -43.3654,-32.2571 l -16.6626,0 0,71.3501 z"
             style="font-style:normal;font-variant:normal;font-weight:800;font-stretch:normal;font-size:437.5px;font-family:'Open Sans';-inkscape-font-specification:'Open Sans Ultra-Bold';fill:#ffffff"
             id="path9029" />
          <path
             d="m -2925.1251,3805.6986 -185.4248,0 0,-312.3169 185.4248,0 0,67.7185 -101.0437,0 0,49.1333 93.5669,0 0,67.7185 -93.5669,0 0,58.96 101.0437,0 0,68.7866 z"
             style="font-style:normal;font-variant:normal;font-weight:800;font-stretch:normal;font-size:437.5px;font-family:'Open Sans';-inkscape-font-specification:'Open Sans Ultra-Bold';fill:#ffffff"
             id="path9031" />
          <path
             d="m -2870.4376,3805.6986 0,-312.3169 84.8083,0 0,312.3169 -84.8083,0 z"
             style="font-style:normal;font-variant:normal;font-weight:800;font-stretch:normal;font-size:437.5px;font-family:'Open Sans';-inkscape-font-specification:'Open Sans Ultra-Bold';fill:#ffffff"
             id="path9033" />
          <path
             d="m -2640.5964,3805.6986 -83.0994,0 0,-312.3169 184.5703,0 0,67.7185 -101.4709,0 0,59.6009 93.5669,0 0,67.7185 -93.5669,0 0,117.279 z"
             style="font-style:normal;font-variant:normal;font-weight:800;font-stretch:normal;font-size:437.5px;font-family:'Open Sans';-inkscape-font-specification:'Open Sans Ultra-Bold';fill:#ffffff"
             id="path9035" />
          <path
             d="m -2222.3225,3493.3817 0,187.9883 q 0,61.3098 -34.8206,95.0623 -34.6069,33.5388 -99.9756,33.5388 -63.8732,0 -98.2666,-32.6844 -34.1796,-32.6843 -34.1796,-93.9941 l 0,-189.9109 84.8083,0 0,183.2886 q 0,33.1116 12.3901,48.0652 12.3902,14.9536 36.5296,14.9536 25.8484,0 37.384,-14.74 11.7493,-14.9536 11.7493,-48.7061 l 0,-182.8613 84.3811,0 z"
             style="font-style:normal;font-variant:normal;font-weight:800;font-stretch:normal;font-size:437.5px;font-family:'Open Sans';-inkscape-font-specification:'Open Sans Ultra-Bold';fill:#ffffff"
             id="path9037" />
          <path
             d="m -1864.3074,3805.6986 -110.6567,0 -114.0747,-220.0317 -1.9226,0 q 4.0588,51.9104 4.0588,79.2541 l 0,140.7776 -74.7681,0 0,-312.3169 110.2295,0 113.6475,217.041 1.2817,0 q -2.9907,-47.2107 -2.9907,-75.8361 l 0,-141.2049 75.1953,0 0,312.3169 z"
             style="font-style:normal;font-variant:normal;font-weight:800;font-stretch:normal;font-size:437.5px;font-family:'Open Sans';-inkscape-font-specification:'Open Sans Ultra-Bold';fill:#ffffff"
             id="path9039" />
          <path
             d="m -1529.9873,3805.6986 -95.2759,0 -61.737,-119.4153 -24.9939,14.9536 0,104.4617 -84.8084,0 0,-312.3169 84.8084,0 0,135.6507 q 6.4087,-12.6038 25.8483,-39.9476 l 65.5823,-95.7031 92.2852,0 -98.4802,139.9231 96.7712,172.3938 z"
             style="font-style:normal;font-variant:normal;font-weight:800;font-stretch:normal;font-size:437.5px;font-family:'Open Sans';-inkscape-font-specification:'Open Sans Ultra-Bold';fill:#ffffff"
             id="path9041" />
        </g>
        <path
           inkscape:connector-curvature="0"
           id="path7412"
           d="m -3856.735,977.67834 43.5079,34.47576 c -108.4776,139.0754 -161.278,321.0194 -131.7191,509.2389 16.1824,103.0443 55.2924,196.7219 111.3052,276.6723 l -45.4971,32.0321 c -60.9107,-86.7483 -103.442,-188.356 -120.9813,-300.0396 -32.0239,-203.9174 25.5155,-401.4084 143.3844,-552.37946 z m 967.295,-151.74893 c 158.3749,107.58023 273.6019,277.87159 305.6131,481.70749 17.5373,111.6701 8.2057,221.4103 -23.1729,322.6434 l -53.1305,-16.5375 c 28.8015,-93.2627 37.3093,-194.4081 21.1283,-297.4409 -29.5457,-188.1364 -135.4934,-345.08046 -281.2793,-444.21676 l 30.8413,-46.15573 z m -821.8046,267.02809 43.5386,34.498 c -77.4151,99.8482 -115.0025,230.209 -93.817,365.1106 11.6122,73.942 39.6179,141.1697 79.7271,198.5777 l -45.5268,32.0523 c -45.0186,-64.2054 -76.4525,-139.3685 -89.4226,-221.9576 -23.6509,-150.5999 18.6844,-296.5217 105.5007,-408.281 z m 718.6597,-112.69056 c 116.7896,79.77476 201.7307,205.63656 225.3679,356.14896 12.9692,82.5833 6.0883,163.7578 -17.0783,238.6675 l -53.163,-16.5479 c 20.5788,-66.9363 26.6306,-139.5085 15.0189,-213.4473 -21.1716,-134.8127 -96.8215,-247.318 -201.0093,-318.6368 l 30.8638,-46.18446 z m -584.2903,219.15766 43.5277,34.4922 c -48.7482,63.6376 -72.2976,146.3913 -58.8436,232.0607 7.3929,47.076 25.16,89.8791 50.5952,126.4664 l -45.5216,32.0496 c -30.3419,-43.3831 -51.528,-94.123 -60.279,-149.8464 -15.9198,-101.3721 12.3723,-199.6777 70.5213,-275.2225 z m 489.0373,-76.5987 c 78.3736,54.0929 135.3296,138.9256 151.2335,240.1952 8.7502,55.7183 4.1393,110.5046 -11.4359,161.0951 l -53.1549,-16.5452 c 12.9897,-42.6205 16.7763,-88.8059 9.3836,-135.8799 -13.4377,-85.5645 -61.1099,-157.045 -126.8834,-202.6857 l 30.8571,-46.1795 z m -229.3692,136.0765 c 1.3952,-0.2191 2.7868,-0.3869 4.1644,-0.6033 l 0.051,-0.01 c 1.3644,-0.2144 2.7696,-0.066 4.1224,-0.2788 l 0.05,-0.01 c 1.3538,-0.2125 2.7816,-0.07 4.1237,-0.2807 l 0.05,-0.01 c 1.34,-0.2106 2.6471,-0.4152 4.0313,-0.2644 l 0.051,-0.01 c 1.3489,-0.065 2.684,-0.2751 4.0539,-0.1221 l 0.05,-0.01 c 1.3363,-0.063 2.6492,-0.2677 4.0086,-0.1131 l 0.059,-0.01 c 1.3213,-0.062 2.6403,-0.1225 3.9847,0.034 l 0.051,-0.01 c 1.3224,0.01 2.6148,-0.046 3.9486,0.1117 l 0.059,-0.01 c 1.3035,-0.021 2.5896,0 3.9092,0.1568 l 0.06,-0.01 c 1.3112,0.1245 2.6223,0.1367 3.9315,0.2991 l 0.059,-0.01 c 2.6108,0.213 5.188,0.5416 7.7659,0.8709 l 0.052,-0.01 c 1.2924,0.2365 2.5425,0.2571 3.8342,0.5704 l 0.051,-0.01 c 2.5703,0.4393 5.1323,0.8811 7.6685,1.4358 l 0.052,-0.01 c 1.2613,0.2791 2.4908,0.5964 3.7466,0.9142 l 0.059,-0.01 c 1.2559,0.3164 2.5129,0.6318 3.7545,0.9518 l 0.059,-0.01 c 3.7637,1.0218 7.4849,2.1976 11.1744,3.4883 l 0.059,-0.01 c 9.8671,3.4956 19.46,8.054 28.8203,13.6346 l 0.051,-0.01 c 4.6772,2.7962 9.2965,5.8784 13.8472,9.1974 21.6597,15.7814 38.1108,34.7606 49.3745,56.8867 1.1827,2.3227 2.3221,4.6494 3.3993,7.0467 5.3538,11.9961 9.2442,24.8952 11.7314,38.643 0.2748,1.3644 0.494,2.7594 0.7131,4.1548 2.022,12.8747 2.5919,25.5496 1.6592,37.9828 -1.1981,15.987 -4.8615,31.5908 -10.9466,46.8382 -4.082,10.0092 -8.9517,19.4159 -14.6171,28.2251 -1.8945,2.9337 -3.8864,5.7891 -5.9515,8.6066 -8.25,11.1951 -17.874,21.3254 -28.9296,30.3797 l 7.8186,49.7869 162.9808,-15.1861 18.2329,116.0999 -159.7822,35.5547 88.338,562.5017 c 129.8151,-38.5415 240.8216,-118.0491 323.4376,-223.8532 l -147.6477,28.7764 85.0168,-125.0178 236.3314,-45.7104 45.1596,237.1381 -85.0173,125.0155 -27.2846,-146.692 c -99.0476,133.6826 -235.1377,234.3153 -395.1167,281.8073 -16.5994,35.4022 -47.712,61.4972 -86.4051,67.5737 -38.6484,6.0695 -76.219,-9.1911 -102.866,-37.7373 -166.9182,4.0211 -327.3207,-49.975 -462.58,-146.8465 l 18.9476,147.6245 -119.2455,-92.9373 -29.7038,-239.5651 238.9642,-28.9322 119.2476,92.939 -149.7878,17.9169 c 111.1444,75.5457 241.3291,117.2398 376.9365,113.9778 l -88.4056,-562.9338 -162.9823,15.1883 -18.2332,-116.1017 159.7842,-35.553 -7.8282,-49.8476 c -1.6542,-0.6566 -3.2907,-1.3539 -4.9115,-2.0531 l -0.06,0.01 c -1.6132,-0.6631 -3.1981,-1.4417 -4.7879,-2.1814 l -0.051,0.01 c -1.5882,-0.7403 -3.1574,-1.5192 -4.7138,-2.3015 l -0.06,0.01 c -1.5591,-0.7817 -3.0645,-1.573 -4.5873,-2.3973 l -0.06,0.01 c -1.5241,-0.8235 -3.0317,-1.7244 -4.5299,-2.6257 l -0.059,0.01 c -1.4953,-0.8649 -2.9894,-1.8028 -4.4516,-2.7097 l -0.051,0.01 c -1.4716,-0.9057 -2.8855,-1.856 -4.3247,-2.8034 -1.4447,-0.9831 -2.849,-1.9728 -4.2603,-2.9979 -2.8317,-2.0412 -5.6032,-4.1616 -8.3044,-6.3775 -8.0919,-6.6413 -15.6131,-14.1094 -22.5654,-22.3859 -18.6066,-22.4905 -30.2179,-48.4628 -34.8405,-77.8909 -2.405,-15.3147 -2.8427,-30.1768 -1.2842,-44.5445 0.2787,-2.6039 0.671,-5.1542 1.0741,-7.7475 3.9389,-24.5133 13.7811,-47.6215 29.5606,-69.2792 3.3145,-4.5501 6.7659,-8.9204 10.3624,-13.005 0.903,-1.0222 1.8401,-2.0123 2.7593,-2.9998 6.4205,-6.9591 13.2618,-13.2583 20.5409,-18.8121 1.0424,-0.7875 2.1295,-1.5808 3.1918,-2.3341 2.108,-1.5044 4.2414,-3.0134 6.4188,-4.4187 3.279,-2.1286 6.6678,-4.1264 10.1078,-5.9863 1.1382,-0.5824 2.3293,-1.0991 3.4632,-1.7923 2.3288,-1.172 4.7028,-2.2783 7.0952,-3.3874 1.1873,-0.5168 2.4004,-0.997 3.5962,-1.5529 12.1657,-5.0638 25.2281,-8.6929 39.1533,-10.8797 l 0.031,-0.1984 z m 14.6949,93.0147 c -36.9504,5.8029 -62.2001,40.4603 -56.3973,77.4111 5.8028,36.9505 40.4608,62.202 77.4115,56.3992 36.9507,-5.8029 62.1998,-40.4625 56.3969,-77.4129 -5.8029,-36.951 -40.4603,-62.2004 -77.4111,-56.3974 z"
           clip-path="none"
           style="color:#000000;font-style:normal;font-variant:normal;font-weight:normal;font-stretch:normal;font-size:medium;line-height:normal;font-family:sans-serif;text-indent:0;text-align:start;text-decoration:none;text-decoration-line:none;text-decoration-style:solid;text-decoration-color:#000000;letter-spacing:normal;word-spacing:normal;text-transform:none;direction:ltr;block-progression:tb;writing-mode:lr-tb;baseline-shift:baseline;text-anchor:start;white-space:normal;clip-rule:nonzero;display:inline;overflow:visible;visibility:visible;opacity:1;isolation:auto;mix-blend-mode:normal;color-interpolation:sRGB;color-interpolation-filters:linearRGB;solid-color:#000000;solid-opacity:1;fill:#ffffff;fill-opacity:1;fill-rule:nonzero;stroke:none;stroke-width:1.36224389;stroke-linecap:butt;stroke-linejoin:miter;stroke-miterlimit:4;stroke-dasharray:none;stroke-dashoffset:0;stroke-opacity:1;color-rendering:auto;image-rendering:auto;shape-rendering:auto;text-rendering:auto;enable-background:accumulate" />
      </g>
    </g>
  </g>
</svg>
