<?xml version="1.0" encoding="UTF-8" standalone="no"?>
<!-- Created with Inkscape (http://www.inkscape.org/) -->

<svg
   xmlns:dc="http://purl.org/dc/elements/1.1/"
   xmlns:cc="http://creativecommons.org/ns#"
   xmlns:rdf="http://www.w3.org/1999/02/22-rdf-syntax-ns#"
   xmlns:svg="http://www.w3.org/2000/svg"
   xmlns="http://www.w3.org/2000/svg"
   xmlns:sodipodi="http://sodipodi.sourceforge.net/DTD/sodipodi-0.dtd"
   xmlns:inkscape="http://www.inkscape.org/namespaces/inkscape"
   width="1920"
   height="1200"
   id="svg4890"
   version="1.1"
   inkscape:version="0.48.5 r10040"
   sodipodi:docname="wallpaper_dark_1920_1600.svg">
  <defs
     id="defs4892">
    <clipPath
       clipPathUnits="userSpaceOnUse"
       id="clipPath4598">
      <path
         sodipodi:nodetypes="cccccccc"
         inkscape:connector-curvature="0"
         id="path4600"
         d="m -4588.8535,7377.4531 -67.2619,-33.1184 44.2416,-47.9831 z m -112.1113,-81.1015 44.2416,47.9741 -67.2575,33.1274 z"
         style="fill:#ff0000;fill-opacity:1;fill-rule:evenodd;stroke:none" />
    </clipPath>
    <clipPath
       clipPathUnits="userSpaceOnUse"
       id="clipPath4594">
      <path
         sodipodi:nodetypes="cccccccc"
         inkscape:connector-curvature="0"
         id="path4596"
         d="m -4611.873,7366.1514 -44.3484,-21.8363 29.1702,-31.6371 z m -73.9194,-53.4734 29.1702,31.6312 -44.3455,21.8422 z"
         style="fill:#ff0000;fill-opacity:1;fill-rule:evenodd;stroke:none" />
    </clipPath>
    <clipPath
       clipPathUnits="userSpaceOnUse"
       id="clipPath4590">
      <path
         sodipodi:nodetypes="cccccccc"
         inkscape:connector-curvature="0"
         id="path4592"
         d="m -4623.8797,7360.2562 -32.3968,-15.9515 21.309,-23.1111 z m -53.9986,-39.0626 21.3091,23.1067 -32.3947,15.9559 z"
         style="fill:#ff0000;fill-opacity:1;fill-rule:evenodd;stroke:none" />
    </clipPath>
    <clipPath
       clipPathUnits="userSpaceOnUse"
       id="clipPath4434">
      <rect
         transform="matrix(0.70710678,0.70710678,-0.70710678,0.70710678,0,0)"
         ry="1.8153608"
         rx="1.2299931"
         y="8491.9297"
         x="1914.3979"
         height="261.76361"
         width="261.76361"
         id="rect4436"
         style="opacity:0.57661288;fill:#ff0000;stroke:none" />
    </clipPath>
  </defs>
  <sodipodi:namedview
     id="base"
     pagecolor="#333333"
     bordercolor="#666666"
     borderopacity="1.0"
     inkscape:pageopacity="1"
     inkscape:pageshadow="2"
     inkscape:zoom="0.5516906"
     inkscape:cx="960"
     inkscape:cy="600"
     inkscape:document-units="px"
     inkscape:current-layer="layer1"
     showgrid="false"
     inkscape:window-width="1920"
     inkscape:window-height="1065"
     inkscape:window-x="0"
     inkscape:window-y="15"
     inkscape:window-maximized="0" />
  <metadata
     id="metadata4895">
    <rdf:RDF>
      <cc:Work
         rdf:about="">
        <dc:format>image/svg+xml</dc:format>
        <dc:type
           rdf:resource="http://purl.org/dc/dcmitype/StillImage" />
        <dc:title></dc:title>
      </cc:Work>
    </rdf:RDF>
  </metadata>
  <g
     inkscape:label="Layer 1"
     inkscape:groupmode="layer"
     id="layer1"
     transform="translate(0,147.63782)">
    <g
       style="font-size:65.64995575px;font-style:normal;font-variant:normal;font-weight:bold;font-stretch:normal;line-height:125%;letter-spacing:0px;word-spacing:0px;fill:#ededed;fill-opacity:1;stroke:none;font-family:Open Sans;-inkscape-font-specification:Open Sans Bold"
       id="text4814">
      <path
         d="m 639.8443,677.46161 -9.77697,0 0,-20.93234 c -3e-5,-5.17161 -1.92337,-7.75743 -5.77002,-7.75746 -2.73543,3e-5 -4.7122,0.92964 -5.93029,2.78884 -1.21813,1.85925 -1.82719,4.87248 -1.82717,9.03969 l 0,16.86127 -9.77698,0 0,-49.87858 9.77698,0 0,10.16164 c -2e-5,0.79074 -0.0748,2.64997 -0.22439,5.57768 l -0.22439,2.88501 0.51289,0 c 2.17976,-3.50472 5.64177,-5.25709 10.38603,-5.25713 4.20994,4e-5 7.40482,1.13267 9.58463,3.3979 2.17975,2.2653 3.26964,5.5136 3.26968,9.74492 l 0,23.36856"
         style=""
         id="path5013" />
      <path
         d="m 672.73339,677.46161 -1.89129,-4.87246 -0.25644,0 c -1.64555,2.07294 -3.3445,3.51544 -5.09685,4.32751 -1.73102,0.79071 -3.99628,1.18606 -6.79579,1.18606 -3.44065,0 -6.1547,-0.98304 -8.14214,-2.94912 -1.96608,-1.96607 -2.94912,-4.7656 -2.94912,-8.39858 0,-3.80392 1.32497,-6.60344 3.9749,-8.39857 2.6713,-1.81647 6.68893,-2.82088 12.05292,-3.01323 l 6.2188,-0.19234 0,-1.57072 c -3e-5,-3.63295 -1.85925,-5.44943 -5.57768,-5.44946 -2.86366,3e-5 -6.2295,0.86553 -10.09753,2.5965 l -3.23762,-6.60346 c 4.12448,-2.15838 8.69775,-3.23758 13.71982,-3.23762 4.80832,4e-5 8.49471,1.04719 11.05919,3.14145 2.56442,2.09434 3.84664,5.27853 3.84668,9.55259 l 0,23.88145 -6.82785,0 m -2.88501,-16.60482 -3.78257,0.12822 c -2.84228,0.0855 -4.95795,0.59839 -6.34701,1.53867 -1.38909,0.94031 -2.08363,2.37213 -2.08362,4.29546 -10e-6,2.75679 1.5814,4.13518 4.74423,4.13517 2.26525,1e-5 4.07105,-0.65179 5.41741,-1.95539 1.36768,-1.30359 2.05153,-3.03459 2.05156,-5.19301 l 0,-2.94912"
         style=""
         id="path5015" />
      <path
         d="m 721.68235,677.46161 -9.77697,0 0,-20.93234 c -3e-5,-2.58579 -0.43812,-4.51982 -1.31428,-5.80207 -0.85484,-1.30357 -2.21186,-1.95536 -4.07107,-1.95539 -2.50036,3e-5 -4.31684,0.91896 -5.44946,2.75678 -1.13264,1.83789 -1.69896,4.8618 -1.69894,9.07175 l 0,16.86127 -9.77698,0 0,-35.83821 7.46897,0 1.31428,4.58396 0.54495,0 c 0.96165,-1.64549 2.35073,-2.92772 4.16723,-3.84668 1.81647,-0.94026 3.90008,-1.41041 6.25085,-1.41045 5.36395,4e-5 8.99692,1.75241 10.89892,5.25713 l 0.8655,0 c 0.96163,-1.66686 2.37208,-2.95977 4.23135,-3.87874 1.88055,-0.91889 3.99622,-1.37835 6.34701,-1.37839 4.06033,4e-5 7.12699,1.04719 9.19997,3.14146 2.09425,2.07296 3.1414,5.40674 3.14146,10.00136 l 0,23.36856 -9.80903,0 0,-20.93234 c -5e-5,-2.58579 -0.43814,-4.51982 -1.31428,-5.80207 -0.85487,-1.30357 -2.21189,-1.95536 -4.07107,-1.95539 -2.39353,3e-5 -4.18864,0.85484 -5.38535,2.56445 -1.17541,1.70966 -1.76309,4.4237 -1.76306,8.14213 l 0,17.98322"
         style=""
         id="path5017" />
      <path
         d="m 774.02921,640.95023 c 4.23132,4e-5 7.54373,1.65625 9.93725,4.96863 2.39345,3.29107 3.5902,7.81091 3.59023,13.55953 -3e-5,5.91962 -1.23952,10.50358 -3.71845,13.75187 -2.45763,3.24831 -5.81279,4.87246 -10.06547,4.87246 -4.21,0 -7.51173,-1.52798 -9.9052,-4.58396 l -0.67316,0 -1.63484,3.94285 -7.46897,0 0,-49.87858 9.77697,0 0,11.60414 c -10e-6,1.4746 -0.12823,3.83603 -0.38466,7.0843 l 0.38466,0 c 2.28662,-3.54746 5.67383,-5.3212 10.16164,-5.32124 m -3.14145,7.82158 c -2.41488,3e-5 -4.17794,0.74799 -5.28918,2.24389 -1.11128,1.47459 -1.68828,3.9215 -1.73101,7.34075 l 0,1.05783 c -10e-6,3.84669 0.56631,6.60348 1.69895,8.27036 1.15399,1.6669 2.97047,2.50035 5.44946,2.50034 2.0088,10e-6 3.60089,-0.91892 4.77629,-2.75679 1.19672,-1.85921 1.79509,-4.55188 1.79512,-8.07802 -3e-5,-3.5261 -0.5984,-6.16534 -1.79512,-7.91774 -1.19677,-1.77372 -2.8316,-2.66059 -4.90451,-2.66062"
         style=""
         id="path5019" />
      <path
         d="m 821.0228,677.46161 -1.31428,-4.58396 -0.51289,0 c -1.04718,1.6669 -2.53242,2.95981 -4.45574,3.87873 -1.92336,0.89756 -4.11382,1.34634 -6.5714,1.34634 -4.20999,0 -7.3835,-1.12195 -9.52053,-3.36584 -2.13705,-2.26526 -3.20557,-5.51356 -3.20556,-9.74492 l 0,-23.36856 9.77697,0 0,20.93234 c -2e-5,2.58583 0.45945,4.53054 1.37839,5.83412 0.91891,1.28224 2.38279,1.92335 4.39162,1.92334 2.7354,10e-6 4.71216,-0.90823 5.9303,-2.72473 1.21809,-1.83784 1.82714,-4.87244 1.82717,-9.1038 l 0,-16.86127 9.77697,0 0,35.83821 -7.50102,0"
         style=""
         id="path5021" />
      <path
         d="m 858.84845,640.95023 c 1.32494,4e-5 2.42552,0.0962 3.30173,0.2885 l -0.73728,9.16792 c -0.79073,-0.21368 -1.7524,-0.32053 -2.88501,-0.32056 -3.1201,3e-5 -5.55633,0.80142 -7.30868,2.40417 -1.73102,1.60281 -2.59652,3.8467 -2.59651,6.73169 l 0,18.23966 -9.77697,0 0,-35.83821 7.40485,0 1.44251,6.02646 0.48083,0 c 1.11125,-2.00879 2.60718,-3.62225 4.48779,-4.8404 1.90195,-1.23945 3.96419,-1.85919 6.18674,-1.85923"
         style=""
         id="path5023" />
      <path
         d="m 899.91172,641.6234 0,4.96863 -5.60973,1.4425 c 1.02575,1.60281 1.53864,3.39792 1.53867,5.38535 -3e-5,3.84669 -1.34637,6.84924 -4.03901,9.00763 -2.67133,2.13706 -6.38978,3.20558 -11.15537,3.20557 l -1.76306,-0.0962 -1.4425,-0.16028 c -1.00442,0.76935 -1.50663,1.62416 -1.50662,2.56445 -10e-6,1.41046 1.79511,2.11568 5.38535,2.11568 l 6.09057,0 c 3.93214,0 6.92399,0.84413 8.97558,2.53239 2.0729,1.68827 3.10937,4.16724 3.1094,7.43691 -3e-5,4.1886 -1.75241,7.4369 -5.25712,9.74492 -3.48341,2.30799 -8.49477,3.46199 -15.0341,3.462 -5.00069,-10e-6 -8.82599,-0.8762 -11.47592,-2.62856 -2.62856,-1.73101 -3.94284,-4.16724 -3.94284,-7.30868 0,-2.15842 0.67316,-3.96422 2.0195,-5.41741 1.34633,-1.45319 3.3231,-2.48965 5.9303,-3.1094 -1.00442,-0.4274 -1.88061,-1.12194 -2.62857,-2.08361 -0.74797,-0.98304 -1.12195,-2.0195 -1.12195,-3.1094 0,-1.3677 0.39535,-2.50033 1.18606,-3.3979 0.7907,-0.91891 1.93402,-1.81647 3.42996,-2.69267 -1.88061,-0.81206 -3.37654,-2.11566 -4.48779,-3.91079 -1.0899,-1.7951 -1.63484,-3.91077 -1.63484,-6.34702 0,-3.91076 1.27154,-6.93467 3.81462,-9.07174 2.54307,-2.13701 6.17604,-3.20553 10.89892,-3.20557 1.00439,4e-5 2.19045,0.0962 3.55818,0.2885 1.38905,0.171 2.27592,0.29922 2.66061,0.38467 l 12.5017,0 m -27.66401,40.903 c -10e-6,1.34633 0.6411,2.40417 1.92333,3.17351 1.30359,0.76933 3.12007,1.15399 5.44946,1.154 3.50473,-1e-5 6.25083,-0.48084 8.2383,-1.4425 1.98743,-0.96168 2.98115,-2.27596 2.98118,-3.94285 -3e-5,-1.34634 -0.58772,-2.27595 -1.76306,-2.78884 -1.1754,-0.51289 -2.99188,-0.76933 -5.44946,-0.76933 l -5.06479,0 c -1.79513,0 -3.30175,0.41672 -4.51985,1.25017 -1.19675,0.85481 -1.79512,1.97676 -1.79511,3.36584 m 3.55817,-29.17063 c -10e-6,1.94473 0.43808,3.4834 1.31428,4.61601 0.89755,1.13265 2.25457,1.69897 4.07107,1.69895 1.83784,2e-5 3.18417,-0.5663 4.03901,-1.69895 0.8548,-1.13261 1.2822,-2.67128 1.28223,-4.61601 -3e-5,-4.3168 -1.77377,-6.47521 -5.32124,-6.47524 -3.59025,3e-5 -5.38536,2.15844 -5.38535,6.47524"
         style=""
         id="path5025" />
      <path
         d="m 904.39953,672.87765 c -10e-6,-1.79511 0.48083,-3.15213 1.4425,-4.07106 0.96166,-0.91892 2.36143,-1.37839 4.19929,-1.3784 1.77373,10e-6 3.14144,0.47016 4.10312,1.41045 0.98303,0.94031 1.47455,2.28664 1.47456,4.03901 -10e-6,1.68827 -0.49153,3.02392 -1.47456,4.00696 -0.98305,0.96167 -2.35076,1.4425 -4.10312,1.4425 -1.79512,0 -3.1842,-0.47015 -4.16723,-1.41045 -0.98305,-0.96166 -1.47457,-2.308 -1.47456,-4.03901"
         style=""
         id="path5027" />
      <path
         d="m 944.3088,648.96414 -8.46269,0 0,28.49747 -9.77697,0 0,-28.49747 -5.38535,0 0,-4.71218 5.38535,-2.62856 0,-2.62856 c -10e-6,-4.08171 1.0044,-7.06288 3.01323,-8.94353 2.00881,-1.88054 5.22505,-2.82084 9.64874,-2.82089 3.37651,5e-5 6.37905,0.50225 9.00764,1.50661 l -2.50034,7.18047 c -1.9661,-0.6197 -3.78259,-0.92957 -5.44946,-0.92962 -1.3891,5e-5 -2.3935,0.41677 -3.01323,1.25017 -0.61976,0.81212 -0.92963,1.85927 -0.92961,3.14146 l 0,2.24389 8.46269,0 0,7.34074"
         style=""
         id="path5029" />
      <path
         d="m 969.88919,640.95023 c 1.32494,4e-5 2.42552,0.0962 3.30173,0.2885 l -0.73728,9.16792 c -0.79073,-0.21368 -1.7524,-0.32053 -2.885,-0.32056 -3.12011,3e-5 -5.55633,0.80142 -7.30869,2.40417 -1.73102,1.60281 -2.59652,3.8467 -2.59651,6.73169 l 0,18.23966 -9.77697,0 0,-35.83821 7.40485,0 1.44251,6.02646 0.48083,0 c 1.11125,-2.00879 2.60718,-3.62225 4.48779,-4.8404 1.90195,-1.23945 3.96419,-1.85919 6.18674,-1.85923"
         style=""
         id="path5031" />
      <path
         d="m 994.60409,647.90631 c -2.07295,3e-5 -3.6971,0.66251 -4.87246,1.98745 -1.17539,1.30362 -1.84855,3.16284 -2.01951,5.57768 l 13.71978,0 c -0.043,-2.41484 -0.6732,-4.27406 -1.89124,-5.57768 -1.21814,-1.32494 -2.86366,-1.98742 -4.93657,-1.98745 m 1.37839,30.19641 c -5.77003,0 -10.27919,-1.59209 -13.52748,-4.77629 -3.24831,-3.18419 -4.87246,-7.69334 -4.87246,-13.52748 0,-6.00507 1.49593,-10.64245 4.48779,-13.91215 3.01322,-3.29101 7.16977,-4.93653 12.46965,-4.93657 5.06476,4e-5 9.00762,1.44254 11.82852,4.32751 2.8209,2.88504 4.2313,6.87062 4.2314,11.95676 l 0,4.74423 -23.11216,0 c 0.10683,2.77817 0.9296,4.94727 2.46828,6.5073 1.53865,1.56005 3.69707,2.34007 6.47524,2.34006 2.15839,10e-6 4.19924,-0.22438 6.12264,-0.67317 1.9233,-0.44877 3.9321,-1.16468 6.0264,-2.14773 l 0,7.56514 c -1.7096,0.85481 -3.5368,1.48524 -5.4815,1.89128 -1.9447,0.42741 -4.31682,0.64111 -7.11632,0.64111"
         style=""
         id="path5033" />
      <path
         d="m 1018.197,632.35932 c 0,-3.18415 1.7738,-4.77624 5.3213,-4.77629 3.5475,5e-5 5.3212,1.59214 5.3212,4.77629 0,1.51734 -0.4488,2.7034 -1.3463,3.55818 -0.8762,0.83348 -2.2012,1.25021 -3.9749,1.25017 -3.5475,4e-5 -5.3213,-1.60274 -5.3213,-4.80835 m 10.1937,45.10229 -9.7769,0 0,-35.83821 9.7769,0 0,35.83821"
         style=""
         id="path5035" />
      <path
         d="m 1058.4269,648.96414 -8.4627,0 0,28.49747 -9.777,0 0,-28.49747 -5.3853,0 0,-4.71218 5.3853,-2.62856 0,-2.62856 c 0,-4.08171 1.0044,-7.06288 3.0133,-8.94353 2.0088,-1.88054 5.225,-2.82084 9.6487,-2.82089 3.3765,5e-5 6.3791,0.50225 9.0077,1.50661 l -2.5004,7.18047 c -1.9661,-0.6197 -3.7826,-0.92957 -5.4494,-0.92962 -1.3891,5e-5 -2.3936,0.41677 -3.0133,1.25017 -0.6197,0.81212 -0.9296,1.85927 -0.9296,3.14146 l 0,2.24389 8.4627,0 0,7.34074"
         style=""
         id="path5037" />
      <path
         d="m 1089.3926,677.46161 -1.3142,-4.58396 -0.5129,0 c -1.0472,1.6669 -2.5325,2.95981 -4.4558,3.87873 -1.9233,0.89756 -4.1138,1.34634 -6.5714,1.34634 -4.21,0 -7.3835,-1.12195 -9.5205,-3.36584 -2.137,-2.26526 -3.2056,-5.51356 -3.2056,-9.74492 l 0,-23.36856 9.777,0 0,20.93234 c 0,2.58583 0.4595,4.53054 1.3784,5.83412 0.9189,1.28224 2.3828,1.92335 4.3916,1.92334 2.7354,10e-6 4.7122,-0.90823 5.9303,-2.72473 1.2181,-1.83784 1.8272,-4.87244 1.8272,-9.1038 l 0,-16.86127 9.777,0 0,35.83821 -7.5011,0"
         style=""
         id="path5039" />
      <path
         d="m 1140.297,677.46161 -9.777,0 0,-20.93234 c 0,-2.58579 -0.4595,-4.51982 -1.3784,-5.80207 -0.9189,-1.30357 -2.3828,-1.95536 -4.3916,-1.95539 -2.7354,3e-5 -4.7122,0.91896 -5.9303,2.75678 -1.2181,1.81651 -1.8272,4.84043 -1.8272,9.07175 l 0,16.86127 -9.7769,0 0,-35.83821 7.4689,0 1.3143,4.58396 0.545,0 c 1.0898,-1.73097 2.5858,-3.03457 4.4878,-3.91079 1.9233,-0.89752 4.1031,-1.3463 6.5393,-1.34634 4.1672,4e-5 7.33,1.13267 9.4885,3.3979 2.1584,2.24393 3.2376,5.49223 3.2376,9.74492 l 0,23.36856"
         style=""
         id="path5041" />
      <path
         d="m 1159.8189,657.97178 4.2634,-5.44946 10.0334,-10.89892 11.0271,0 -14.2327,15.54699 15.0982,20.29122 -11.2836,0 -10.3219,-14.52121 -4.1993,3.36585 0,11.15536 -9.7769,0 0,-49.87858 9.7769,0 0,22.24662 -0.5128,8.14213 0.1282,0"
         style=""
         id="path5043" />
      <path
         d="m 1189.823,672.87765 c 0,-1.79511 0.4808,-3.15213 1.4425,-4.07106 0.9616,-0.91892 2.3614,-1.37839 4.1993,-1.3784 1.7737,10e-6 3.1414,0.47016 4.1031,1.41045 0.983,0.94031 1.4745,2.28664 1.4745,4.03901 0,1.68827 -0.4915,3.02392 -1.4745,4.00696 -0.9831,0.96167 -2.3508,1.4425 -4.1031,1.4425 -1.7952,0 -3.1842,-0.47015 -4.1673,-1.41045 -0.983,-0.96166 -1.4745,-2.308 -1.4745,-4.03901"
         style=""
         id="path5045" />
      <path
         d="m 1243.0033,677.46161 -9.777,0 0,-20.93234 c 0,-2.58579 -0.4595,-4.51982 -1.3784,-5.80207 -0.9189,-1.30357 -2.3828,-1.95536 -4.3916,-1.95539 -2.7354,3e-5 -4.7122,0.91896 -5.9303,2.75678 -1.2181,1.81651 -1.8272,4.84043 -1.8272,9.07175 l 0,16.86127 -9.7769,0 0,-35.83821 7.4689,0 1.3143,4.58396 0.545,0 c 1.0898,-1.73097 2.5858,-3.03457 4.4878,-3.91079 1.9233,-0.89752 4.1031,-1.3463 6.5393,-1.34634 4.1672,4e-5 7.33,1.13267 9.4885,3.3979 2.1584,2.24393 3.2376,5.49223 3.2376,9.74492 l 0,23.36856"
         style=""
         id="path5047" />
      <path
         d="m 1267.9746,647.90631 c -2.0729,3e-5 -3.6971,0.66251 -4.8724,1.98745 -1.1754,1.30362 -1.8486,3.16284 -2.0195,5.57768 l 13.7198,0 c -0.043,-2.41484 -0.6732,-4.27406 -1.8913,-5.57768 -1.2181,-1.32494 -2.8637,-1.98742 -4.9366,-1.98745 m 1.3784,30.19641 c -5.77,0 -10.2792,-1.59209 -13.5275,-4.77629 -3.2483,-3.18419 -4.8724,-7.69334 -4.8724,-13.52748 0,-6.00507 1.4959,-10.64245 4.4878,-13.91215 3.0132,-3.29101 7.1697,-4.93653 12.4696,-4.93657 5.0648,4e-5 9.0076,1.44254 11.8286,4.32751 2.8208,2.88504 4.2313,6.87062 4.2313,11.95676 l 0,4.74423 -23.1121,0 c 0.1068,2.77817 0.9296,4.94727 2.4683,6.5073 1.5386,1.56005 3.697,2.34007 6.4752,2.34006 2.1584,10e-6 4.1993,-0.22438 6.1226,-0.67317 1.9233,-0.44877 3.9322,-1.16468 6.0265,-2.14773 l 0,7.56514 c -1.7097,0.85481 -3.5368,1.48524 -5.4815,1.89128 -1.9448,0.42741 -4.3169,0.64111 -7.1164,0.64111"
         style=""
         id="path5049" />
      <path
         d="m 1307.0825,670.3132 c 1.7096,10e-6 3.7612,-0.37397 6.1547,-1.12195 l 0,7.27663 c -2.4363,1.0899 -5.4281,1.63484 -8.9756,1.63484 -3.9108,0 -6.7637,-0.98304 -8.5588,-2.94912 -1.7738,-1.98744 -2.6607,-4.95793 -2.6607,-8.91147 l 0,-17.27799 -4.6801,0 0,-4.13518 5.3854,-3.26967 2.8209,-7.56513 6.2508,0 0,7.62924 10.0334,0 0,7.34074 -10.0334,0 0,17.27799 c 0,1.38909 0.3847,2.41487 1.154,3.07735 0.7907,0.66249 1.8272,0.99373 3.1094,0.99372"
         style=""
         id="path5051" />
    </g>
    <g
       id="g4756"
       transform="matrix(0.6501202,0,0,0.6501202,3731.1166,-5211.6443)">
      <path
         sodipodi:type="arc"
         style="fill:#333333;fill-opacity:1;stroke:#e5287a;stroke-width:33.04941177;stroke-linecap:square;stroke-linejoin:round;stroke-miterlimit:4;stroke-opacity:1;stroke-dasharray:none;stroke-dashoffset:0;display:inline"
         id="path4758"
         sodipodi:cx="-167.14285"
         sodipodi:cy="679.50507"
         sodipodi:rx="252.85715"
         sodipodi:ry="252.85715"
         d="m 85.714294,679.50507 c 0,139.64914 -113.208,252.85714 -252.857144,252.85714 C -306.792,932.36221 -420,819.15421 -420,679.50507 c 0,-139.64915 113.208,-252.85715 252.85715,-252.85715 139.649144,0 252.857144,113.208 252.857144,252.85715 z"
         transform="matrix(-0.95535486,0,0,0.95535486,-4422.1489,7937.6244)" />
      <path
         transform="matrix(-0.80457415,0,0,0.80457415,-4396.9469,8040.0807)"
         d="m 85.714294,679.50507 c 0,139.64914 -113.208,252.85714 -252.857144,252.85714 C -306.792,932.36221 -420,819.15421 -420,679.50507 c 0,-139.64915 113.208,-252.85715 252.85715,-252.85715 139.649144,0 252.857144,113.208 252.857144,252.85715 z"
         sodipodi:ry="252.85715"
         sodipodi:rx="252.85715"
         sodipodi:cy="679.50507"
         sodipodi:cx="-167.14285"
         id="path4760"
         style="fill:none;stroke:#ededed;stroke-width:18.42903709;stroke-linecap:square;stroke-linejoin:round;stroke-miterlimit:4;stroke-opacity:1;stroke-dasharray:none;stroke-dashoffset:0;display:inline"
         sodipodi:type="arc" />
      <path
         sodipodi:type="arc"
         style="fill:none;stroke:#fdbc41;stroke-width:2.82827973;stroke-miterlimit:4;stroke-opacity:1;stroke-dasharray:none"
         id="path4762"
         sodipodi:cx="-4656.4263"
         sodipodi:cy="7344.2769"
         sodipodi:rx="16.791935"
         sodipodi:ry="16.791935"
         d="m -4639.6343,7344.2769 c 0,9.2739 -7.518,16.7919 -16.792,16.7919 -9.2739,0 -16.7919,-7.518 -16.7919,-16.7919 0,-9.274 7.518,-16.792 16.7919,-16.792 9.274,0 16.792,7.518 16.792,16.792 z"
         transform="matrix(-3.5357183,0,0,3.5357183,-20726.305,-17420.965)"
         clip-path="url(#clipPath4598)" />
      <path
         transform="matrix(-5.3625144,0,0,5.3625144,-29232.647,-30837.462)"
         d="m -4639.6343,7344.2769 c 0,9.2739 -7.518,16.7919 -16.792,16.7919 -9.2739,0 -16.7919,-7.518 -16.7919,-16.7919 0,-9.274 7.518,-16.792 16.7919,-16.792 9.274,0 16.792,7.518 16.792,16.792 z"
         sodipodi:ry="16.791935"
         sodipodi:rx="16.791935"
         sodipodi:cy="7344.2769"
         sodipodi:cx="-4656.4263"
         id="path4764"
         style="fill:none;stroke:#fdbc41;stroke-width:1.86479688;stroke-miterlimit:4;stroke-opacity:1;stroke-dasharray:none"
         sodipodi:type="arc"
         clip-path="url(#clipPath4594)" />
      <path
         sodipodi:type="arc"
         style="fill:none;stroke:#fdbc41;stroke-width:1.36224389;stroke-miterlimit:4;stroke-opacity:1;stroke-dasharray:none"
         id="path4766"
         sodipodi:cx="-4656.4263"
         sodipodi:cy="7344.2769"
         sodipodi:rx="16.791935"
         sodipodi:ry="16.791935"
         d="m -4639.6343,7344.2769 c 0,9.2739 -7.518,16.7919 -16.792,16.7919 -9.2739,0 -16.7919,-7.518 -16.7919,-16.7919 0,-9.274 7.518,-16.792 16.7919,-16.792 9.274,0 16.792,7.518 16.792,16.792 z"
         transform="matrix(-7.3408294,0,0,7.3408294,-38444.524,-45366.754)"
         clip-path="url(#clipPath4590)" />
      <path
         id="path4768"
         d="m -4262.4651,8517.3959 c 2.5222,0 4.9319,0.2787 7.223,0.8361 0.2268,0.065 0.4543,0.1166 0.6785,0.175 0.4537,0.1296 0.9043,0.2592 1.3485,0.4018 0.2197,0.091 0.4446,0.1491 0.662,0.2204 0.6597,0.2333 1.3139,0.4925 1.9526,0.7777 0.4239,0.188 0.8432,0.3954 1.2576,0.6028 0.2087,0.1037 0.4226,0.2138 0.6287,0.324 1.4409,0.7797 2.8253,1.7033 4.1534,2.7552 0.1899,0.149 0.383,0.2981 0.571,0.4537 0.7491,0.6222 1.4804,1.2988 2.1926,2.0111 3.3905,3.3903 5.7717,7.2019 7.1485,11.4257 0.1432,0.4472 0.2832,0.8873 0.4051,1.3397 0.6743,2.4965 1.0093,5.1357 1.0095,7.9096 -2e-4,5.3302 -1.3316,10.2436 -3.9962,14.7357 -0.9992,1.656 -2.1215,3.1849 -3.3675,4.5835 -0.416,0.4667 -0.8469,0.9184 -1.2908,1.3578 -0.221,0.2204 -0.442,0.4343 -0.6701,0.6482 -0.2281,0.2074 -0.4517,0.4147 -0.6867,0.6157 l -0.01,0 c -0.2333,0.2009 -0.4712,0.4083 -0.7115,0.6027 l -0.01,0 c -0.2398,0.2009 -0.4815,0.4019 -0.728,0.5898 l -0.01,0 c -0.2463,0.188 -0.4907,0.3694 -0.7446,0.5509 l -0.01,0 c -0.2534,0.1815 -0.5094,0.363 -0.7696,0.538 l -0.01,0 c -0.2605,0.1749 -0.5191,0.3564 -0.7859,0.5184 l -0.01,0 c -0.2671,0.1686 -0.5367,0.3371 -0.8109,0.4991 l 0,9.0287 29.2312,1.8489 0,21.0291 -29.2312,1.8398 0,108.0017 c 14.8332,23.2923 -40.2096,14.961 -29.2752,0.072 l 0,-108.0128 -29.2312,-1.849 0,-21.029 29.2312,-1.8398 0,-9.0176 c -2.2056,-1.2936 -4.188,-2.8174 -5.9571,-4.5673 -0.4433,-0.4407 -0.8745,-0.8899 -1.2908,-1.3559 -1.246,-1.3999 -2.3681,-2.9275 -3.3675,-4.5835 -1.4989,-2.5263 -2.5795,-5.183 -3.2351,-7.9757 -0.51,-2.1719 -0.7613,-4.428 -0.7613,-6.7599 0,-0.2528 0,-0.5056 0.01,-0.7544 0.058,-2.4992 0.3876,-4.8875 1.001,-7.1566 0.1238,-0.4537 0.2605,-0.8963 0.4051,-1.3397 1.3768,-4.2238 3.7579,-8.0354 7.1485,-11.4263 0.7123,-0.713 1.4434,-1.3864 2.1925,-2.0105 l 0.01,0 c 1.4997,-1.2463 3.0689,-2.3183 4.716,-3.2101 l 0.01,0 c 0.6164,-0.3306 1.2413,-0.6417 1.8782,-0.9269 l 0.01,0 c 0.2106,-0.091 0.4239,-0.1814 0.6371,-0.2722 0,0 0,0 0.01,0 0.2132,-0.091 0.4219,-0.1814 0.6371,-0.2657 0,0 0,0 0.01,0 0.4329,-0.1685 0.8735,-0.3176 1.3156,-0.4666 0,0 0,0 0.01,0 0.2197,-0.091 0.4401,-0.1297 0.662,-0.2074 0,0 0,0 0.01,0 0.4466,-0.1297 0.8929,-0.2593 1.3485,-0.3695 0,0 0,0 0.01,0 0.2269,-0.065 0.4583,-0.1037 0.6867,-0.162 0,0 0,0 0.01,0 0.2288,-0.065 0.4556,-0.1037 0.6866,-0.1361 0,0 0,0 0.01,0 0.2314,-0.065 0.4615,-0.091 0.695,-0.1296 0,0 0,0 0.01,0 0.2333,-0.065 0.4679,-0.091 0.7032,-0.1167 0,0 0,0 0.01,0 0.236,-0.065 0.4738,-0.065 0.7117,-0.091 0,0 0,0 0.01,0 0.2379,-0.065 0.4796,-0.065 0.7198,-0.091 0,0 0,0 0.01,0 0.2405,-0.065 0.4771,-0.065 0.7198,-0.065 0,0 0,0 0.01,0 0.2431,0 0.4913,-0.065 0.7365,-0.065 0,0 0,0 0.01,0 0.245,0 0.4893,-0.065 0.7364,-0.065 0,0 0,0 0.01,0 0.2495,0 0.5003,-0.01 0.753,-0.01 z"
         style="font-size:773.01678467px;font-style:normal;font-variant:normal;font-weight:normal;font-stretch:normal;line-height:125%;letter-spacing:0px;word-spacing:0px;fill:#fdbc41;fill-opacity:1;stroke:none;display:inline;font-family:FontAwesome;-inkscape-font-specification:FontAwesome"
         inkscape:connector-curvature="0"
         sodipodi:nodetypes="ccccccccccccccccccccccccccccccccccccccccccccccccccccccccccccccccccccccccccccccccccccccc" />
      <g
         transform="translate(0.61292656,0)"
         id="g4770">
        <path
           transform="matrix(-0.90331787,0,0,1,-8464.4527,1213.1077)"
           clip-path="url(#clipPath4434)"
           inkscape:connector-curvature="0"
           id="path4772"
           d="m -4651.0852,7203.3402 c -87.2529,0 -158.1643,70.9109 -158.1643,158.1643 0,87.2534 70.9114,158.2996 158.1643,158.2996 87.253,0 158.2996,-71.0462 158.2996,-158.2996 0,-87.2534 -71.0466,-158.1643 -158.2996,-158.1643 z m 0,24.3747 c 74.0669,0 133.9254,59.7228 133.9249,133.7896 0,74.0669 -59.858,133.9249 -133.9249,133.9249 -74.0668,0 -133.7897,-59.858 -133.7897,-133.9249 0,-74.0668 59.7229,-133.7896 133.7897,-133.7896 z"
           style="font-size:medium;font-style:normal;font-variant:normal;font-weight:normal;font-stretch:normal;text-indent:0;text-align:start;text-decoration:none;line-height:normal;letter-spacing:normal;word-spacing:normal;text-transform:none;direction:ltr;block-progression:tb;writing-mode:lr-tb;text-anchor:start;baseline-shift:baseline;color:#000000;fill:#fdbc41;fill-opacity:1;stroke:none;stroke-width:5.63066292;marker:none;visibility:visible;display:inline;overflow:visible;enable-background:accumulate;font-family:Sans;-inkscape-font-specification:Sans" />
        <path
           style="fill:#fdbc41;fill-opacity:1"
           d="m -4183.2437,8676.9013 -28.7358,1.0553 18.4989,-19.7387 43.0441,-1.5193 1.3999,43.1715 -18.4987,19.7386 -0.8087,-28.7438 c -8.2219,-0.5914 -9.1208,-3.5121 -14.8997,-13.9636 z"
           id="path4774"
           inkscape:connector-curvature="0"
           sodipodi:nodetypes="cccccccc" />
        <path
           sodipodi:nodetypes="cccccccc"
           inkscape:connector-curvature="0"
           id="path4776"
           d="m -4342.9702,8676.9013 28.7358,1.0553 -18.4989,-19.7387 -43.0441,-1.5193 -1.3999,43.1715 18.4987,19.7386 0.8087,-28.7438 c 8.2219,-0.5914 9.1208,-3.5121 14.8997,-13.9636 z"
           style="fill:#fdbc41;fill-opacity:1" />
      </g>
      <path
         transform="matrix(-0.72166902,0,0,0.72166902,-7622.8899,3246.1924)"
         d="m -4639.6343,7344.2769 c 0,9.2739 -7.518,16.7919 -16.792,16.7919 -9.2739,0 -16.7919,-7.518 -16.7919,-16.7919 0,-9.274 7.518,-16.792 16.7919,-16.792 9.274,0 16.792,7.518 16.792,16.792 z"
         sodipodi:ry="16.791935"
         sodipodi:rx="16.791935"
         sodipodi:cy="7344.2769"
         sodipodi:cx="-4656.4263"
         id="path4778"
         style="fill:#333333;fill-opacity:1;fill-rule:evenodd;stroke:none"
         sodipodi:type="arc" />
      <path
         inkscape:connector-curvature="0"
         id="path4780"
         d="m -4241.0652,8716.3438 c 0.013,0.3459 0.028,0.6816 0.028,1.0312 0,13.2186 -9.6102,23.9375 -21.4615,23.9375 -11.8513,0 -21.4615,-10.7189 -21.4615,-23.9375 0,-0.3496 0.015,-0.6853 0.028,-1.0312 l 42.8672,0 z"
         style="fill:#fdbc41;fill-opacity:1;stroke:none" />
    </g>
  </g>
</svg>
